<svg width="30" height="30" viewBox="0 0 30 30" fill="none" xmlns="http://www.w3.org/2000/svg">
<path opacity="0.3" d="M12 8C12 9.88562 12 10.8284 11.4142 11.4142C10.8284 12 9.88562 12 8 12H1.33333C1.02334 12 0.868347 12 0.741181 11.9659C0.396089 11.8735 0.126541 11.6039 0.0340738 11.2588C0 11.1317 0 10.9767 0 10.6667C0 8.18674 0 6.94678 0.272593 5.92945C1.01233 3.16871 3.16871 1.01233 5.92945 0.272593C6.94678 0 8.18674 0 10.6667 0C10.9767 0 11.1317 0 11.2588 0.0340738C11.6039 0.126541 11.8735 0.396089 11.9659 0.741181C12 0.868347 12 1.02334 12 1.33333V8Z" fill="white"/>
<path opacity="0.3" d="M12 28.6667C12 28.9767 12 29.1317 11.9659 29.2588C11.8735 29.6039 11.6039 29.8735 11.2588 29.9659C11.1317 30 10.9767 30 10.6667 30C8.18674 30 6.94678 30 5.92945 29.7274C3.16871 28.9877 1.01233 26.8313 0.272593 24.0706C0 23.0532 0 21.8133 0 19.3333C0 19.0233 0 18.8683 0.0340738 18.7412C0.126541 18.3961 0.396089 18.1265 0.741181 18.0341C0.868347 18 1.02334 18 1.33333 18H8C9.88562 18 10.8284 18 11.4142 18.5858C12 19.1716 12 20.1144 12 22V28.6667Z" fill="white"/>
<path opacity="0.3" d="M30 10.6667C30 10.9767 30 11.1317 29.9659 11.2588C29.8735 11.6039 29.6039 11.8735 29.2588 11.9659C29.1317 12 28.9767 12 28.6667 12H22C20.1144 12 19.1716 12 18.5858 11.4142C18 10.8284 18 9.88562 18 8V1.33333C18 1.02334 18 0.868347 18.0341 0.741181C18.1265 0.396089 18.3961 0.126541 18.7412 0.0340738C18.8683 0 19.0233 0 19.3333 0C21.8133 0 23.0532 0 24.0706 0.272593C26.8313 1.01233 28.9877 3.16871 29.7274 5.92945C30 6.94678 30 8.18674 30 10.6667Z" fill="white"/>
<path opacity="0.3" d="M30 19.3333C30 21.8133 30 23.0532 29.7274 24.0706C28.9877 26.8313 26.8313 28.9877 24.0706 29.7274C23.0532 30 21.8133 30 19.3333 30C19.0233 30 18.8683 30 18.7412 29.9659C18.3961 29.8735 18.1265 29.6039 18.0341 29.2588C18 29.1317 18 28.9767 18 28.6667V22C18 20.1144 18 19.1716 18.5858 18.5858C19.1716 18 20.1144 18 22 18H28.6667C28.9767 18 29.1317 18 29.2588 18.0341C29.6039 18.1265 29.8735 18.3961 29.9659 18.7412C30 18.8683 30 19.0233 30 19.3333Z" fill="white"/>
<rect x="6" y="6" width="18" height="18" rx="4" fill="white"/>
</svg>
