<svg width="30" height="30" viewBox="0 0 30 30" fill="none" xmlns="http://www.w3.org/2000/svg">
<path opacity="0.4" d="M23.3916 6.0151C23.852 5.80337 24.0823 5.6975 24.1924 5.80762C24.3025 5.91774 24.1966 6.14798 23.9849 6.60845L23.4779 7.71113C21.3506 12.3376 21.3506 17.6625 23.4779 22.2889L23.9849 23.3916C24.1966 23.852 24.3025 24.0823 24.1924 24.1924C24.0823 24.3025 23.852 24.1967 23.3916 23.9849L22.2889 23.4779C17.6625 21.3506 12.3375 21.3506 7.71112 23.4779L6.60844 23.9849C6.14797 24.1967 5.91773 24.3025 5.80761 24.1924C5.69749 24.0823 5.80336 23.852 6.01509 23.3916L6.52213 22.2889C8.64944 17.6625 8.64944 12.3376 6.52212 7.71113L6.01509 6.60845C5.80336 6.14798 5.69749 5.91774 5.80761 5.80762C5.91773 5.6975 6.14797 5.80337 6.60844 6.0151L7.71112 6.52214C12.3375 8.64945 17.6625 8.64945 22.2889 6.52214L23.3916 6.0151Z" fill="white"/>
<path d="M14.5482 1.76782C14.7376 1.25594 14.8323 1 15 1C15.1677 1 15.2624 1.25594 15.4518 1.76782L15.9054 2.99362C17.8085 8.13659 21.8634 12.1915 27.0064 14.0946L28.2322 14.5482C28.7441 14.7376 29 14.8323 29 15C29 15.1677 28.7441 15.2624 28.2322 15.4518L27.0064 15.9054C21.8634 17.8085 17.8085 21.8634 15.9054 27.0064L15.4518 28.2322C15.2624 28.7441 15.1677 29 15 29C14.8323 29 14.7376 28.7441 14.5482 28.2322L14.0946 27.0064C12.1915 21.8634 8.13659 17.8085 2.99362 15.9054L1.76782 15.4518C1.25594 15.2624 1 15.1677 1 15C1 14.8323 1.25594 14.7376 1.76782 14.5482L2.99362 14.0946C8.13659 12.1915 12.1915 8.13659 14.0946 2.99362L14.5482 1.76782Z" fill="white"/>
</svg>
