<svg width="30" height="30" viewBox="0 0 30 30" fill="none" xmlns="http://www.w3.org/2000/svg">
<path d="M25.6146 4.58356C26.0564 4.58356 26.4146 4.94173 26.4146 5.38356L26.4146 13.8193C26.4146 14.532 25.5529 14.889 25.0489 14.385L16.6132 5.94925C16.1092 5.44528 16.4661 4.58356 17.1789 4.58356L25.6146 4.58356Z" fill="white"/>
<path opacity="0.4" d="M11.2567 17.8326C11.6985 17.8326 12.0567 18.1908 12.0567 18.6326L12.0567 27.0683C12.0567 27.7811 11.195 28.138 10.691 27.634L2.25527 19.1983C1.7513 18.6943 2.10823 17.8326 2.82095 17.8326L11.2567 17.8326Z" fill="white"/>
<path opacity="0.4" d="M12.0541 4.58356C12.4959 4.58356 12.8541 4.94173 12.8541 5.38356L12.8541 13.8193C12.8541 14.532 11.9924 14.889 11.4884 14.385L3.05263 5.94925C2.54866 5.44528 2.90559 4.58356 3.61832 4.58356L12.0541 4.58356Z" fill="white"/>
<path opacity="0.4" d="M24.8168 17.5836C25.2586 17.5836 25.6168 17.9417 25.6168 18.3836L25.6168 26.8193C25.6168 27.532 24.7551 27.889 24.2511 27.385L15.8153 18.9492C15.3114 18.4453 15.6683 17.5836 16.381 17.5836L24.8168 17.5836Z" fill="white"/>
</svg>
