<svg width="30" height="30" viewBox="0 0 30 30" fill="none" xmlns="http://www.w3.org/2000/svg">
<path opacity="0.42" d="M0 16C0 8.26801 6.26801 2 14 2C21.732 2 28 8.26801 28 16C28 23.732 21.732 30 14 30H0V16Z" fill="white"/>
<path opacity="0.42" d="M14 8C14 3.58172 17.5817 0 22 0H30V8C30 12.4183 26.4183 16 22 16C17.5817 16 14 12.4183 14 8Z" fill="white"/>
<path fill-rule="evenodd" clip-rule="evenodd" d="M16.4716 2.21753C14.9486 3.67404 14 5.72625 14 8.00002C14 12.4183 17.5817 16 22 16C24.2738 16 26.326 15.0514 27.7825 13.5284C26.7581 7.77754 22.2225 3.24192 16.4716 2.21753Z" fill="white"/>
</svg>
