<svg width="30" height="30" viewBox="0 0 30 30" fill="none" xmlns="http://www.w3.org/2000/svg">
<rect opacity="0.4" x="2" y="29.5" width="12" height="26" rx="3" transform="rotate(-90 2 29.5)" fill="white"/>
<rect opacity="0.4" x="2" y="15.5" width="4" height="26" rx="2" transform="rotate(-90 2 15.5)" fill="white"/>
<path fill-rule="evenodd" clip-rule="evenodd" d="M16.1993 1.1C16.1993 0.768629 15.9307 0.5 15.5993 0.5H14.3993C14.0679 0.5 13.7993 0.76863 13.7993 1.1V2.69994C13.7993 3.03131 13.5307 3.29994 13.1993 3.29994H11.6C11.2686 3.29994 11 3.56857 11 3.89994V5.09994C11 5.43131 11.2686 5.69994 11.6 5.69994H13.1993C13.5307 5.69994 13.7993 5.96857 13.7993 6.29994V7.9C13.7993 8.23137 14.0679 8.5 14.3993 8.5H15.5993C15.9307 8.5 16.1993 8.23137 16.1993 7.9V6.29994C16.1993 5.96857 16.4679 5.69994 16.7993 5.69994H18.4C18.7314 5.69994 19 5.43132 19 5.09994V3.89994C19 3.56857 18.7314 3.29994 18.4 3.29994H16.7993C16.4679 3.29994 16.1993 3.03131 16.1993 2.69994V1.1Z" fill="white"/>
</svg>
