<svg width="30" height="30" viewBox="0 0 30 30" fill="none" xmlns="http://www.w3.org/2000/svg">
<path opacity="0.42" d="M14.5159 0.822666C14.7188 0.274222 14.8203 1.37273e-08 15 0C15.1797 -1.37273e-08 15.2812 0.274222 15.4841 0.822666L15.9701 2.13602C18.0091 7.64635 22.3536 11.9909 27.864 14.0299L29.1773 14.5159C29.7258 14.7188 30 14.8203 30 15C30 15.1797 29.7258 15.2812 29.1773 15.4841L27.864 15.9701C22.3536 18.0091 18.0091 22.3536 15.9701 27.864L15.4841 29.1773C15.2812 29.7258 15.1797 30 15 30C14.8203 30 14.7188 29.7258 14.5159 29.1773L14.0299 27.864C11.9909 22.3536 7.64635 18.0091 2.13603 15.9701L0.822666 15.4841C0.274222 15.2812 1.37273e-08 15.1797 0 15C-1.37273e-08 14.8203 0.274222 14.7188 0.822666 14.5159L2.13602 14.0299C7.64635 11.9909 11.9909 7.64635 14.0299 2.13603L14.5159 0.822666Z" fill="white"/>
<path d="M14.7153 6.66043C14.8347 6.33782 14.8943 6.17651 15 6.17651C15.1057 6.17651 15.1654 6.33782 15.2848 6.66043L15.5707 7.433C16.7701 10.6744 19.3257 13.23 22.5671 14.4294L23.3397 14.7153C23.6623 14.8347 23.8236 14.8943 23.8236 15C23.8236 15.1057 23.6623 15.1654 23.3397 15.2848L22.5671 15.5707C19.3257 16.7701 16.7701 19.3257 15.5707 22.5671L15.2848 23.3397C15.1654 23.6623 15.1057 23.8236 15 23.8236C14.8943 23.8236 14.8347 23.6623 14.7153 23.3397L14.4294 22.5671C13.23 19.3257 10.6744 16.7701 7.433 15.5707L6.66043 15.2848C6.33782 15.1654 6.17651 15.1057 6.17651 15C6.17651 14.8943 6.33782 14.8347 6.66043 14.7153L7.433 14.4294C10.6744 13.23 13.23 10.6744 14.4294 7.433L14.7153 6.66043Z" fill="white"/>
</svg>
