<svg width="30" height="30" viewBox="0 0 30 30" fill="none" xmlns="http://www.w3.org/2000/svg">
<path opacity="0.6" fill-rule="evenodd" clip-rule="evenodd" d="M0.506731 10.8704C0.502256 10.7475 0.5 10.624 0.5 10.5C0.5 4.97715 4.97715 0.5 10.5 0.5C16.0228 0.5 20.5 4.97715 20.5 10.5C20.5 16.0228 16.0228 20.5 10.5 20.5C10.376 20.5 10.2525 20.4977 10.1296 20.4933V20.5H2.9C1.76863 20.5 1.20294 20.5 0.851471 20.1485C0.5 19.7971 0.5 19.2314 0.5 18.1V10.8704H0.506731Z" fill="white"/>
<path fill-rule="evenodd" clip-rule="evenodd" d="M29.4926 18.9074C29.4975 18.7722 29.5 18.6364 29.5 18.5C29.5 12.4249 24.5751 7.5 18.5 7.5C12.4249 7.5 7.5 12.4249 7.5 18.5C7.5 24.5751 12.4249 29.5 18.5 29.5C18.6364 29.5 18.7722 29.4975 18.9074 29.4926V29.5H27.1C28.2314 29.5 28.7971 29.5 29.1485 29.1485C29.5 28.7971 29.5 28.2314 29.5 27.1V18.9074H29.4926Z" fill="white"/>
</svg>
