<svg width="30" height="30" viewBox="0 0 30 30" fill="none" xmlns="http://www.w3.org/2000/svg">
<path d="M11 15L10.1569 15C6.047 15 3.99207 15 3.48067 16.2346C2.96927 17.4693 4.42232 18.9223 7.32842 21.8284L7.32843 21.8284L8.17157 22.6716C11.0777 25.5777 12.5307 27.0307 13.7654 26.5193C15 26.0079 15 23.953 15 19.8431L15 19C15 17.1144 15 16.1716 14.4142 15.5858C13.8284 15 12.8856 15 11 15Z" fill="white"/>
<path d="M11 0.499999L10.1569 0.499999C6.047 0.499999 3.99207 0.499999 3.48067 1.73463C2.96927 2.96926 4.42232 4.42232 7.32843 7.32842L8.17157 8.17157L8.17158 8.17158C11.0777 11.0777 12.5307 12.5307 13.7654 12.0193C15 11.5079 15 9.453 15 5.34314L15 4.5C15 2.61438 15 1.67157 14.4142 1.08579C13.8284 0.499998 12.8856 0.499999 11 0.499999Z" fill="white"/>
<path d="M25.5 15L24.6569 15C20.547 15 18.4921 15 17.9807 16.2346C17.4693 17.4693 18.9223 18.9223 21.8284 21.8284L21.8284 21.8284L22.6716 22.6716C25.5777 25.5777 27.0307 27.0307 28.2654 26.5193C29.5 26.0079 29.5 23.953 29.5 19.8431L29.5 19C29.5 17.1144 29.5 16.1716 28.9142 15.5858C28.3284 15 27.3856 15 25.5 15Z" fill="white"/>
<path opacity="0.4" d="M25.5 0.499999L24.6569 0.499999C20.547 0.499999 18.4921 0.499999 17.9807 1.73463C17.4693 2.96926 18.9223 4.42232 21.8284 7.32842L22.6716 8.17157L22.6716 8.17158C25.5777 11.0777 27.0307 12.5307 28.2654 12.0193C29.5 11.5079 29.5 9.453 29.5 5.34314L29.5 4.5C29.5 2.61438 29.5 1.67157 28.9142 1.08579C28.3284 0.499998 27.3856 0.499999 25.5 0.499999Z" fill="white"/>
</svg>
