<svg width="110" height="40" viewBox="0 0 110 40" fill="none" xmlns="http://www.w3.org/2000/svg">
<g clip-path="url(#clip0_670_15583)">
<path d="M54.1313 16.75C53.8002 14.75 53.2208 12.8333 52.3104 11.0833C51.5654 9.58333 50.655 8.25 49.6617 7C48.5857 5.75 47.3442 4.58333 45.9371 3.58333C44.9439 2.91667 43.9507 2.41667 42.9575 1.83333C42.3781 1.66667 41.8815 1.41667 41.3848 1.25C41.0538 1.08333 40.6399 0.916667 40.2261 0.916667C40.2261 0.916667 40.2261 0.833333 40.1433 0.916667C40.0605 0.916667 39.895 0.833333 39.8122 0.833333C39.8122 0.75 39.7295 0.75 39.6467 0.75H39.5639C39.5639 0.75 39.4812 0.666667 39.4812 0.75H39.3984C39.3984 0.75 39.3156 0.666667 39.2328 0.666667H39.1501C39.1501 0.666667 39.0673 0.583333 38.9845 0.583333C38.9018 0.583333 38.9018 0.583333 38.819 0.583333C38.819 0.583333 38.7362 0.5 38.6535 0.5C38.5707 0.5 38.5707 0.5 38.4879 0.5H38.4052C38.3224 0.5 38.3224 0.5 38.2396 0.5C38.1568 0.416667 38.1568 0.416667 38.0741 0.416667H37.9913C37.9085 0.333333 37.9085 0.333333 37.8258 0.333333C37.743 0.333333 37.743 0.333333 37.6602 0.333333C37.4947 0.25 37.4119 0.25 37.2464 0.25H37.1636C37.1636 0.25 37.0809 0.25 37.0809 0.166667C36.2532 0.0833333 35.5082 0 34.7633 0C34.0184 0 33.3562 0 32.6113 0.0833333C31.7009 0.166667 30.8732 0.333333 30.0455 0.5C28.1418 0.916667 26.4036 1.58333 24.7483 2.58333C24.1689 2.91667 23.5895 3.25 23.0101 3.66667C22.9273 3.66667 22.8446 3.75 22.8446 3.83333C22.7618 3.83333 22.679 3.91667 22.5963 4C21.603 4.75 20.6926 5.58333 19.8649 6.5C18.6234 7.83333 17.6301 9.41667 16.8024 11C16.2231 12.25 15.7264 13.5 15.3954 14.8333C15.0643 16 14.8988 17.25 14.816 18.5C14.7332 19.1667 14.7332 19.9167 14.816 20.5833C14.8988 21.3333 14.8988 22.0833 14.9815 22.8333C15.1471 24.0833 15.3954 25.25 15.8092 26.4167C16.4714 28.4167 17.3818 30.1667 18.6234 31.9167C18.8717 32.3333 19.2027 32.6667 19.5338 33C19.6166 33.1667 19.7821 33.3333 19.8649 33.4167C19.9477 33.5833 20.0304 33.6667 20.1132 33.75C20.1132 33.8333 20.196 33.8333 20.2787 33.9167C20.3615 34 20.4443 34.1667 20.527 34.25C21.0237 34.75 21.5203 35.25 22.0997 35.6667C24.4172 37.5833 27.0658 38.8333 29.9627 39.5833C30.211 39.6667 30.5421 39.75 30.7904 39.75C31.287 39.8333 31.7836 40 32.2802 40C32.4458 40.0833 32.6113 40.0833 32.7769 40.0833C32.7769 40.0833 32.7769 40.0833 32.8596 40.0833C33.3562 40 33.9356 40 34.515 40C35.2599 40 36.0049 40 36.8325 39.8333C37.9913 39.6667 39.1501 39.5 40.3088 39.0833C41.3848 38.75 42.4608 38.3333 43.3713 37.8333C43.7024 37.6667 44.1162 37.4167 44.4473 37.25C46.5165 36.0833 48.2547 34.5833 49.7445 32.75C51.4827 30.6667 52.7242 28.3333 53.4691 25.75C53.883 24.3333 54.1313 22.8333 54.2968 21.4167C54.3796 20.75 54.3796 20 54.2968 19.3333C54.2968 18.5 54.214 17.5833 54.1313 16.75ZM52.3104 21C52.1448 23.6667 51.4827 26.1667 50.2411 28.5C49.579 29.6667 48.8341 30.8333 47.9236 31.8333C46.2682 33.75 44.2818 35.25 41.9642 36.3333C40.4744 37 38.9845 37.5 37.4119 37.75C36.5842 37.9167 35.8393 37.9167 35.0116 38C34.8461 38.0833 34.5978 38.0833 34.4322 38.0833C34.5978 38.0833 34.8461 38.0833 35.0116 38C34.6805 38 34.3495 38 34.0184 38C33.7701 38 33.6046 38 33.3562 38C33.3562 38 33.3562 38 33.2735 38C33.1907 38 33.1079 38 33.1079 38H33.0252H33.1079H33.0252C32.8596 38 32.7769 38 32.6113 38C32.2802 37.9167 32.0319 37.9167 31.7009 37.8333C29.8799 37.5 28.1418 36.9167 26.4864 36.0833C24.9966 35.3333 23.755 34.4167 22.5135 33.3333C22.0997 33 21.8513 32.5833 21.4375 32.25C21.3547 32.0833 21.1892 31.9167 21.0237 31.8333C21.0237 31.8333 21.0237 31.75 20.9409 31.75C20.6098 31.3333 20.3615 31 20.0304 30.5833C18.7061 28.6667 17.7129 26.5833 17.1335 24.25C16.8852 23.3333 16.8024 22.3333 16.7197 21.4167C16.6369 20.75 16.6369 20.0833 16.7197 19.5C16.8024 18.0833 16.968 16.75 17.3818 15.4167C17.9612 13.1667 19.0372 11.1667 20.4443 9.25C21.4375 8 22.5135 6.83333 23.8378 5.83333C23.9206 5.75 24.0033 5.75 24.0033 5.66667C24.4172 5.33333 24.9138 5.08333 25.4104 4.75C27.2313 3.58333 29.2178 2.83333 31.3698 2.41667C32.7769 2.16667 34.1839 2.08333 35.591 2.16667C36.2532 2.16667 36.9153 2.25 37.4947 2.33333V2.25V2.33333C38.1568 2.41667 38.7362 2.58333 39.3984 2.75C39.3984 2.75 39.3984 2.75 39.4812 2.75C40.3088 3 41.1365 3.25 41.9642 3.66667C43.2058 4.25 44.3645 4.91667 45.4405 5.75C46.2682 6.41667 47.0959 7.08333 47.8408 7.91667C48.9168 9.08333 49.7445 10.25 50.4894 11.6667C51.3999 13.3333 51.9793 15.1667 52.3931 17.0833C52.3103 18.25 52.3931 19.5833 52.3104 21Z" fill="white"/>
<path d="M21.7682 36.2502C21.4372 36.0002 21.1061 35.6668 20.775 35.4168C20.6095 35.3335 20.5267 35.0835 20.3612 35.0835C20.1956 35.0835 20.0301 35.2502 19.9473 35.4168C18.9541 36.3335 17.7953 37.0002 16.5538 37.4168C15.064 37.9168 13.4913 38.0835 11.836 38.0002C10.5944 37.9168 9.3529 37.6668 8.19413 37.1668C6.86983 36.6668 5.71106 35.9168 4.63506 34.9168C3.72461 34.0002 2.97968 33.0002 2.48307 31.7502C2.4003 31.5835 2.31753 31.5835 2.15199 31.5835C1.82092 31.5835 1.48984 31.5835 1.15877 31.5835C1.076 31.5835 0.993228 31.5835 0.910459 31.5835C0.662152 31.5835 0.331076 31.5835 0.082769 31.5835C0 31.5835 0 31.6668 0 31.8335C0 31.9168 0 31.9168 0.082769 32.0002C0.331076 32.7502 0.662152 33.5002 1.15877 34.1668C2.23476 35.9168 3.72461 37.2502 5.54552 38.1668C7.69752 39.3335 9.93228 39.8335 12.3326 39.9168C13.4913 39.9168 14.6501 39.8335 15.8089 39.6668C18.1264 39.2502 20.1129 38.1668 21.851 36.5835C21.9338 36.4168 21.9338 36.4168 21.7682 36.2502Z" fill="white"/>
<path d="M1.07554 19.6667C1.73769 19.6667 2.31707 19.6667 2.97923 19.6667C3.22753 19.6667 3.39307 19.5833 3.47584 19.4167C4.05522 18.6667 4.71738 18 5.4623 17.3333C7.28322 15.75 9.35244 15 11.7527 14.8333C12.6632 14.75 13.4909 14.75 14.4013 14.9167C14.4841 14.9167 14.5669 14.9167 14.5669 14.8333C14.7324 14.3333 14.898 13.8333 15.0635 13.25C15.1463 13.0833 15.0635 13.0833 14.898 13C14.6497 13 14.3186 12.9167 14.0703 12.9167C13.077 12.8333 12.1666 12.8333 11.1734 12.9167C10.0146 13.0833 8.93859 13.3333 7.8626 13.75C6.28999 14.4167 4.88291 15.4167 3.80692 16.6667C3.64138 16.9167 3.47584 17.0833 3.3103 17.3333L3.22753 17.4167C3.14477 17.4167 3.14476 17.3333 3.14476 17.25C3.14476 17.0833 3.22753 16.8333 3.22753 16.6667C3.64138 14.75 4.05522 12.75 4.46907 10.8333C4.55184 10.5 4.63461 10.0833 4.71738 9.75C4.71738 9.66667 4.80015 9.66667 4.80015 9.58333C5.21399 7.25 5.79337 4.83333 6.28999 2.41667C6.45552 1.83333 6.37276 1.91667 6.86937 1.91667C11.8355 1.91667 16.8844 1.91667 21.8506 1.91667C22.0989 1.91667 22.2644 1.83333 22.3472 1.66667C22.5955 1.33333 22.9266 1 23.1749 0.583333C23.3404 0.416667 23.4232 0.25 23.5887 0C23.4232 0 23.3404 0 23.1749 0C18.126 0 13.077 0 8.02814 0C6.95214 0 5.95891 0 4.96568 0C4.71738 0 4.71738 0 4.63461 0.333333C4.63461 0.416667 4.63461 0.416667 4.63461 0.5C4.30353 2.16667 3.97246 3.83333 3.64138 5.41667C3.39307 6.75 3.062 8.16667 2.81369 9.5C2.73092 9.91667 2.64815 10.3333 2.56538 10.6667C2.15154 12.5 1.82046 14.4167 1.40662 16.25C1.24108 17.3333 0.992771 18.3333 0.827233 19.4167C0.744464 19.6667 0.744464 19.6667 1.07554 19.6667Z" fill="white"/>
<path d="M108.841 37.5C108.758 37.5 108.758 37.5 108.675 37.5C92.949 37.5 77.2229 37.5 61.414 37.5C61.0002 37.5 61.0829 37.5 61.0829 37.8333C61.0829 38.25 61.0829 38.25 61.4968 38.25C69.3598 38.25 77.2229 38.25 85.0859 38.25C92.8662 38.25 100.647 38.25 108.51 38.25C109.089 38.25 109.089 38.25 109.089 37.6667C109.089 37.5 109.006 37.5 108.841 37.5Z" fill="white"/>
<path d="M75.1539 17.083C75.1539 16.9997 75.1539 16.9163 74.9883 16.9163C74.74 16.9163 74.5745 16.9163 74.3262 16.9163C74.3262 16.9997 74.3262 17.083 74.4089 17.2497C74.9883 19.333 75.5677 21.4997 76.1471 23.583C76.1471 23.7497 76.2299 23.9163 76.2299 23.9997C76.3126 24.083 76.3954 24.1663 76.4782 23.9997C76.4782 23.9163 76.4782 23.9163 76.5609 23.833C77.0575 22.583 77.5542 21.2497 78.0508 19.9997C78.2163 19.4997 78.3818 19.083 78.6302 18.583C78.7129 18.6663 78.7957 18.833 78.7957 18.9163C79.4578 20.583 80.12 22.2497 80.7821 23.833C80.7821 23.9163 80.8649 24.083 80.9477 24.083C81.1132 24.083 81.1132 23.9163 81.1132 23.833C81.6926 21.6663 82.272 19.583 82.8514 17.4163C83.0169 16.833 83.0169 16.9163 82.4375 16.9163C82.1892 16.9163 82.1892 16.9163 82.1064 17.1663C81.6926 18.583 81.3615 19.9997 80.9477 21.4163C80.8649 21.583 80.8649 21.7497 80.7821 21.9163C80.6994 21.833 80.6994 21.7497 80.6166 21.6663C80.12 20.4997 79.6234 19.2497 79.2095 18.083C79.044 17.7497 78.9612 17.4163 78.7957 17.083C78.7957 16.9997 78.7957 16.833 78.6302 16.833C78.5474 16.833 78.5474 16.9997 78.4646 17.083C77.8852 18.583 77.3059 20.083 76.6437 21.583C76.5609 21.6663 76.5609 21.833 76.4782 21.9163C76.3954 21.9163 76.3954 21.833 76.3954 21.833C76.1471 20.833 75.8988 19.833 75.5677 18.9163C75.4022 18.333 75.3194 17.6663 75.1539 17.083Z" fill="white"/>
<path d="M66.7945 21.0833C67.0428 22.9166 68.5326 24.1666 70.5191 24.0833C71.3468 24.0833 72.34 23.5833 73.0022 22.6666C73.6643 21.8333 73.8298 20.8333 73.6643 19.8333C73.416 17.8333 71.5951 16.4999 69.6086 16.8333C68.7809 16.9999 68.036 17.4166 67.4566 18.0833C66.8773 18.9999 66.6289 19.9999 66.7945 21.0833ZM68.036 18.8333C68.9465 17.0833 71.4295 16.9999 72.4228 18.7499C73.0849 19.9166 73.0849 21.0833 72.34 22.2499C71.8434 22.9999 71.0985 23.4166 70.188 23.4166C69.0293 23.4166 68.2016 22.7499 67.7877 21.8333C67.4566 20.7499 67.5394 19.7499 68.036 18.8333Z" fill="white"/>
<path d="M75.3196 29C75.9818 29.8333 76.7267 30.6667 77.3888 31.5C77.9682 32.1667 78.4648 32.8333 79.0442 33.5C79.127 33.5833 79.127 33.6667 79.2925 33.6667C79.4581 33.6667 79.3753 33.5 79.3753 33.4167C79.3753 33.4167 79.3753 33.4167 79.3753 33.3333C79.3753 31.1667 79.3753 29 79.3753 26.8333C79.3753 26.5 79.4581 26.5 79.0442 26.5C78.9614 26.5 78.8787 26.5 78.7959 26.5C78.7131 26.5 78.6304 26.5 78.6304 26.6667C78.6304 26.75 78.6304 26.8333 78.6304 26.9167C78.6304 28.4167 78.6304 29.9167 78.6304 31.4167C78.6304 31.5 78.6304 31.5833 78.6304 31.75C78.5476 31.75 78.4648 31.6667 78.4648 31.5833C77.8854 30.9167 77.3061 30.1667 76.7267 29.5C75.9818 28.5833 75.1541 27.6667 74.4091 26.6667C74.3264 26.5833 74.2436 26.3333 74.0781 26.4167C73.9125 26.5 73.9953 26.6667 73.9953 26.75C73.9953 28.8333 73.9953 30.9167 73.9953 33C73.9953 33.5833 73.9953 33.5833 74.5747 33.5833C74.6575 33.5833 74.7402 33.5 74.7402 33.4167C74.7402 33.3333 74.7402 33.25 74.7402 33.1667C74.7402 31.6667 74.7402 30.0833 74.7402 28.5833C74.7402 28.5 74.7402 28.4167 74.823 28.25C74.9885 28.5833 75.1541 28.8333 75.3196 29Z" fill="white"/>
<path d="M88.9767 33.1664C88.9767 33.6664 88.894 33.6664 89.4734 33.6664C89.8044 33.6664 89.8044 33.6664 89.8044 33.3331C89.8044 33.2498 89.8044 33.2498 89.8044 33.1664C89.8044 31.6664 89.8044 30.1664 89.8044 28.6664C89.8044 28.5831 89.8044 28.4998 89.8872 28.3331C89.97 28.4998 90.1355 28.5831 90.2183 28.7498C90.7977 29.4164 91.377 30.0831 91.8737 30.7498C92.6186 31.6664 93.3635 32.5831 94.1084 33.4998C94.1912 33.5831 94.1912 33.7498 94.3567 33.6664C94.4395 33.5831 94.4395 33.4998 94.4395 33.3331C94.4395 31.2498 94.4395 29.1664 94.4395 27.0831C94.4395 26.4998 94.4395 26.4998 93.8601 26.4998C93.7773 26.4998 93.6946 26.5831 93.6946 26.6664C93.6946 26.7498 93.6946 26.8331 93.6946 26.9164C93.6946 28.4164 93.6946 29.9164 93.6946 31.3331C93.6946 31.4164 93.6946 31.4998 93.6946 31.6664C93.6118 31.6664 93.529 31.5831 93.529 31.4998C92.8669 30.6664 92.2047 29.8331 91.4598 29.0831C90.7977 28.2498 90.1355 27.4164 89.3906 26.6664C89.3078 26.5831 89.225 26.4164 89.1423 26.4998C89.0595 26.5831 89.0595 26.6664 89.0595 26.8331C88.9767 28.9164 88.9767 30.9998 88.9767 33.1664Z" fill="white"/>
<path d="M98.4122 33.5835C98.9088 33.7502 99.3226 33.7502 99.8192 33.6668C100.564 33.5835 101.226 33.4168 101.806 33.0002C101.971 32.9168 101.971 32.8335 101.971 32.6668C101.971 32.2502 101.971 31.9168 101.971 31.5002C101.971 31.1668 101.971 30.7502 101.971 30.4168C101.971 30.0835 101.971 30.0835 101.64 30.0835C101.061 30.0835 100.399 30.0835 99.8192 30.0835C99.2399 30.0835 99.3226 30.0002 99.3226 30.5835C99.3226 30.8335 99.3226 30.8335 99.5709 30.8335C100.068 30.8335 100.481 30.8335 100.978 30.8335C101.226 30.8335 101.226 30.8335 101.226 31.0835C101.226 31.5002 101.226 31.9168 101.226 32.3335C101.226 32.5002 101.144 32.5835 100.978 32.6668C100.647 32.8335 100.233 32.9168 99.8192 33.0002C98.9088 33.0835 98.0811 32.9168 97.4189 32.2502C96.3429 31.2502 96.1774 29.5002 97.0051 28.2502C97.4189 27.5835 98.0811 27.2502 98.826 27.1668C99.6537 27.0835 100.399 27.2502 101.061 27.6668C101.226 27.7502 101.309 27.9168 101.475 27.8335C101.64 27.8335 101.64 27.5835 101.723 27.5002C101.888 27.2502 101.888 27.2502 101.64 27.1668C100.895 26.6668 100.068 26.4168 99.1571 26.5002C98.1639 26.5002 97.3362 26.9168 96.5912 27.5835C95.7636 28.4168 95.4325 29.5002 95.598 30.6668C95.9291 32.0002 96.9223 33.1668 98.4122 33.5835Z" fill="white"/>
<path d="M62.9876 30.833C63.2359 30.833 63.567 30.7497 63.7325 30.9163C63.8981 31.083 64.0636 31.333 64.2292 31.583C64.643 32.2497 65.0569 32.833 65.4707 33.4997C65.5535 33.583 65.5535 33.7497 65.719 33.7497C65.9673 33.7497 66.2156 33.7497 66.6295 33.7497C65.9673 32.7497 65.3052 31.7497 64.5602 30.833C64.7258 30.7497 64.8913 30.6663 64.9741 30.583C66.0501 29.9997 66.3812 28.583 65.719 27.583C65.3879 27.083 64.8085 26.833 64.2292 26.6663C63.8153 26.583 63.3187 26.583 62.9049 26.583C62.5738 26.583 62.2427 26.6663 61.9944 26.6663C61.8289 26.6663 61.7461 26.6663 61.7461 26.9163C61.7461 26.9997 61.7461 27.083 61.7461 27.1663C61.7461 28.6663 61.7461 30.2497 61.7461 31.7497C61.7461 32.333 61.7461 32.9163 61.7461 33.4997C61.7461 33.6663 61.8289 33.7497 61.9116 33.7497C61.9944 33.7497 62.1599 33.7497 62.2427 33.7497C62.491 33.7497 62.491 33.7497 62.491 33.4997C62.491 32.833 62.491 32.083 62.491 31.4163C62.491 30.833 62.491 30.833 62.9876 30.833ZM62.491 29.833C62.491 29.4163 62.491 28.9997 62.491 28.6663C62.491 28.2497 62.491 27.833 62.491 27.4163C62.491 27.2497 62.5738 27.1663 62.6566 27.1663C63.1532 27.1663 63.567 27.083 64.0636 27.1663C65.0569 27.4163 65.4707 28.333 65.0569 29.2497C64.8913 29.583 64.643 29.833 64.2292 29.9163C63.8981 29.9997 63.6498 30.083 63.3187 30.083C63.1532 30.083 62.9049 30.083 62.7393 30.083C62.5738 30.1663 62.491 30.083 62.491 29.833Z" fill="white"/>
<path d="M89.6392 23.9999C90.053 23.9999 89.9703 23.9999 89.9703 23.5832C89.9703 22.8332 89.9703 22.1665 89.9703 21.4165C89.9703 21.1665 89.9703 21.1665 90.2186 21.1665C90.4669 21.1665 90.6324 21.1665 90.8807 21.1665C91.129 21.1665 91.2946 21.2499 91.4601 21.4999C91.9567 22.2499 92.4533 22.9999 92.95 23.7499C93.0327 23.9165 93.1155 23.9165 93.281 23.9165C93.5293 23.9165 93.6949 23.9165 93.9432 23.9165C93.8604 23.7499 93.7776 23.6665 93.6949 23.5832C93.1983 22.8332 92.6189 21.9999 92.1223 21.2499C91.9567 20.9999 91.9567 20.9999 92.205 20.9165C92.2878 20.9165 92.3706 20.8332 92.4533 20.7499C93.6949 20.0832 93.7776 18.2499 92.7844 17.4165C92.4533 17.1665 92.1223 16.9999 91.7912 16.9165C91.0463 16.7499 90.2186 16.8332 89.4737 16.9165C89.3909 16.9165 89.3909 16.9165 89.3081 16.9165C89.2254 16.9165 89.1426 16.9999 89.1426 17.0832C89.1426 17.1665 89.1426 17.2499 89.1426 17.3332C89.1426 19.4165 89.1426 21.4999 89.1426 23.4999C89.2253 23.9999 89.1426 23.9999 89.6392 23.9999ZM89.9703 19.0832C89.9703 18.6665 89.9703 18.3332 89.9703 17.9165C89.9703 17.6665 89.9703 17.6665 90.2186 17.6665C90.6324 17.5832 91.129 17.5832 91.5429 17.6665C92.6189 17.9165 92.95 18.9999 92.5361 19.8332C92.2878 20.2499 91.874 20.4165 91.3773 20.5832C90.9635 20.6665 90.5497 20.6665 90.1358 20.5832C89.9703 20.5832 89.9703 20.4999 89.9703 20.4165C89.9703 19.9165 89.9703 19.4999 89.9703 19.0832Z" fill="white"/>
<path d="M109.999 20.75C109.999 20.4167 109.999 20.0833 109.917 19.75C109.751 19.0833 109.585 18.4167 109.089 17.8333C108.344 16.8333 106.854 16.75 106.026 17.3333C105.364 17.75 104.95 18.3333 104.785 19.0833C104.537 19.9167 104.454 20.8333 104.619 21.6667C104.702 22.3333 104.95 22.9167 105.364 23.5C105.861 24.0833 106.44 24.4167 107.185 24.5C108.178 24.5 108.923 24.0833 109.503 23.1667C109.834 22.4167 109.999 21.5833 109.999 20.75ZM109.254 20.6667C109.254 21.3333 109.172 21.9167 108.923 22.5C108.758 23 108.509 23.4167 108.013 23.6667C107.268 24.0833 106.357 23.8333 105.861 23.1667C105.53 22.75 105.364 22.25 105.281 21.75C105.116 20.8333 105.199 19.9167 105.447 19C105.613 18.6667 105.778 18.3333 106.026 18.0833C106.689 17.4167 107.847 17.5 108.427 18.25C108.841 18.75 109.006 19.3333 109.089 19.9167C109.254 20.1667 109.254 20.4167 109.254 20.6667Z" fill="white"/>
<path d="M83.8452 16.917C83.7625 16.917 83.6797 17.0003 83.6797 17.0837C83.6797 17.167 83.6797 17.2503 83.6797 17.3337C83.6797 18.417 83.6797 19.417 83.6797 20.5003C83.6797 21.5837 83.6797 22.5837 83.6797 23.667C83.6797 24.0837 83.6797 24.0003 84.0108 24.0003C84.0108 24.0003 84.0108 24.0003 84.0935 24.0003C85.1695 24.0003 86.3283 24.0003 87.4043 24.0003C87.8181 24.0003 87.8181 24.0837 87.8181 23.5837C87.8181 23.2503 87.8181 23.2503 87.4871 23.2503C87.4043 23.2503 87.3215 23.2503 87.2387 23.2503C86.4111 23.2503 85.5834 23.2503 84.7557 23.2503C84.5074 23.2503 84.5074 23.2503 84.5074 23.0003C84.5074 22.3337 84.5074 21.667 84.5074 21.0003C84.5074 20.7503 84.5074 20.7503 84.7557 20.7503C85.5006 20.7503 86.2455 20.7503 86.9904 20.7503C87.5698 20.7503 87.4871 20.917 87.4871 20.2503C87.4871 20.0837 87.4043 20.0837 87.3215 20.0837C87.0732 20.0837 86.8249 20.0837 86.5766 20.0837C85.9972 20.0837 85.4178 20.0837 84.7557 20.0837C84.5901 20.0837 84.5074 20.0837 84.5074 19.917C84.5074 19.2503 84.5074 18.5837 84.5074 17.8337C84.5074 17.7503 84.5074 17.667 84.6729 17.667C84.7557 17.667 84.8385 17.667 84.9212 17.667C85.7489 17.667 86.5766 17.667 87.4043 17.667C87.9837 17.667 87.9009 17.7503 87.9009 17.167V17.0837C87.9009 17.0003 87.8181 17.0003 87.8181 17.0003C87.7354 17.0003 87.6526 17.0003 87.5698 17.0003C86.4111 17.0003 85.2523 17.0003 84.0935 17.0003C83.928 16.917 83.928 16.917 83.8452 16.917Z" fill="white"/>
<path d="M82.6869 31.333C83.349 32.083 84.0112 32.7497 84.6733 33.4997C84.7561 33.583 84.7561 33.6663 84.9217 33.6663C85.17 33.6663 85.501 33.6663 85.8321 33.6663C85.7493 33.583 85.7493 33.4997 85.6666 33.4997C84.8389 32.583 83.9284 31.6663 83.1007 30.7497C82.9352 30.583 82.6869 30.333 82.5213 30.1663C82.4386 30.083 82.3558 29.9997 82.5213 29.9163C82.6869 29.7497 82.7697 29.583 82.9352 29.4163C83.6801 28.6663 84.425 27.833 85.17 27.083C85.2527 26.9163 85.4183 26.833 85.5838 26.6663C85.2527 26.6663 85.0872 26.6663 84.8389 26.6663C84.6733 26.6663 84.5906 26.7497 84.5078 26.833C84.1767 27.1663 83.8457 27.4997 83.5146 27.833C83.018 28.4163 82.4386 28.9997 81.942 29.583C81.8592 29.6663 81.7764 29.7497 81.6109 29.833C81.6109 29.4163 81.6109 29.083 81.6109 28.6663C81.6109 28.083 81.6109 27.4997 81.6109 26.833C81.6109 26.6663 81.5281 26.583 81.3626 26.583C81.2798 26.583 81.1143 26.583 81.0315 26.583C80.7832 26.583 80.7832 26.583 80.7832 26.833V26.9163C80.7832 28.9997 80.7832 31.1663 80.7832 33.2497C80.7832 33.333 80.7832 33.333 80.7832 33.4163C80.7832 33.4997 80.866 33.583 80.9487 33.583C81.1143 33.583 81.2798 33.583 81.3626 33.583C81.5281 33.583 81.5281 33.4997 81.5281 33.4163C81.5281 33.333 81.5281 33.2497 81.5281 33.1663C81.5281 32.2497 81.5281 31.333 81.5281 30.4163C81.5281 30.333 81.5281 30.2497 81.6109 30.1663C82.0247 30.583 82.3558 30.9163 82.6869 31.333Z" fill="white"/>
<path d="M70.1051 26.7503C70.0224 26.667 70.0224 26.417 69.8568 26.417C69.6913 26.417 69.6913 26.667 69.6085 26.7503C68.7808 28.667 67.9531 30.5837 67.1255 32.5003C66.9599 32.8337 66.8771 33.0837 66.7116 33.417C66.6288 33.667 66.6288 33.667 66.8772 33.667C66.9599 33.667 67.0427 33.667 67.1255 33.667C67.3738 33.667 67.4565 33.5837 67.5393 33.417C67.7048 32.917 67.9531 32.5003 68.1187 32.0003C68.2015 31.7503 68.2842 31.667 68.6153 31.667C69.3602 31.667 70.1879 31.667 70.9328 31.667C71.4294 31.667 71.4294 31.667 71.595 32.0837C71.7605 32.5003 72.0088 33.0003 72.1744 33.417C72.2571 33.5837 72.3399 33.5837 72.4227 33.5837C72.5882 33.5837 72.8365 33.5837 73.0848 33.5837C72.8365 33.0837 72.671 32.667 72.5054 32.2503C71.7605 30.417 70.9328 28.5837 70.1051 26.7503ZM70.9328 31.0003C70.1879 31.0003 69.5258 31.0003 68.7808 31.0003C68.6153 31.0003 68.5325 31.0003 68.6153 30.8337C68.8636 30.2503 69.1119 29.5837 69.3602 29.0003C69.5258 28.667 69.6085 28.417 69.7741 28.0003C70.0224 28.667 70.2707 29.167 70.519 29.7503C70.6845 30.0837 70.8501 30.417 70.9328 30.8337C71.1811 31.0003 71.0984 31.0003 70.9328 31.0003Z" fill="white"/>
<path d="M62.2419 24.0002C62.4902 24.0002 62.4902 24.0002 62.4902 23.7502C62.4902 23.0835 62.4902 22.5002 62.4902 21.8335C62.4902 21.7502 62.4902 21.6669 62.4902 21.5835C62.573 21.5835 62.573 21.5835 62.6557 21.5835C63.2351 21.6669 63.8973 21.6669 64.4767 21.4169C65.8837 20.9169 66.2976 19.5835 65.9665 18.5002C65.7182 17.6669 65.056 17.2502 64.3111 17.0835C63.5662 16.9169 62.8213 17.0002 62.0764 17.0835C61.9936 17.0835 61.9936 17.0835 61.9108 17.0835C61.8281 17.0835 61.8281 17.1669 61.8281 17.1669C61.8281 17.2502 61.8281 17.3335 61.8281 17.4169C61.8281 19.5002 61.8281 21.5002 61.8281 23.5835C61.7453 24.0835 61.6625 24.0002 62.2419 24.0002ZM62.7385 17.5835C63.1524 17.5002 63.5662 17.5002 64.0628 17.5835C64.6422 17.7502 65.0561 18.0835 65.2216 18.6669C65.4699 19.7502 64.9733 20.5835 63.8145 20.7502C63.4834 20.8335 63.1524 20.7502 62.8213 20.7502C62.6558 20.7502 62.6557 20.6669 62.6557 20.5002C62.6557 20.0002 62.6557 19.5835 62.6557 19.0835C62.6557 18.6669 62.6557 18.2502 62.6557 17.7502C62.4902 17.6669 62.573 17.6669 62.7385 17.5835Z" fill="white"/>
<path d="M103.793 29.75C104.124 30 104.372 30.1667 104.703 30.3334C105.117 30.5 105.448 30.6667 105.779 31C106.193 31.4167 106.193 31.8334 106.028 32.3334C105.862 32.8334 105.448 33.0834 104.952 33.0834C104.455 33.0834 103.958 33 103.545 32.75C103.379 32.6667 103.296 32.5 103.131 32.5834C102.965 32.6667 102.965 32.8334 102.882 33C102.8 33.1667 102.8 33.25 102.965 33.3334C103.627 33.75 104.29 33.9167 105.034 33.8334C106.11 33.75 106.855 33.0834 106.938 31.9167C107.021 31.3334 106.855 30.8334 106.359 30.4167C105.945 30.0834 105.531 29.8334 105.034 29.6667C104.786 29.5834 104.538 29.4167 104.29 29.25C103.958 29 103.793 28.6667 103.876 28.25C103.958 27.8334 104.207 27.5 104.703 27.4167C105.2 27.25 105.614 27.3334 106.11 27.5834C106.276 27.6667 106.359 27.8334 106.524 27.75C106.69 27.6667 106.69 27.5 106.773 27.4167C106.773 27.4167 106.773 27.4167 106.773 27.3334C106.855 27.1667 106.855 27.1667 106.69 27C106.276 26.75 105.779 26.5834 105.448 26.6667C104.538 26.6667 103.958 26.9167 103.462 27.5834C102.965 28 102.965 29.0834 103.793 29.75Z" fill="white"/>
<path d="M99.2405 24.1667C99.6544 24.3333 100.068 24.4167 100.565 24.4167C101.061 24.5 101.475 24.4167 101.972 24.25C102.882 23.9167 103.379 23.1667 103.462 22.0833C103.462 21.3333 103.213 20.75 102.634 20.3333C102.22 20.0833 101.806 19.9167 101.31 19.9167C100.979 19.9167 100.648 19.9167 100.317 19.9167C100.068 19.9167 100.068 19.9167 100.068 19.6667C100.068 19.25 100.068 18.8333 100.068 18.4167C100.068 18.25 100.068 18 100.068 17.8333C100.068 17.6667 100.151 17.5833 100.317 17.5833C100.399 17.5833 100.482 17.5833 100.565 17.5833C101.31 17.5833 102.137 17.5833 102.882 17.5833C103.213 17.5833 103.213 17.5833 103.213 17.25C103.213 17 103.213 17 102.965 17C102.469 17 101.889 17 101.393 17C101.227 17 100.979 17 100.813 17C100.482 17 100.068 17 99.7372 17C99.5716 17 99.4889 17.0833 99.5716 17.25V17.3333C99.5716 18.3333 99.5716 19.3333 99.5716 20.3333C99.5716 20.4167 99.5716 20.4167 99.5716 20.5C99.5716 20.6667 99.6544 20.6667 99.8199 20.6667C99.9855 20.6667 100.068 20.5833 100.234 20.5833C100.813 20.5 101.31 20.5 101.889 20.5833C102.137 20.6667 102.386 20.75 102.551 21C102.965 21.4167 103.048 22 102.882 22.5833C102.717 23.1667 102.386 23.5 101.806 23.6667C101.144 23.8333 100.565 23.75 99.9027 23.5833C99.4889 23.4167 99.4889 23.4167 99.3233 23.8333C98.9922 24.0833 99.075 24.0833 99.2405 24.1667Z" fill="white"/>
<path d="M87.155 33.5837C87.4861 33.5837 87.4861 33.5837 87.4861 33.2503C87.4861 33.167 87.4861 33.167 87.4861 33.0837C87.4861 31.0837 87.4861 29.0003 87.4861 27.0003C87.4861 26.417 87.4861 26.417 86.8239 26.417C86.7412 26.417 86.6584 26.5003 86.6584 26.5837C86.6584 26.667 86.6584 26.7503 86.6584 26.8337C86.6584 27.917 86.6584 28.917 86.6584 30.0003C86.6584 31.0003 86.6584 32.0837 86.6584 33.0837C86.6584 33.667 86.5756 33.5837 87.155 33.5837Z" fill="white"/>
<path d="M70.519 14.083C70.8501 14.083 71.1812 14.083 71.4295 14.083C71.5123 14.083 71.595 13.9997 71.595 13.9163C71.595 13.583 71.595 13.2497 71.595 12.9997C71.595 12.9163 71.5123 12.833 71.4295 12.833C71.0984 12.833 70.7674 12.833 70.519 12.833C70.4363 12.833 70.3535 12.9163 70.3535 12.9997C70.3535 13.1663 70.3535 13.2497 70.3535 13.4163C70.3535 13.583 70.3535 13.7497 70.3535 13.9163C70.4363 13.9997 70.4363 14.083 70.519 14.083Z" fill="white"/>
<path d="M82.1899 12.583C82.521 12.583 82.7693 12.583 83.1003 12.583C83.1831 12.583 83.2659 12.4997 83.2659 12.4163C83.2659 12.2497 83.2659 12.083 83.2659 11.9997C83.2659 11.833 83.3486 11.583 83.2659 11.4163C83.1003 11.2497 82.852 11.4163 82.6865 11.333C82.521 11.333 82.3554 11.333 82.2726 11.333C82.1899 11.333 82.1071 11.333 82.1071 11.4997C82.1071 11.833 82.1071 12.083 82.1071 12.4163C82.0243 12.4997 82.0243 12.583 82.1899 12.583Z" fill="white"/>
<path d="M77.637 12.5834C77.8853 12.5834 78.2164 12.5834 78.4647 12.5834C78.5474 12.5834 78.6302 12.5834 78.6302 12.4168C78.6302 12.0834 78.6302 11.8334 78.6302 11.5001C78.6302 11.4168 78.5474 11.3334 78.4647 11.3334C78.2991 11.3334 78.1336 11.3334 78.0508 11.3334C77.8853 11.3334 77.637 11.2501 77.4714 11.3334C77.3059 11.5001 77.4714 11.7501 77.3887 11.9168C77.3887 12.0834 77.3887 12.2501 77.3887 12.3334C77.4714 12.5001 77.4714 12.5834 77.637 12.5834Z" fill="white"/>
<path d="M75.1538 12.833C74.9883 12.833 74.9883 12.9163 74.9883 12.9997C74.9883 13.333 74.9883 13.583 74.9883 13.9163C74.9883 13.9997 74.9883 14.083 75.1538 14.083C75.4849 14.083 75.816 14.083 76.0643 14.083C76.147 14.083 76.2298 13.9997 76.2298 13.9163C76.2298 13.583 76.2298 13.2497 76.2298 12.9997C76.2298 12.9163 76.147 12.833 76.0643 12.833C75.8987 12.833 75.7332 12.833 75.6504 12.833C75.4849 12.833 75.3194 12.833 75.1538 12.833Z" fill="white"/>
<path d="M62.0769 4.83301C62.2425 4.83301 62.408 4.83301 62.4908 4.83301C62.6563 4.83301 62.9046 4.91634 63.0701 4.83301C63.2357 4.66634 63.0701 4.41634 63.1529 4.24967C63.1529 4.08301 63.1529 3.91634 63.1529 3.74967C63.1529 3.66634 63.0701 3.58301 62.9874 3.58301C62.6563 3.58301 62.408 3.58301 62.0769 3.58301C61.9941 3.58301 61.9114 3.66634 61.9114 3.74967C61.9114 4.08301 61.9114 4.33301 61.9114 4.66634C61.8286 4.83301 61.9114 4.83301 62.0769 4.83301Z" fill="white"/>
<path d="M63.4011 4.66683C63.4011 4.8335 63.4839 4.8335 63.5667 4.8335C63.7322 4.8335 63.8977 4.8335 63.9805 4.8335C64.1461 4.8335 64.3116 4.8335 64.3944 4.8335C64.4771 4.8335 64.5599 4.75016 64.5599 4.66683C64.5599 4.3335 64.5599 4.0835 64.5599 3.75016C64.5599 3.5835 64.4771 3.5835 64.3944 3.5835C64.0633 3.5835 63.815 3.5835 63.4839 3.5835C63.3184 3.5835 63.3184 3.66683 63.3184 3.75016C63.4011 4.0835 63.4011 4.41683 63.4011 4.66683Z" fill="white"/>
<path d="M73.416 13.9165C73.416 13.9998 73.4988 14.0831 73.5816 14.0831C73.9126 14.0831 74.2437 14.0831 74.492 14.0831C74.5748 14.0831 74.6575 13.9998 74.6575 13.9165C74.6575 13.7498 74.6575 13.5831 74.6575 13.4998C74.6575 13.3331 74.6575 13.2498 74.6575 13.0831C74.6575 12.9165 74.5748 12.8331 74.492 12.9165C74.2437 12.9165 73.9126 12.9165 73.6643 12.9165C73.5816 12.9165 73.4988 12.9998 73.4988 13.0831C73.416 13.3331 73.416 13.5831 73.416 13.9165Z" fill="white"/>
<path d="M71.9258 13.4163C71.9258 13.583 71.9258 13.7497 71.9258 13.833C71.9258 13.9997 72.0085 13.9997 72.0913 13.9997C72.4224 13.9997 72.6707 13.9997 73.0018 13.9997C73.1673 13.9997 73.1673 13.9163 73.1673 13.833C73.1673 13.583 73.1673 13.2497 73.1673 12.9997C73.1673 12.833 73.0846 12.833 73.0018 12.833C72.7535 12.833 72.4224 12.833 72.1741 12.833C72.0085 12.833 71.9258 12.833 71.9258 13.083C71.9258 13.1663 71.9258 13.333 71.9258 13.4163Z" fill="white"/>
<path d="M78.4647 12.833C78.2164 12.833 77.8853 12.833 77.637 12.833C77.4714 12.833 77.3887 12.9163 77.3887 13.083C77.3887 13.2497 77.3887 13.333 77.3887 13.4997C77.3887 13.6663 77.3887 13.833 77.3887 13.9163C77.3887 14.083 77.4714 14.083 77.5542 14.083C77.8025 14.083 78.1336 14.083 78.3819 14.083C78.5474 14.083 78.5474 13.9997 78.5474 13.9163C78.5474 13.6663 78.5474 13.333 78.5474 13.083C78.713 12.9163 78.6302 12.833 78.4647 12.833Z" fill="white"/>
<path d="M63.0697 9.91667C63.0697 9.75 62.9869 9.75 62.9041 9.75C62.573 9.75 62.3247 9.75 61.9937 9.75C61.9109 9.75 61.8281 9.75 61.8281 9.91667C61.8281 10.25 61.8281 10.5 61.8281 10.8333C61.8281 11 61.9109 11 61.9937 11C62.1592 11 62.242 11 62.4075 11C62.573 11 62.6558 11 62.8214 11C62.9869 11 63.0697 11 62.9869 10.8333C63.0697 10.5 63.0697 10.25 63.0697 9.91667Z" fill="white"/>
<path d="M77.5554 6.41699C77.8865 6.41699 78.2176 6.41699 78.5487 6.41699C78.6314 6.41699 78.7142 6.33366 78.7142 6.25033C78.7142 5.91699 78.7142 5.58366 78.7142 5.33366C78.7142 5.25033 78.6314 5.16699 78.5487 5.16699C78.3831 5.16699 78.2176 5.16699 78.1348 5.16699C77.9693 5.16699 77.8037 5.16699 77.6382 5.16699C77.5554 5.16699 77.4727 5.16699 77.4727 5.33366C77.4727 5.66699 77.4727 6.00033 77.4727 6.25033C77.4727 6.33366 77.4727 6.41699 77.5554 6.41699Z" fill="white"/>
<path d="M77.4714 7.75033C77.4714 7.83366 77.5542 7.91699 77.637 7.91699C77.8025 7.91699 77.9681 7.91699 78.0508 7.91699C78.2164 7.91699 78.3819 7.91699 78.5474 7.91699C78.6302 7.91699 78.713 7.83366 78.713 7.75033C78.713 7.41699 78.713 7.08366 78.713 6.83366C78.713 6.75033 78.6302 6.66699 78.5474 6.66699C78.2164 6.66699 77.8853 6.66699 77.5542 6.66699C77.4714 6.66699 77.3887 6.75033 77.3887 6.83366C77.4714 7.16699 77.4714 7.50033 77.4714 7.75033Z" fill="white"/>
<path d="M61.8281 9.25033C61.8281 9.33366 61.9109 9.41699 61.9937 9.41699C62.3247 9.41699 62.573 9.41699 62.9041 9.41699C62.9869 9.41699 63.0697 9.41699 63.0697 9.25033C63.0697 8.91699 63.0697 8.66699 63.0697 8.33366C63.0697 8.25033 62.9869 8.16699 62.9041 8.16699C62.7386 8.16699 62.573 8.16699 62.4903 8.16699C62.3247 8.16699 62.1592 8.16699 62.0764 8.16699C61.9109 8.16699 61.9109 8.16699 61.9109 8.33366C61.8281 8.66699 61.8281 9.00033 61.8281 9.25033Z" fill="white"/>
<path d="M70.6018 4.83366C70.7674 4.83366 70.8501 4.83366 71.0157 4.83366C71.1812 4.83366 71.3467 4.83366 71.4295 4.83366C71.595 4.83366 71.595 4.75033 71.595 4.66699C71.595 4.41699 71.595 4.08366 71.595 3.83366C71.595 3.66699 71.5123 3.66699 71.4295 3.66699C71.0984 3.66699 70.8501 3.66699 70.519 3.66699C70.3535 3.66699 70.3535 3.75033 70.3535 3.83366C70.3535 4.08366 70.3535 4.41699 70.3535 4.66699C70.4363 4.83366 70.4363 4.83366 70.6018 4.83366Z" fill="white"/>
<path d="M77.6382 4.83366C77.8865 4.83366 78.2176 4.83366 78.4659 4.83366C78.6314 4.83366 78.6314 4.75033 78.6314 4.66699C78.6314 4.41699 78.6314 4.08366 78.6314 3.83366C78.6314 3.66699 78.5487 3.66699 78.4659 3.66699C78.3004 3.66699 78.2176 3.66699 78.052 3.66699C77.8865 3.66699 77.721 3.66699 77.6382 3.66699C77.4727 3.66699 77.4727 3.75033 77.4727 3.83366C77.4727 4.08366 77.4727 4.41699 77.4727 4.66699C77.4727 4.83366 77.4727 4.83366 77.6382 4.83366Z" fill="white"/>
<path d="M61.8281 6.16634C61.8281 6.33301 61.9109 6.33301 62.0764 6.33301C62.3247 6.33301 62.6558 6.33301 62.9041 6.33301C62.9869 6.33301 63.0697 6.33301 63.0697 6.16634C63.0697 5.83301 63.0697 5.58301 63.0697 5.24967C63.0697 5.08301 62.9869 5.08301 62.9041 5.08301C62.7386 5.08301 62.6558 5.08301 62.4903 5.08301C62.3247 5.08301 62.1592 5.08301 62.0764 5.08301C61.9109 5.08301 61.9109 5.16634 61.9109 5.24967C61.8281 5.66634 61.8281 5.91634 61.8281 6.16634Z" fill="white"/>
<path d="M74.9883 6.16634C74.9883 6.33301 75.0711 6.33301 75.1538 6.33301C75.4849 6.33301 75.7332 6.33301 76.0643 6.33301C76.147 6.33301 76.2298 6.33301 76.2298 6.16634C76.2298 5.83301 76.2298 5.58301 76.2298 5.24967C76.2298 5.16634 76.147 5.08301 76.0643 5.08301C75.8987 5.08301 75.816 5.08301 75.6504 5.08301C75.4849 5.08301 75.3194 5.08301 75.2366 5.08301C75.0711 5.08301 75.071 5.16634 75.071 5.24967C74.9883 5.66634 74.9883 5.91634 74.9883 6.16634Z" fill="white"/>
<path d="M62.9053 6.66699C62.7398 6.66699 62.5743 6.66699 62.4915 6.66699C62.326 6.66699 62.1604 6.66699 62.0776 6.66699C61.9949 6.66699 61.9121 6.66699 61.9121 6.83366C61.9121 7.16699 61.9121 7.41699 61.9121 7.75033C61.9121 7.83366 61.9949 7.91699 62.0776 7.91699C62.4087 7.91699 62.657 7.91699 62.9881 7.91699C63.0709 7.91699 63.1536 7.83366 63.1536 7.75033C63.1536 7.41699 63.1536 7.16699 63.1536 6.83366C63.0709 6.75033 63.0709 6.66699 62.9053 6.66699Z" fill="white"/>
<path d="M61.9937 12.833C61.9109 12.833 61.8281 12.9163 61.8281 12.9997C61.8281 13.333 61.8281 13.583 61.8281 13.9163C61.8281 13.9997 61.9109 14.083 61.9937 14.083C62.1592 14.083 62.3247 14.083 62.4075 14.083C62.573 14.083 62.7386 14.083 62.9041 14.083C62.9869 14.083 63.0697 13.9997 63.0697 13.9163C63.0697 13.583 63.0697 13.333 63.0697 12.9997C63.0697 12.9163 63.0697 12.833 62.9041 12.833C62.6558 12.833 62.3247 12.833 61.9937 12.833Z" fill="white"/>
<path d="M76.231 11.4997C76.231 11.333 76.1483 11.333 76.0655 11.333C75.8172 11.333 75.4861 11.333 75.2378 11.333C75.0723 11.333 75.0723 11.4163 75.0723 11.4997C75.0723 11.7497 75.0723 12.083 75.0723 12.333C75.0723 12.4997 75.155 12.4997 75.2378 12.4997C75.4033 12.4997 75.4861 12.4997 75.6516 12.4997C75.8172 12.4997 75.9 12.4997 76.0655 12.4997C76.231 12.4997 76.231 12.4997 76.231 12.333C76.231 11.9997 76.231 11.7497 76.231 11.4997Z" fill="white"/>
<path d="M63.0697 11.4167C63.0697 11.3333 62.9869 11.25 62.9041 11.25C62.573 11.25 62.3247 11.25 61.9937 11.25C61.9109 11.25 61.8281 11.3333 61.8281 11.4167C61.8281 11.75 61.8281 12 61.8281 12.3333C61.8281 12.4167 61.9109 12.5 61.9937 12.5C62.1592 12.5 62.3247 12.5 62.4075 12.5C62.573 12.5 62.7386 12.5 62.8214 12.5C62.9869 12.5 62.9869 12.4167 62.9869 12.3333C63.0697 12 63.0697 11.75 63.0697 11.4167Z" fill="white"/>
<path d="M65.1394 4.83301C65.4705 4.83301 65.7188 4.83301 66.0499 4.83301C66.1326 4.83301 66.2154 4.74967 66.2154 4.66634C66.2154 4.33301 66.2154 4.08301 66.2154 3.74967C66.2154 3.66634 66.1326 3.58301 66.0499 3.58301C65.7188 3.58301 65.4705 3.58301 65.1394 3.58301C65.0566 3.58301 64.9739 3.66634 64.9739 3.74967C64.9739 3.91634 64.9739 4.08301 64.9739 4.16634C64.9739 4.33301 64.9739 4.49967 64.9739 4.58301C64.8911 4.83301 64.9739 4.83301 65.1394 4.83301Z" fill="white"/>
<path d="M77.4723 10.9167C77.6379 11.0833 77.8862 10.9167 78.0517 11C78.2172 11 78.3828 11 78.5483 11C78.6311 11 78.7139 10.9167 78.7139 10.8333C78.7139 10.5 78.7139 10.25 78.7139 9.91667C78.7139 9.83333 78.6311 9.75 78.5483 9.75C78.2172 9.75 77.8862 9.75 77.6379 9.75C77.5551 9.75 77.4723 9.83333 77.4723 9.91667C77.4723 10.0833 77.4723 10.25 77.4723 10.3333C77.4723 10.5833 77.3896 10.8333 77.4723 10.9167Z" fill="white"/>
<path d="M66.4629 4.66634C66.4629 4.74967 66.5457 4.83301 66.6284 4.83301C66.9595 4.83301 67.2078 4.83301 67.5389 4.83301C67.6217 4.83301 67.7044 4.74967 67.7044 4.66634C67.7044 4.49967 67.7044 4.41634 67.7044 4.24967C67.7044 4.08301 67.7044 3.91634 67.7044 3.83301C67.7044 3.66634 67.6217 3.58301 67.4561 3.58301C67.2078 3.58301 66.8767 3.58301 66.6284 3.58301C66.5457 3.58301 66.4629 3.58301 66.4629 3.74967C66.4629 4.08301 66.4629 4.41634 66.4629 4.66634Z" fill="white"/>
<path d="M77.6382 9.41667C77.8037 9.41667 77.8865 9.41667 78.052 9.41667C78.2176 9.41667 78.3831 9.41667 78.5487 9.41667C78.6314 9.41667 78.7142 9.33333 78.7142 9.25C78.7142 9 78.7142 8.66667 78.7142 8.41667C78.7142 8.25 78.6314 8.25 78.5487 8.25C78.2176 8.25 77.9693 8.25 77.6382 8.25C77.4727 8.25 77.4727 8.33333 77.4727 8.41667C77.4727 8.66667 77.4727 9 77.4727 9.25C77.4727 9.41667 77.4727 9.41667 77.6382 9.41667Z" fill="white"/>
<path d="M72.0913 4.83338C72.4224 4.83338 72.6707 4.83338 73.0018 4.83338C73.1673 4.83338 73.1673 4.75005 73.1673 4.66671C73.1673 4.50005 73.1673 4.33338 73.1673 4.16671C73.1673 3.58338 73.2501 3.66671 72.6707 3.66671C72.5879 3.66671 72.5879 3.66671 72.5052 3.66671C72.3396 3.66671 72.1741 3.66671 72.0913 3.66671C72.0085 3.66671 71.9258 3.75005 71.9258 3.83338C71.9258 4.16671 71.9258 4.41671 71.9258 4.75005C71.9258 4.83338 72.0085 4.83338 72.0913 4.83338Z" fill="white"/>
<path d="M73.6651 4.83301C73.8306 4.83301 73.9961 4.83301 74.0789 4.83301C74.7411 4.83301 74.6583 4.91634 74.6583 4.24967C74.6583 4.08301 74.7411 3.83301 74.5755 3.66634C74.41 3.49967 74.1617 3.66634 73.9961 3.58301C73.8306 3.58301 73.6651 3.58301 73.4995 3.58301C73.4168 3.58301 73.334 3.66634 73.334 3.74967C73.334 3.99967 73.334 4.33301 73.334 4.58301C73.4168 4.83301 73.4995 4.83301 73.6651 4.83301Z" fill="white"/>
<path d="M83.5137 13.4163C83.5137 13.583 83.5137 13.7497 83.5137 13.9163C83.5137 13.9997 83.5964 14.083 83.6792 14.083C84.0103 14.083 84.2586 14.083 84.5897 14.083C84.6724 14.083 84.7552 13.9997 84.7552 13.9163C84.7552 13.583 84.7552 13.333 84.7552 12.9997C84.7552 12.833 84.6724 12.833 84.5897 12.833C84.3414 12.833 84.0103 12.833 83.762 12.833C83.5964 12.833 83.5964 12.9163 83.5964 12.9997C83.5137 13.1663 83.5137 13.333 83.5137 13.4163Z" fill="white"/>
<path d="M78.9609 4.66634C78.9609 4.74967 79.0437 4.83301 79.1265 4.83301C79.4575 4.83301 79.7059 4.83301 80.0369 4.83301C80.1197 4.83301 80.2025 4.74967 80.2025 4.66634C80.2025 4.33301 80.2025 4.08301 80.2025 3.74967C80.2025 3.66634 80.1197 3.58301 80.0369 3.58301C79.8714 3.58301 79.7886 3.58301 79.6231 3.58301C79.4575 3.58301 79.3748 3.58301 79.2092 3.58301C79.1265 3.58301 79.0437 3.58301 79.0437 3.74967C78.9609 4.08301 78.9609 4.41634 78.9609 4.66634Z" fill="white"/>
<path d="M76.0643 9.75C75.7332 9.75 75.4849 9.75 75.1538 9.75C74.9883 9.75 74.9883 9.83333 74.9883 9.91667C74.9883 10.1667 74.9883 10.5 74.9883 10.75C74.9883 10.8333 75.0711 10.9167 75.1538 10.9167C75.3194 10.9167 75.4021 10.9167 75.5677 10.9167C75.7332 10.9167 75.8987 10.9167 75.9815 10.9167C76.147 10.9167 76.147 10.8333 76.147 10.75C76.147 10.5 76.147 10.1667 76.147 9.91667C76.2298 9.83333 76.147 9.75 76.0643 9.75Z" fill="white"/>
<path d="M82.189 4.83366C82.5201 4.83366 82.7684 4.83366 83.0994 4.83366C83.1822 4.83366 83.265 4.75033 83.265 4.66699C83.265 4.50033 83.265 4.41699 83.265 4.25033C83.265 4.08366 83.265 3.91699 83.265 3.83366C83.265 3.75033 83.265 3.66699 83.0994 3.66699C82.7684 3.66699 82.5201 3.66699 82.189 3.66699C82.1062 3.66699 82.0234 3.75033 82.0234 3.83366C82.0234 4.16699 82.0234 4.41699 82.0234 4.75033C82.0234 4.83366 82.0234 4.83366 82.189 4.83366Z" fill="white"/>
<path d="M76.0643 8.25C75.7332 8.25 75.4849 8.25 75.1538 8.25C75.0711 8.25 74.9883 8.33333 74.9883 8.41667C74.9883 8.75 74.9883 9 74.9883 9.33333C74.9883 9.41667 75.0711 9.5 75.1538 9.5C75.4849 9.5 75.7332 9.5 76.0643 9.5C76.147 9.5 76.2298 9.41667 76.2298 9.33333C76.2298 9.16667 76.2298 9 76.2298 8.91667C76.2298 8.75 76.2298 8.66667 76.2298 8.5C76.2298 8.33333 76.147 8.25 76.0643 8.25Z" fill="white"/>
<path d="M69.1116 6.41699C69.2771 6.41699 69.3599 6.41699 69.5254 6.41699C69.691 6.41699 69.8565 6.41699 69.9393 6.41699C70.1048 6.41699 70.1048 6.33366 70.1048 6.25033C70.1048 5.91699 70.1048 5.66699 70.1048 5.33366C70.1048 5.25033 70.022 5.16699 69.9393 5.16699C69.6082 5.16699 69.3599 5.16699 69.0288 5.16699C68.9461 5.16699 68.8633 5.25033 68.8633 5.33366C68.8633 5.66699 68.8633 5.91699 68.8633 6.25033C68.8633 6.33366 68.9461 6.41699 69.1116 6.41699Z" fill="white"/>
<path d="M83.5137 6.25033C83.5137 6.33366 83.5964 6.41699 83.6792 6.41699C84.0103 6.41699 84.2586 6.41699 84.5897 6.41699C84.7552 6.41699 84.7552 6.33366 84.7552 6.25033C84.7552 6.08366 84.7552 6.00033 84.7552 5.83366C84.7552 5.66699 84.7552 5.50033 84.7552 5.33366C84.7552 5.25033 84.6724 5.16699 84.5897 5.16699C84.2586 5.16699 84.0103 5.16699 83.6792 5.16699C83.5964 5.16699 83.5137 5.25033 83.5137 5.33366C83.5137 5.66699 83.5137 5.91699 83.5137 6.25033Z" fill="white"/>
<path d="M69.9393 7.91699C70.022 7.91699 70.1048 7.91699 70.1048 7.75033C70.1048 7.41699 70.1048 7.16699 70.1048 6.83366C70.1048 6.75033 70.022 6.66699 69.9393 6.66699C69.6082 6.66699 69.3599 6.66699 69.0288 6.66699C68.9461 6.66699 68.8633 6.66699 68.8633 6.83366C68.8633 7.16699 68.8633 7.41699 68.8633 7.75033C68.8633 7.83366 68.9461 7.91699 69.0288 7.91699C69.1944 7.91699 69.3599 7.91699 69.4427 7.91699C69.6082 7.91699 69.7737 7.91699 69.9393 7.91699Z" fill="white"/>
<path d="M82.1897 9.4165C82.3553 9.4165 82.438 9.4165 82.6036 9.4165C82.7691 9.4165 82.9346 9.4165 83.0174 9.4165C83.1002 9.4165 83.1829 9.33317 83.1829 9.24984C83.1829 8.9165 83.1829 8.6665 83.1829 8.33317C83.1829 8.24984 83.1829 8.1665 83.0174 8.1665C82.6863 8.1665 82.438 8.1665 82.1069 8.1665C81.9414 8.1665 81.9414 8.24984 81.9414 8.33317C81.9414 8.58317 81.9414 8.9165 81.9414 9.1665C82.0242 9.4165 82.1069 9.4165 82.1897 9.4165Z" fill="white"/>
<path d="M83.6792 7.91667C84.0103 7.91667 84.2586 7.91667 84.5897 7.91667C84.7552 7.91667 84.7552 7.83333 84.7552 7.75C84.7552 7.58333 84.7552 7.5 84.7552 7.33333C84.7552 7.16667 84.7552 7 84.7552 6.91667C84.7552 6.83333 84.6724 6.75 84.5897 6.75C84.2586 6.75 84.0103 6.75 83.6792 6.75C83.5964 6.75 83.5137 6.83333 83.5137 6.91667C83.5137 7.25 83.5137 7.5 83.5137 7.83333C83.5137 7.91667 83.5964 7.91667 83.6792 7.91667Z" fill="white"/>
<path d="M68.8637 8.75016C68.8637 8.91683 68.8637 9.0835 68.8637 9.25016C68.8637 9.41683 68.9465 9.41683 69.0293 9.41683C69.2776 9.41683 69.6087 9.41683 69.857 9.41683C70.0225 9.41683 70.0225 9.3335 70.0225 9.25016C70.0225 9.0835 70.0225 9.00016 70.0225 8.8335C70.0225 8.66683 70.1053 8.41683 70.0225 8.25016C69.857 8.0835 69.6087 8.16683 69.4431 8.16683C69.2776 8.16683 69.0293 8.0835 68.8637 8.25016C68.781 8.41683 68.9465 8.66683 68.8637 8.75016Z" fill="white"/>
<path d="M64.4764 8.25C64.1453 8.25 63.897 8.25 63.5659 8.25C63.4832 8.25 63.4004 8.25 63.4004 8.41667C63.4004 8.75 63.4004 9 63.4004 9.33333C63.4004 9.41667 63.4832 9.5 63.5659 9.5C63.897 9.5 64.1453 9.5 64.4764 9.5C64.6419 9.5 64.6419 9.41667 64.6419 9.33333C64.6419 9.16667 64.6419 9.08333 64.6419 8.91667C64.6419 8.75 64.6419 8.66667 64.6419 8.5C64.6419 8.33333 64.5592 8.25 64.4764 8.25Z" fill="white"/>
<path d="M67.043 14C67.2086 14 67.2913 14 67.4569 14C67.6224 14 67.6224 14 67.6224 13.8333C67.6224 13.5 67.6224 13.25 67.6224 12.9167C67.6224 12.8333 67.5396 12.75 67.4569 12.75C67.1258 12.75 66.8775 12.75 66.5464 12.75C66.4636 12.75 66.3809 12.75 66.3809 12.9167C66.3809 13.25 66.3809 13.5 66.3809 13.8333C66.3809 13.9167 66.4636 14 66.5464 14C66.7119 14 66.8775 14 67.043 14Z" fill="white"/>
<path d="M65.1389 14C65.3045 14 65.3872 14 65.5528 14C65.7183 14 65.8839 14 65.9666 14C66.0494 14 66.1322 13.9167 66.1322 13.8333C66.1322 13.5 66.1322 13.25 66.1322 12.9167C66.1322 12.8333 66.0494 12.75 65.9666 12.75C65.6355 12.75 65.3872 12.75 65.0562 12.75C64.8906 12.75 64.8906 12.8333 64.8906 12.9167C64.8906 13.1667 64.8906 13.5 64.8906 13.75C64.8906 14 64.9734 14 65.1389 14Z" fill="white"/>
<path d="M64.4764 12.833C64.1453 12.833 63.897 12.833 63.5659 12.833C63.4832 12.833 63.4004 12.9163 63.4004 12.9997C63.4004 13.1663 63.4004 13.2497 63.4004 13.4163C63.4004 13.583 63.4004 13.7497 63.4004 13.833C63.4004 13.9163 63.4004 13.9997 63.5659 13.9997C63.897 13.9997 64.1453 13.9997 64.4764 13.9997C64.5592 13.9997 64.6419 13.9163 64.6419 13.833C64.6419 13.4997 64.6419 13.2497 64.6419 12.9163C64.6419 12.9163 64.5592 12.833 64.4764 12.833Z" fill="white"/>
<path d="M69.0288 11C69.3599 11 69.6082 11 69.9393 11C70.022 11 70.1048 10.9167 70.1048 10.8333C70.1048 10.5 70.1048 10.25 70.1048 9.91667C70.1048 9.83333 70.1048 9.75 69.9393 9.75C69.6082 9.75 69.3599 9.75 69.0288 9.75C68.9461 9.75 68.8633 9.83333 68.8633 9.91667C68.8633 10.0833 68.8633 10.25 68.8633 10.3333C68.8633 10.5 68.8633 10.5833 68.8633 10.75C68.8633 10.9167 68.9461 11 69.0288 11Z" fill="white"/>
<path d="M65.9666 9.41699C66.0494 9.41699 66.1322 9.41699 66.1322 9.25033C66.1322 8.91699 66.1322 8.66699 66.1322 8.33366C66.1322 8.25033 66.0494 8.16699 65.9666 8.16699C65.6355 8.16699 65.3872 8.16699 65.0562 8.16699C64.9734 8.16699 64.8906 8.16699 64.8906 8.33366C64.8906 8.66699 64.8906 8.91699 64.8906 9.25033C64.8906 9.33366 64.9734 9.41699 65.0562 9.41699C65.2217 9.41699 65.3872 9.41699 65.47 9.41699C65.6355 9.41699 65.8011 9.41699 65.9666 9.41699Z" fill="white"/>
<path d="M66.6284 9.41667C66.9595 9.41667 67.2078 9.41667 67.5389 9.41667C67.6217 9.41667 67.7044 9.33333 67.7044 9.25C67.7044 9.08333 67.7044 8.91667 67.7044 8.83333C67.7044 8.66667 67.7044 8.58333 67.7044 8.41667C67.7044 8.33333 67.7044 8.25 67.5389 8.25C67.2078 8.25 66.9595 8.25 66.6284 8.25C66.5457 8.25 66.4629 8.25 66.4629 8.41667C66.4629 8.75 66.4629 9 66.4629 9.33333C66.4629 9.41667 66.5457 9.41667 66.6284 9.41667Z" fill="white"/>
<path d="M69.0292 12.4997C69.3602 12.4997 69.6085 12.4997 69.9396 12.4997C70.1052 12.4997 70.1051 12.4163 70.1051 12.333C70.1051 12.1663 70.1051 12.083 70.1051 11.9163C70.1051 11.7497 70.1051 11.6663 70.1051 11.4997C70.1051 11.333 70.0224 11.333 69.9396 11.333C69.6913 11.333 69.3602 11.333 69.1119 11.333C69.0292 11.333 68.9464 11.333 68.9464 11.4997C68.9464 11.833 68.9464 12.083 68.9464 12.4163C68.8636 12.4163 68.9464 12.4997 69.0292 12.4997Z" fill="white"/>
<path d="M80.6179 9.41699C80.949 9.41699 81.2801 9.41699 81.5284 9.41699C81.6112 9.41699 81.6939 9.33366 81.6939 9.25033C81.6939 8.91699 81.6939 8.66699 81.6939 8.33366C81.6939 8.16699 81.6112 8.16699 81.5284 8.16699C81.3628 8.16699 81.2801 8.16699 81.1145 8.16699C80.949 8.16699 80.7835 8.16699 80.7007 8.16699C80.6179 8.16699 80.5352 8.16699 80.5352 8.33366C80.5352 8.66699 80.5352 9.00033 80.5352 9.25033C80.5352 9.41699 80.5352 9.41699 80.6179 9.41699Z" fill="white"/>
<path d="M79.9542 8.25C79.7059 8.25 79.3748 8.25 79.1265 8.25C78.9609 8.25 78.9609 8.33333 78.9609 8.41667C78.9609 8.75 78.9609 9 78.9609 9.33333C78.9609 9.41667 79.0437 9.5 79.1265 9.5C79.4575 9.5 79.7059 9.5 80.0369 9.5C80.1197 9.5 80.2025 9.41667 80.2025 9.33333C80.2025 9.16667 80.2025 9 80.2025 8.91667C80.2025 8.75 80.2025 8.66667 80.2025 8.5C80.2025 8.25 80.1197 8.25 79.9542 8.25Z" fill="white"/>
<path d="M80.5348 4.25025C80.5348 4.41692 80.5348 4.58359 80.5348 4.75025C80.5348 4.83359 80.6176 4.91692 80.7004 4.91692C80.8659 4.91692 81.0314 4.91692 81.1142 4.91692C81.7764 4.91692 81.6936 5.00025 81.6936 4.33359C81.6936 4.16692 81.7764 3.91692 81.6108 3.75025C81.4453 3.58359 81.197 3.66692 81.0314 3.66692C80.8659 3.66692 80.6176 3.58359 80.5348 3.66692C80.4521 3.83359 80.5348 4.08359 80.5348 4.25025Z" fill="white"/>
<path d="M80.7007 11C80.8662 11 80.949 11 81.1145 11C81.2801 11 81.3628 11 81.5284 11C81.6939 11 81.6939 10.9167 81.6939 10.8333C81.6939 10.5833 81.6939 10.25 81.6939 10C81.6939 9.83333 81.6112 9.75 81.5284 9.75C81.2801 9.75 80.949 9.75 80.7007 9.75C80.6179 9.75 80.5352 9.83333 80.5352 9.91667C80.5352 10.25 80.5352 10.5 80.5352 10.8333C80.5352 10.9167 80.5352 11 80.7007 11Z" fill="white"/>
<path d="M74.4913 8.25C74.243 8.25 73.9119 8.25 73.6636 8.25C73.5808 8.25 73.498 8.33333 73.498 8.41667C73.498 8.75 73.498 9 73.498 9.33333C73.498 9.41667 73.498 9.5 73.6636 9.5C73.9119 9.5 74.243 9.5 74.4913 9.5C74.6568 9.5 74.6568 9.41667 74.6568 9.33333C74.6568 9.16667 74.6568 9.08333 74.6568 8.91667C74.6568 8.75 74.6568 8.66667 74.6568 8.5C74.6568 8.25 74.574 8.25 74.4913 8.25Z" fill="white"/>
<path d="M72.0913 9.41699C72.4224 9.41699 72.6707 9.41699 73.0018 9.41699C73.0846 9.41699 73.1673 9.33366 73.1673 9.25033C73.1673 8.91699 73.1673 8.58366 73.1673 8.33366C73.1673 8.25033 73.0846 8.16699 73.0018 8.16699C72.6707 8.16699 72.4224 8.16699 72.0913 8.16699C72.0085 8.16699 71.9258 8.25033 71.9258 8.33366C71.9258 8.50033 71.9258 8.66699 71.9258 8.75033C71.9258 8.91699 71.9258 9.08366 71.9258 9.16699C71.9258 9.41699 72.0085 9.41699 72.0913 9.41699Z" fill="white"/>
<path d="M25.0797 21.083C24.4176 19.333 23.4244 17.833 22.1001 16.4997C21.1896 15.6663 20.1964 14.9163 19.1204 14.333C18.8721 14.2497 18.7065 14.083 18.4582 14.083C18.3755 14.1663 18.3755 14.2497 18.3755 14.2497C18.2099 14.7497 18.0444 15.2497 17.9616 15.7497C17.8788 15.9997 17.8788 15.9997 18.1271 16.1663C18.9548 16.6663 19.7825 17.1663 20.4447 17.833C21.6034 18.9163 22.4311 20.1663 23.0105 21.6663C23.4244 22.7497 23.7554 23.9163 23.8382 25.1663C23.921 25.833 23.921 26.4163 23.8382 27.083C23.7554 27.833 23.6727 28.4997 23.5071 29.2497C23.2588 30.2497 23.0105 31.1663 22.5139 31.9997C22.4311 32.1663 22.4311 32.2497 22.5139 32.4163C23.0105 32.833 23.5071 33.2497 24.0037 33.6663L24.0865 33.583L24.1693 33.4997C25.2453 31.4997 25.8247 29.4163 25.9902 27.1663C26.073 26.2497 25.9902 25.333 25.9074 24.4163C25.7419 23.2497 25.4936 22.1663 25.0797 21.083Z" fill="white"/>
</g>
<defs>
<clipPath id="clip0_670_15583">
<rect width="110" height="40" fill="white"/>
</clipPath>
</defs>
</svg>
