<svg width="105" height="47" viewBox="0 0 105 47" fill="none" xmlns="http://www.w3.org/2000/svg">
<rect opacity="0.1" width="105" height="47" rx="8" fill="white"/>
<rect x="2" y="2" width="101" height="33" rx="6" fill="white"/>
<path d="M21.65 29.66C18.55 29.66 16 28.68 14 26.72C12 24.76 11 22.15 11 18.89C11 15.69 11.96 13.08 13.88 11.06C15.82 9.02 18.38 8 21.56 8C24.82 8 27.52 9.11 29.66 11.33L27.83 12.95C26.13 11.31 24.03 10.49 21.53 10.49C19.27 10.49 17.4 11.26 15.92 12.8C14.46 14.34 13.73 16.37 13.73 18.89C13.73 21.33 14.46 23.34 15.92 24.92C17.38 26.48 19.29 27.26 21.65 27.26C23.87 27.26 25.76 26.67 27.32 25.49V20.9H21.14V18.53H29.93V26.96C27.81 28.76 25.05 29.66 21.65 29.66Z" fill="#222836"/>
<path d="M33.4937 29.51V8.21H40.9337C43.3137 8.21 45.0837 8.81 46.2437 10.01C47.4037 11.21 47.9837 12.81 47.9837 14.81C47.9837 16.99 47.3037 18.63 45.9437 19.73C44.6037 20.83 42.7837 21.38 40.4837 21.38H36.1037V29.51H33.4937ZM36.1037 19.01H40.2437C41.9437 19.01 43.2037 18.63 44.0237 17.87C44.8637 17.09 45.2837 16.05 45.2837 14.75C45.2837 13.41 44.8737 12.38 44.0537 11.66C43.2337 10.94 42.1037 10.58 40.6637 10.58H36.1037V19.01Z" fill="#222836"/>
<path d="M55.4705 29.51L48.6905 8.21H51.4805L56.7305 25.28H56.7905L61.5905 8.21H64.4405L69.2105 25.25H69.2705L74.5505 8.21H77.3105L70.5005 29.51H67.9805L63.0605 12.02H63.0005L57.9905 29.51H55.4705Z" fill="#222836"/>
<path d="M75.5806 29.51L83.6506 8.21H86.2606L94.3606 29.51H91.6306L89.7106 24.32H80.2006L78.3106 29.51H75.5806ZM81.0406 22.04H88.9006L84.9706 11.36H84.9106L81.0406 22.04Z" fill="#222836"/>
<path d="M11 43.744L13.12 38.064H14.064L16.192 43.744H15.184L14.752 42.52H12.432L12.008 43.744H11ZM12.728 41.688H14.464L13.6 39.224H13.584L12.728 41.688Z" fill="white"/>
<path d="M17.5545 43.744V38.064H19.6105C20.2612 38.064 20.7465 38.232 21.0665 38.568C21.3918 38.8987 21.5545 39.344 21.5545 39.904C21.5545 40.5013 21.3705 40.9547 21.0025 41.264C20.6345 41.568 20.1332 41.72 19.4985 41.72H18.5225V43.744H17.5545ZM18.5225 40.848H19.4025C19.7865 40.848 20.0745 40.7627 20.2665 40.592C20.4585 40.416 20.5545 40.1813 20.5545 39.888C20.5545 39.584 20.4612 39.3493 20.2745 39.184C20.0878 39.0133 19.8212 38.928 19.4745 38.928H18.5225V40.848Z" fill="white"/>
<path d="M23.0658 43.744V38.064H25.1217C25.7724 38.064 26.2578 38.232 26.5778 38.568C26.9031 38.8987 27.0658 39.344 27.0658 39.904C27.0658 40.5013 26.8818 40.9547 26.5138 41.264C26.1458 41.568 25.6444 41.72 25.0098 41.72H24.0338V43.744H23.0658ZM24.0338 40.848H24.9137C25.2977 40.848 25.5857 40.7627 25.7778 40.592C25.9697 40.416 26.0658 40.1813 26.0658 39.888C26.0658 39.584 25.9724 39.3493 25.7858 39.184C25.5991 39.0133 25.3324 38.928 24.9858 38.928H24.0338V40.848Z" fill="white"/>
<path d="M28.577 43.744V38.064H30.673C31.3237 38.064 31.809 38.232 32.129 38.568C32.4543 38.904 32.617 39.3493 32.617 39.904C32.617 40.8053 32.1957 41.3787 31.353 41.624L32.825 43.744H31.665L30.305 41.72H29.545V43.744H28.577ZM29.545 40.848H30.465C30.8383 40.848 31.1237 40.7627 31.321 40.592C31.5183 40.416 31.617 40.1813 31.617 39.888C31.617 39.584 31.521 39.3493 31.329 39.184C31.1423 39.0133 30.8757 38.928 30.529 38.928H29.545V40.848Z" fill="white"/>
<path d="M36.7433 43.808C35.8953 43.808 35.2046 43.536 34.6713 42.992C34.138 42.4427 33.8713 41.7467 33.8713 40.904C33.8713 40.0613 34.138 39.368 34.6713 38.824C35.2046 38.2747 35.8953 38 36.7433 38C37.57 38 38.2526 38.2693 38.7913 38.808C39.3353 39.3467 39.6073 40.0453 39.6073 40.904C39.6073 41.7627 39.3353 42.4613 38.7913 43C38.2526 43.5387 37.57 43.808 36.7433 43.808ZM36.7433 42.904C37.2713 42.904 37.7113 42.7147 38.0633 42.336C38.4206 41.9573 38.5993 41.48 38.5993 40.904C38.5993 40.3227 38.4206 39.8453 38.0633 39.472C37.7113 39.0933 37.2713 38.904 36.7433 38.904C36.194 38.904 35.7433 39.096 35.3913 39.48C35.0446 39.864 34.8713 40.3387 34.8713 40.904C34.8713 41.4693 35.0446 41.944 35.3913 42.328C35.7433 42.712 36.194 42.904 36.7433 42.904Z" fill="white"/>
<path d="M42.4901 43.744L40.3701 38.064H41.4101L42.9221 42.352H42.9301L44.4341 38.064H45.4661L43.3461 43.744H42.4901Z" fill="white"/>
<path d="M46.8373 43.744V38.064H50.4133V38.928H47.8053V40.496H49.9093V41.36H47.8053V42.88H50.5813V43.744H46.8373Z" fill="white"/>
<path d="M52.1767 43.744V38.064H53.9847C54.8754 38.064 55.59 38.328 56.1287 38.856C56.6674 39.3787 56.9367 40.064 56.9367 40.912C56.9367 41.76 56.6727 42.4453 56.1447 42.968C55.622 43.4853 54.91 43.744 54.0087 43.744H52.1767ZM53.1447 42.88H53.9527C54.5447 42.88 55.022 42.696 55.3847 42.328C55.7527 41.9547 55.9367 41.4827 55.9367 40.912C55.9367 40.336 55.7554 39.8613 55.3927 39.488C55.0354 39.1147 54.5714 38.928 54.0007 38.928H53.1447V42.88Z" fill="white"/>
<path d="M61.1679 43.744V38.064H63.2239C63.8746 38.064 64.3599 38.232 64.6799 38.568C65.0053 38.8987 65.1679 39.344 65.1679 39.904C65.1679 40.5013 64.9839 40.9547 64.6159 41.264C64.2479 41.568 63.7466 41.72 63.1119 41.72H62.1359V43.744H61.1679ZM62.1359 40.848H63.0159C63.3999 40.848 63.6879 40.7627 63.8799 40.592C64.0719 40.416 64.1679 40.1813 64.1679 39.888C64.1679 39.584 64.0746 39.3493 63.8879 39.184C63.7013 39.0133 63.4346 38.928 63.0879 38.928H62.1359V40.848Z" fill="white"/>
<path d="M69.2952 43.808C68.4472 43.808 67.7565 43.536 67.2232 42.992C66.6899 42.4427 66.4232 41.7467 66.4232 40.904C66.4232 40.0613 66.6899 39.368 67.2232 38.824C67.7565 38.2747 68.4472 38 69.2952 38C70.1219 38 70.8045 38.2693 71.3432 38.808C71.8872 39.3467 72.1592 40.0453 72.1592 40.904C72.1592 41.7627 71.8872 42.4613 71.3432 43C70.8045 43.5387 70.1219 43.808 69.2952 43.808ZM69.2952 42.904C69.8232 42.904 70.2632 42.7147 70.6152 42.336C70.9725 41.9573 71.1512 41.48 71.1512 40.904C71.1512 40.3227 70.9725 39.8453 70.6152 39.472C70.2632 39.0933 69.8232 38.904 69.2952 38.904C68.7459 38.904 68.2952 39.096 67.9432 39.48C67.5965 39.864 67.4232 40.3387 67.4232 40.904C67.4232 41.4693 67.5965 41.944 67.9432 42.328C68.2952 42.712 68.7459 42.904 69.2952 42.904Z" fill="white"/>
<path d="M73.7764 43.744V38.064H75.8724C76.523 38.064 77.0084 38.232 77.3284 38.568C77.6537 38.904 77.8164 39.3493 77.8164 39.904C77.8164 40.8053 77.395 41.3787 76.5524 41.624L78.0244 43.744H76.8644L75.5044 41.72H74.7444V43.744H73.7764ZM74.7444 40.848H75.6644C76.0377 40.848 76.323 40.7627 76.5204 40.592C76.7177 40.416 76.8164 40.1813 76.8164 39.888C76.8164 39.584 76.7204 39.3493 76.5284 39.184C76.3417 39.0133 76.075 38.928 75.7284 38.928H74.7444V40.848Z" fill="white"/>
<path d="M80.5103 43.744V38.928H78.9023V38.064H83.1103V38.928H81.4783V43.744H80.5103Z" fill="white"/>
<path d="M83.4353 43.744L85.5553 38.064H86.4993L88.6273 43.744H87.6193L87.1873 42.52H84.8673L84.4433 43.744H83.4353ZM85.1633 41.688H86.8993L86.0353 39.224H86.0193L85.1633 41.688Z" fill="white"/>
<path d="M89.9898 43.744V38.064H90.9578V42.88H93.5898V43.744H89.9898Z" fill="white"/>
</svg>
