<svg width="14" height="14" viewBox="0 0 14 14" fill="none" xmlns="http://www.w3.org/2000/svg">
<path fill-rule="evenodd" clip-rule="evenodd" d="M6.71193 9.88284C6.87103 10.0391 7.12897 10.0391 7.28807 9.88284L9.88068 7.33726C10.0398 7.18105 10.0398 6.92778 9.88068 6.77157C9.80113 6.69347 9.69687 6.65442 9.59261 6.65442C9.49298 6.65442 9.39334 6.69008 9.31527 6.76141C9.31165 6.76472 9.30807 6.76811 9.30454 6.77157L7.40739 8.63431L7.40739 4L6.59261 4L6.59261 8.63431L4.69546 6.77157C4.69193 6.76811 4.68835 6.76472 4.68473 6.76141C4.60666 6.69008 4.50702 6.65442 4.40739 6.65442C4.30313 6.65442 4.19887 6.69347 4.11932 6.77157C3.96023 6.92778 3.96023 7.18105 4.11932 7.33726L6.71193 9.88284Z" fill="#282A38"/>
</svg>
