<svg width="20" height="20" viewBox="0 0 20 20" fill="none" xmlns="http://www.w3.org/2000/svg">
<path d="M0.572228 0.42826C0.76749 0.232998 1.08407 0.232998 1.27933 0.42826L19.4284 18.5773C19.6237 18.7726 19.6237 19.0892 19.4284 19.2844C19.2331 19.4797 18.9166 19.4797 18.7213 19.2844L0.572228 1.13537C0.376966 0.940105 0.376966 0.623523 0.572228 0.42826Z" fill="white"/>
<path d="M0.572303 19.2842C0.377041 19.089 0.377041 18.7724 0.572303 18.5771L18.7214 0.428036C18.9166 0.232773 19.2332 0.232774 19.4285 0.428036C19.6237 0.623298 19.6237 0.93988 19.4285 1.13514L1.27941 19.2842C1.08415 19.4795 0.767566 19.4795 0.572303 19.2842Z" fill="white"/>
</svg>
