<svg width="16" height="16" viewBox="0 0 16 16" fill="none" xmlns="http://www.w3.org/2000/svg">
<path d="M1 5.7356C1.07653 5.7848 1.13667 5.82306 1.19133 5.86133C3.04451 7.09678 4.8977 8.33224 6.74541 9.56769C7.5654 10.1144 8.42366 10.1198 9.24912 9.56769C11.1351 8.31037 13.0211 7.05305 14.9071 5.79573C14.9289 5.77933 14.9508 5.7684 14.9945 5.74106C14.9945 5.8012 14.9945 5.84493 14.9945 5.88866C14.9945 7.89491 14.9945 9.90662 14.9945 11.9129C14.9945 12.7383 14.4479 13.285 13.6279 13.285C9.87232 13.285 6.12222 13.285 2.36665 13.285C1.55213 13.285 1 12.7383 1 11.9238C1 9.90662 1 7.88944 1 5.87226C1 5.83399 1 5.8012 1 5.7356Z" fill="white"/>
<path d="M7.99753 2.80005C9.87804 2.80005 11.7586 2.80005 13.6391 2.80005C14.0436 2.80005 14.388 2.92578 14.6613 3.23191C15.1807 3.81684 15.0823 4.6751 14.4372 5.11789C13.5188 5.74109 12.5895 6.35335 11.6656 6.97108C10.7199 7.59974 9.77418 8.23386 8.82845 8.86252C8.22712 9.26159 7.76246 9.26159 7.16113 8.86252C5.30795 7.6216 3.45477 6.38615 1.59612 5.14523C1.10412 4.81723 0.896394 4.2979 1.04946 3.75124C1.19706 3.20458 1.66719 2.83285 2.24665 2.80552C2.30678 2.80005 2.36691 2.80005 2.42705 2.80005C4.28569 2.80005 6.13888 2.80005 7.99753 2.80005Z" fill="white"/>
</svg>
