<svg width="16" height="16" viewBox="0 0 16 16" fill="none" xmlns="http://www.w3.org/2000/svg">
<path d="M9.45396 15.5C9.45396 13.6954 9.45396 11.909 9.45396 10.1104C9.93861 10.1104 10.4233 10.1104 10.92 10.1104C11.0291 9.4019 11.1381 8.70549 11.2532 7.99698C10.5081 7.99698 9.7811 7.99698 9.06019 7.99698C9.04201 7.97275 9.0299 7.9667 9.0299 7.96064C9.0299 7.45802 9.01172 6.94934 9.0299 6.44671C9.05413 5.89565 9.41761 5.52019 9.9689 5.4778C10.4354 5.44147 10.9079 5.45358 11.3744 5.44752C11.435 5.44752 11.4955 5.44752 11.5561 5.44752C11.5561 4.82378 11.5561 4.21216 11.5561 3.58842C11.2714 3.55814 10.9927 3.51575 10.7141 3.49153C10.1385 3.44308 9.56907 3.4128 8.99355 3.53392C7.88491 3.77615 7.10947 4.56945 6.96408 5.70186C6.89744 6.22265 6.91561 6.75556 6.89744 7.28846C6.89138 7.51252 6.89744 7.74264 6.89744 7.98487C6.33404 7.98487 5.77669 7.98487 5.20117 7.98487C5.20117 8.34821 5.20117 8.69338 5.20117 9.04461C5.20117 9.38979 5.20117 9.74102 5.20117 10.1044C5.76457 10.1044 6.32192 10.1044 6.88532 10.1044C6.88532 11.909 6.88532 13.7015 6.88532 15.4879C3.67452 15.0579 0.518247 12.2784 0.500073 8.02726C0.481899 3.86698 3.85627 0.506064 7.99396 0.500008C12.1195 0.493953 15.4818 3.83065 15.5 7.98487C15.506 10.0196 14.8215 11.806 13.3978 13.2897C12.3073 14.4221 11.0048 15.1669 9.45396 15.5Z" fill="white"/>
</svg>
