<svg width="16" height="16" viewBox="0 0 16 16" fill="none" xmlns="http://www.w3.org/2000/svg">
<path d="M5.5 6.4966C6.02971 6.4966 6.55511 6.4966 7.09343 6.4966C7.09343 6.44498 7.09343 6.39806 7.09343 6.35582C7.09774 5.72702 7.08482 5.09822 7.11496 4.46941C7.14511 3.80307 7.34321 3.19773 7.78679 2.7144C8.22175 2.22637 8.7773 2.01051 9.38883 2.00113C9.90562 1.99174 10.4224 2.04336 10.9349 2.06682C10.9564 2.06682 10.978 2.07621 10.9995 2.0809C10.9995 2.7097 10.9995 3.33851 10.9995 3.98608C10.9564 3.98608 10.9134 3.98608 10.8746 3.98608C10.4999 3.99077 10.1209 3.98139 9.74627 4.00954C9.34146 4.04239 9.1046 4.27233 9.08306 4.71343C9.04861 5.30469 9.07445 5.89595 9.07445 6.4966C9.65584 6.4966 10.2415 6.4966 10.8401 6.4966C10.7583 7.21456 10.6765 7.91844 10.5947 8.63171C10.0822 8.63171 9.57832 8.63171 9.06153 8.63171C9.06153 10.4243 9.06153 12.2121 9.06153 14C8.39832 14 7.75233 14 7.09774 14C7.09774 12.2121 7.09774 10.429 7.09774 8.6364C6.56372 8.6364 6.03832 8.6364 5.50431 8.6364C5.5 7.92314 5.5 7.21925 5.5 6.4966Z" fill="#222836"/>
</svg>
