<svg width="16" height="16" viewBox="0 0 16 16" fill="none" xmlns="http://www.w3.org/2000/svg">
<path d="M6.52318 1.25C8.4911 1.29172 10.1531 1.83412 11.5021 3.14143C12.566 4.17059 13.1015 5.43618 13.025 6.93125C12.9763 7.95345 12.573 8.84354 11.8985 9.6015C10.7511 10.9088 9.28383 11.6111 7.58015 11.8684C6.69702 12.0006 5.81389 11.9658 4.94467 11.7363C4.84731 11.7085 4.79864 11.7572 4.74301 11.8198C4.20756 12.4595 3.54 12.9046 2.7125 13.0645C2.35785 13.134 2.01016 13.1062 1.66943 12.9602C1.30088 12.8072 1.18266 12.4247 1.40518 12.091C1.7181 11.632 1.97539 11.1522 2.18401 10.6376C2.23268 10.5125 2.21182 10.4499 2.10752 10.3664C0.876694 9.35117 0.223037 8.0369 0.250852 6.42362C0.271714 5.13022 0.834971 4.05238 1.74592 3.16229C2.80985 2.11922 4.10326 1.54901 5.56355 1.3404C5.92515 1.28477 6.27979 1.27086 6.52318 1.25ZM6.64139 5.85341C7.45499 5.85341 8.26163 5.85341 9.07522 5.85341C9.44377 5.85341 9.70106 5.63089 9.70106 5.30406C9.70106 4.97723 9.45073 4.7408 9.08217 4.7408C7.45499 4.7408 5.8278 4.7408 4.20061 4.7408C3.83206 4.7408 3.58172 4.97028 3.58172 5.29711C3.58172 5.62393 3.83901 5.84646 4.20756 5.84646C5.0142 5.85341 5.8278 5.85341 6.64139 5.85341ZM6.63444 6.96602C5.80694 6.96602 4.97943 6.96602 4.15193 6.96602C3.8251 6.96602 3.58172 7.2094 3.58172 7.52232C3.58172 7.83524 3.8251 8.07862 4.15193 8.07862C5.80694 8.07862 7.46194 8.08558 9.1239 8.07167C9.24907 8.07167 9.3951 8.00909 9.50636 7.93259C9.69411 7.80047 9.74974 7.55014 9.67325 7.34152C9.5898 7.10509 9.38814 6.96602 9.1239 6.96602C8.28944 6.96602 7.46194 6.96602 6.63444 6.96602Z" fill="white"/>
<path d="M6.73926 13.0645C7.21212 13.0089 7.67107 12.988 8.12306 12.9046C10.2162 12.5221 11.9685 11.5625 13.1646 9.76146C14.2215 8.176 14.4302 6.46537 13.7974 4.65738C13.7834 4.62261 13.7765 4.58089 13.7626 4.54612C13.7765 4.53221 13.7904 4.51831 13.8043 4.51135C14.0407 4.73387 14.2911 4.94249 14.5066 5.18587C15.3411 6.12463 15.7931 7.22333 15.7444 8.48196C15.6888 9.94226 15.0421 11.1383 13.9156 12.0632C13.8113 12.1536 13.7695 12.2161 13.8391 12.3483C14.0825 12.8003 14.305 13.2662 14.5692 13.7043C14.8265 14.1284 14.7222 14.497 14.2494 14.6639C13.6374 14.8725 13.0603 14.7404 12.504 14.4622C12.0241 14.2258 11.6069 13.9059 11.287 13.4817C11.2175 13.3913 11.1549 13.4122 11.0784 13.4331C9.78502 13.739 8.50552 13.6764 7.23993 13.2592C7.10085 13.2105 6.96873 13.1619 6.82966 13.1132C6.80184 13.0993 6.78098 13.0854 6.73926 13.0645Z" fill="white"/>
</svg>
