<svg width="16" height="16" viewBox="0 0 16 16" fill="none" xmlns="http://www.w3.org/2000/svg">
<path d="M4.85977 6.47723C4.84102 6.7025 4.81758 6.90429 4.80821 7.10609C4.78946 7.60355 4.84102 8.09162 4.98633 8.56561C5.01914 8.66886 4.99571 8.74395 4.92071 8.81903C4.61602 9.12877 4.30196 9.43851 4.00664 9.76232C3.32696 10.5132 3.53789 11.7052 4.42383 12.1792C5.00039 12.489 5.74102 12.4139 6.20039 11.9586C6.94102 11.2218 7.66758 10.4616 8.38945 9.70601C8.61914 9.46197 8.78789 9.1757 8.8207 8.82842C8.88633 8.18079 8.62852 7.68802 8.09883 7.32666C7.93008 7.20934 7.9207 7.18587 8.01445 7.00754C8.21602 6.6321 8.49258 6.32706 8.8207 6.05486C8.90508 5.98447 8.98945 5.98447 9.07852 6.05017C9.81445 6.58517 10.2738 7.29381 10.4145 8.19956C10.5316 8.94574 10.4332 9.66377 10.0395 10.3114C9.85195 10.6211 9.6082 10.9074 9.35508 11.1702C8.72695 11.8319 8.1082 12.4983 7.43789 13.1178C6.50508 13.986 5.38946 14.216 4.18477 13.8124C2.98008 13.4088 2.2629 12.5312 2.05196 11.2782C1.86446 10.1753 2.1879 9.21325 2.96602 8.41074C3.56133 7.79596 4.16133 7.18587 4.76133 6.57578C4.78477 6.54763 4.81758 6.51947 4.85977 6.47723Z" fill="#222836"/>
<path d="M11.1173 9.51819C11.136 9.34924 11.1595 9.20376 11.1735 9.05828C11.2251 8.5045 11.1735 7.95542 11.0048 7.42512C10.972 7.31718 10.9954 7.24209 11.0704 7.16231C11.361 6.87134 11.647 6.58038 11.9282 6.28003C12.3548 5.8248 12.4907 5.2898 12.2985 4.69849C12.1064 4.10717 11.6845 3.74581 11.0704 3.64256C10.5689 3.55809 10.1189 3.69418 9.75793 4.05554C9.04074 4.77827 8.33761 5.50568 7.63449 6.24248C7.34387 6.54753 7.15168 6.90419 7.16105 7.34064C7.17043 7.92257 7.42824 8.36372 7.91105 8.68284C8.05637 8.78139 8.07043 8.81894 7.97668 8.96442C7.74699 9.32578 7.46574 9.6449 7.16105 9.94526C7.08605 10.0156 7.02043 10.0203 6.93137 9.95933C6.12043 9.3821 5.67043 8.59367 5.57199 7.61284C5.46418 6.55222 5.81106 5.64647 6.56106 4.8909C7.18449 4.26673 7.79855 3.62848 8.4173 2.99962C9.59855 1.79352 11.422 1.65742 12.7532 2.6758C14.2439 3.8162 14.4407 6.07823 13.1517 7.44858C12.5142 8.12437 11.8532 8.78139 11.2064 9.4478C11.1782 9.47126 11.1548 9.49003 11.1173 9.51819Z" fill="#222836"/>
</svg>
