<svg width="20" height="20" viewBox="0 0 20 20" fill="none" xmlns="http://www.w3.org/2000/svg">
<path fill-rule="evenodd" clip-rule="evenodd" d="M9.99984 3.66669C10.276 3.66669 10.4998 3.89054 10.4998 4.16669V9.50002H15.8332C16.1093 9.50002 16.3332 9.72388 16.3332 10C16.3332 10.2762 16.1093 10.5 15.8332 10.5H10.4998V15.8334C10.4998 16.1095 10.276 16.3334 9.99984 16.3334C9.72369 16.3334 9.49984 16.1095 9.49984 15.8334V10.5H4.1665C3.89036 10.5 3.6665 10.2762 3.6665 10C3.6665 9.72388 3.89036 9.50002 4.1665 9.50002H9.49984V4.16669C9.49984 3.89054 9.72369 3.66669 9.99984 3.66669Z" fill="white"/>
</svg>
