<svg width="16" height="16" viewBox="0 0 16 16" fill="none" xmlns="http://www.w3.org/2000/svg">
<path d="M6.49612 10.0609C7.2508 9.38276 8.00002 8.7101 8.74377 8.03745C10.0672 6.84526 11.3906 5.65854 12.7141 4.46089C12.7797 4.40073 12.8453 4.33511 12.8946 4.25854C12.9274 4.20933 12.9547 4.10542 12.9274 4.07808C12.8891 4.03433 12.7961 4.01245 12.736 4.02886C12.6266 4.0562 12.5227 4.11089 12.4297 4.17104C11.2485 4.92026 10.0672 5.66948 8.89143 6.4187C7.4969 7.30463 6.10237 8.19057 4.70783 9.07651C4.62033 9.13119 4.54924 9.13666 4.45627 9.10385C3.50471 8.78119 2.55315 8.45854 1.59612 8.14135C1.40471 8.07573 1.22971 7.97729 1.10393 7.80776C0.956271 7.60541 0.967209 7.3976 1.15862 7.23901C1.26799 7.14604 1.39924 7.06948 1.53049 7.01479C5.55549 5.43432 9.58596 3.85386 13.611 2.27886C13.8516 2.18589 14.0977 2.10386 14.3438 2.0273C14.4258 1.99995 14.5133 1.99995 14.6008 2.00542C14.8852 2.01089 15.0438 2.21323 14.9891 2.49214C14.8086 3.41636 14.6227 4.34057 14.4367 5.26479C13.9664 7.63276 13.4961 9.99526 13.0313 12.3632C12.9602 12.7296 12.8836 13.096 12.8125 13.4624C12.7031 14.0367 12.0196 14.2992 11.5492 13.9437C10.4281 13.0851 9.30705 12.2265 8.18596 11.3679C7.66096 10.9687 7.13596 10.564 6.61096 10.1648C6.57815 10.1265 6.54534 10.0992 6.49612 10.0609Z" fill="white"/>
</svg>
