<svg width="16" height="16" viewBox="0 0 16 16" fill="none" xmlns="http://www.w3.org/2000/svg">
<path d="M12.6848 4.58116C13.2111 4.51975 13.7129 4.38432 14.1792 4.18286C13.8303 4.68991 13.3892 5.13423 12.8823 5.48921L12.8896 5.81613C12.8896 9.1519 10.273 13 5.48822 13C4.01852 13 2.65216 12.5817 1.5 11.8652C1.70417 11.8885 1.91097 11.9005 2.12115 11.9005C3.33999 11.9005 4.46152 11.4975 5.35213 10.8198C4.21331 10.7997 3.25257 10.0698 2.92169 9.06645C3.0805 9.0965 3.24326 9.11182 3.41071 9.11182C3.64822 9.11182 3.87775 9.08045 4.09591 9.02307C2.90572 8.79091 2.0091 7.77081 2.0091 6.54727V6.51525C2.36064 6.70534 2.76098 6.81813 3.18793 6.83146C2.49006 6.37975 2.03108 5.60588 2.03108 4.73058C2.03108 4.26758 2.15918 3.83462 2.38336 3.46168C3.66559 4.98876 5.58297 5.9942 7.74453 6.09958C7.6999 5.91476 7.67718 5.72196 7.67718 5.5238C7.67718 4.12951 8.84202 3 10.2777 3C11.0262 3 11.702 3.30625 12.1764 3.79659C12.7695 3.68388 13.3259 3.4737 13.8289 3.1835C13.6348 3.77387 13.2225 4.26824 12.6848 4.58116Z" fill="#222836"/>
</svg>
