<svg width="98" height="43" viewBox="0 0 98 43" fill="none" xmlns="http://www.w3.org/2000/svg">
<path fill-rule="evenodd" clip-rule="evenodd" d="M55.8555 29.0118C59.0902 36.7812 66.9644 42.2791 76.1411 42.2791C88.1956 42.2791 97.9981 32.7966 97.9981 21.1395C97.9981 9.48243 88.1928 0 76.1411 0C66.6372 0 58.5304 5.89684 55.5273 14.1068L56.3576 14.4585C59.222 6.57237 67.0077 0.902432 76.1411 0.902432C87.6988 0.902432 97.0985 9.98746 97.0985 21.1451C97.0985 32.3026 87.6961 41.3822 76.1411 41.3822C67.3589 41.3822 59.8202 36.1374 56.7078 28.7205L55.8555 29.0118Z" fill="white"/>
<path d="M83.5977 20.4083C83.5977 19.986 83.526 19.6245 83.3825 19.3292C83.1231 18.78 82.6374 18.3716 82.0523 18.2143C81.5169 18.0598 80.9512 18.0598 80.4158 18.2143C79.8307 18.3716 79.345 18.7745 79.0856 19.3209C78.9338 19.619 78.8621 19.9778 78.8621 20.4V22.6133C78.8621 23.0355 78.9255 23.3971 79.0414 23.6924C79.2622 24.2415 79.7286 24.6555 80.2999 24.8073C80.5979 24.8984 80.9015 24.9342 81.2354 24.9342C81.5086 24.9315 81.7818 24.8901 82.044 24.8183C82.6263 24.6583 83.1093 24.2498 83.3659 23.7034C83.5177 23.3971 83.5895 23.0383 83.5895 22.6243L83.5977 20.4083ZM85.2812 22.9638C85.3088 23.9821 84.8589 24.9563 84.0669 25.5993C83.6778 25.9057 83.2362 26.1375 82.7615 26.2837C81.7377 26.6149 80.6366 26.6149 79.6127 26.2837C79.1491 26.1375 78.7185 25.9029 78.3432 25.5911C77.5677 24.9425 77.1317 23.9739 77.1648 22.9638V20.113C77.1455 19.0974 77.5843 18.126 78.3598 17.4692C78.7185 17.1628 79.1518 16.9283 79.6458 16.7572C80.6862 16.415 81.8067 16.415 82.8471 16.7572C83.319 16.9062 83.7578 17.1518 84.1331 17.4774C84.4947 17.7838 84.7844 18.1674 84.9776 18.6007C85.1763 19.0422 85.2757 19.5472 85.2757 20.113L85.2812 22.9638ZM73.1301 26.4273V16.6137H74.8108V26.419L73.1301 26.4273ZM75.026 13.6442C75.0177 14.2265 74.5348 14.6929 73.9525 14.6846C73.3812 14.6763 72.9231 14.2154 72.9121 13.6442C72.9121 13.3461 73.0197 13.106 73.2267 12.8991C73.4171 12.7004 73.6793 12.59 73.9552 12.5927C74.2395 12.5872 74.5099 12.6976 74.7114 12.8991C74.9184 13.106 75.026 13.3489 75.026 13.6442ZM68.4441 25.3399C68.4441 25.0584 68.5434 24.7852 68.7228 24.5672C68.9215 24.3326 69.2002 24.2084 69.5673 24.2084C70.202 24.1781 70.7402 24.6693 70.7705 25.304C70.7705 25.3178 70.7705 25.3289 70.7705 25.3427C70.7705 25.6766 70.6629 25.9553 70.4476 26.1872C70.2406 26.4217 69.9454 26.5376 69.5673 26.5376C69.1975 26.5376 68.9187 26.4217 68.7228 26.1954C68.5269 25.9526 68.4275 25.649 68.4441 25.3399ZM66.5895 23.6123C66.5895 24.0815 66.5012 24.4844 66.2915 24.8459C66.0928 25.2075 65.8168 25.5221 65.4829 25.7622C65.1407 26.0243 64.7377 26.212 64.2603 26.3472C63.7829 26.4824 63.2696 26.5459 62.6955 26.5459C62.0222 26.5459 61.3488 26.4576 60.6975 26.2755C59.9855 26.0657 59.3204 25.7208 58.7353 25.2599L59.6626 24.0097C60.1566 24.4237 60.6533 24.7024 61.1749 24.8542C61.6882 25.006 62.254 25.0805 62.8556 25.0805C63.0985 25.0805 63.3413 25.0501 63.5759 24.9894C63.8077 24.9398 64.0257 24.8487 64.2244 24.719C64.6356 24.4844 64.8813 24.0401 64.8619 23.5682C64.8702 23.1542 64.7184 22.8479 64.4121 22.6685C64.1141 22.4891 63.7277 22.3539 63.2696 22.2739C62.7673 22.1938 62.2705 22.1028 61.7766 22.0034C61.3129 21.9151 60.8603 21.7633 60.4353 21.5536C60.0517 21.3742 59.7206 21.1065 59.4639 20.7698C59.199 20.3862 59.0693 19.9226 59.0941 19.4562C59.0858 18.6117 59.4722 17.8141 60.1373 17.2981C60.485 17.0442 60.8686 16.851 61.2798 16.7213C61.702 16.5778 62.1795 16.5143 62.6735 16.5143C63.4103 16.5143 64.0671 16.5861 64.6356 16.7378C65.2262 16.8979 65.7809 17.1711 66.2722 17.5382L65.4277 18.7966C64.6053 18.275 63.6477 18.0046 62.6762 18.0156C62.0912 18.0156 61.6248 18.1508 61.2743 18.4213C60.9155 18.6917 60.7334 19.0339 60.7334 19.4369C60.7334 19.7791 60.8769 20.0385 61.1749 20.2096C61.4619 20.389 61.8235 20.5159 62.254 20.6153C62.6955 20.7146 63.1619 20.8029 63.667 20.8857C64.1499 20.9713 64.6218 21.1148 65.0689 21.319C65.4939 21.5094 65.8665 21.7937 66.1562 22.1552C66.446 22.514 66.5895 22.9914 66.5895 23.6123ZM58.1089 18.2971C56.867 18.3799 55.6665 18.7607 54.6013 19.4037V26.4383H52.9013V16.6137H54.4026L54.5819 18.0542H54.6013C55.316 17.4112 56.1577 16.931 57.074 16.6413C57.4107 16.5419 57.7584 16.4895 58.1089 16.4895V18.2971ZM49.1756 20.4C49.1756 19.986 49.1204 19.6356 48.9963 19.3485C48.8003 18.7994 48.356 18.3771 47.8013 18.206C47.2466 18.0294 46.6477 18.0294 46.093 18.206C45.8308 18.3026 45.5907 18.4461 45.381 18.6283C45.163 18.8242 44.9919 19.0671 44.887 19.3403C44.7711 19.619 44.7076 19.9529 44.7076 20.3393V20.7808H49.1784L49.1756 20.4ZM44.6855 22.1552V22.8037C44.6855 23.1984 44.749 23.5323 44.8843 23.8028C45.014 24.0649 45.1961 24.294 45.4252 24.4789C45.6653 24.6583 45.9357 24.7907 46.2255 24.8652C47.4094 25.1716 48.6651 24.8487 49.5537 24.0097L50.6245 25.1799C50.1222 25.6932 49.562 26.0519 48.9521 26.2424C48.3532 26.43 47.7268 26.5266 47.1003 26.5294C46.5649 26.5294 46.0323 26.4521 45.5162 26.3031C45.0388 26.1623 44.5945 25.9333 44.2026 25.6297C43.8245 25.3289 43.5182 24.9425 43.3112 24.5065C43.0877 24.0208 42.9773 23.4881 42.9883 22.9528V20.3531C42.9883 19.7763 43.0794 19.2464 43.2864 18.769C43.6644 17.85 44.4179 17.1352 45.3562 16.8096C46.3883 16.4426 47.5143 16.4398 48.5492 16.8013C49.4902 17.0828 50.2547 17.7783 50.619 18.6917C50.8066 19.1416 50.906 19.6549 50.906 20.2206V22.1635L44.6855 22.1552ZM38.1202 16.5143C39.0833 16.5143 39.8284 16.8124 40.3693 17.414C40.9102 18.0266 41.1779 18.8904 41.1779 20.0136V26.4273H39.4779V20.2206C39.4779 19.4562 39.3151 18.9153 38.9839 18.6007C38.6473 18.2916 38.2002 18.1315 37.7421 18.1591C37.3474 18.1591 36.8783 18.2667 36.3484 18.4737C35.8047 18.6752 35.2831 18.9346 34.7919 19.2464V26.4245H33.0836V16.6137H34.596L34.7947 17.6927C35.2169 17.4305 35.6033 17.2263 35.9289 17.0635C36.445 16.8234 36.9887 16.6523 37.5489 16.5502C37.7365 16.5253 37.927 16.5143 38.1202 16.5143ZM32.0929 26.1844C31.7038 26.3196 31.2981 26.4107 30.8869 26.4549C30.4729 26.499 30.1666 26.5266 29.9707 26.5266C28.9275 26.5266 28.1713 26.2837 27.7132 25.8063C27.2441 25.3372 27.0205 24.5479 27.0205 23.4412V18.1343H25.6269V16.6054H27.0564L27.451 14.3369H28.7095V16.6137H31.4444V18.1343H28.7095V22.9196C28.7095 23.3143 28.7453 23.6399 28.8171 23.9104C28.8778 24.1284 28.9772 24.3326 29.1152 24.512C29.2338 24.6638 29.3994 24.7742 29.5843 24.8266C29.7913 24.8763 30.001 24.9011 30.2135 24.8984C30.4619 24.9011 30.7103 24.8846 30.9587 24.8542L31.8224 24.7466L32.0929 26.1844ZM24.9618 18.2971C23.7199 18.3799 22.5194 18.7607 21.4541 19.4037V26.4383H19.7541V16.6137H21.2554L21.4348 18.0542H21.4541C22.1689 17.4112 23.0106 16.931 23.9269 16.6413C24.2635 16.5419 24.6113 16.4895 24.9618 16.4895V18.2971ZM15.8326 22.0558H13.2412C13.0121 22.0531 12.7831 22.0696 12.5568 22.1C12.3194 22.1304 12.0904 22.1966 11.8724 22.2987C11.6626 22.4008 11.4805 22.5554 11.3508 22.7485C11.2155 22.9555 11.1438 23.226 11.1438 23.5571C11.1438 24.0263 11.3066 24.3768 11.6295 24.6196C11.9524 24.8542 12.3664 24.9784 12.8603 24.9784C13.1115 24.9784 13.3737 24.9342 13.6441 24.8625C14.1767 24.7245 14.69 24.5175 15.173 24.2498L15.8298 23.9076L15.8326 22.0558ZM15.7774 25.4724C14.9964 25.9139 14.3561 26.1927 13.8621 26.3169C13.3681 26.4411 12.9266 26.4962 12.5319 26.4962C11.5798 26.4962 10.8237 26.2341 10.2552 25.7125C9.67285 25.1495 9.361 24.363 9.39964 23.5544C9.39964 23.0162 9.52659 22.5664 9.76944 22.1883C10.0068 21.8295 10.3159 21.5232 10.6802 21.2886C11.0389 21.0568 11.4336 20.8912 11.8503 20.7946C12.2642 20.6953 12.6423 20.6429 12.9652 20.6429H15.8409V19.8977C15.8409 19.2133 15.6421 18.7276 15.2641 18.4572C14.7701 18.1563 14.1961 18.0156 13.6193 18.0515C13.2771 18.0515 12.8548 18.1067 12.3608 18.2033C11.8668 18.2943 11.3701 18.5537 10.8678 18.9594L10.0399 17.6734C10.6691 17.1877 11.3094 16.8648 11.9552 16.7296C12.5457 16.5916 13.1474 16.5198 13.7545 16.5143C15.0405 16.5143 15.9844 16.7848 16.597 17.3505C17.2097 17.908 17.5132 18.7718 17.5132 19.9309V26.4245H16.0285L15.8298 25.5165L15.7774 25.4724ZM7.01523 17.7369C7.01523 17.0635 6.80825 16.5309 6.39429 16.1362C5.96378 15.7333 5.38975 15.5208 4.80193 15.5429H1.65584V19.9143H4.80469C5.38975 19.9364 5.96102 19.7294 6.39705 19.3375C6.82481 18.9208 7.05111 18.3357 7.01523 17.7369ZM8.65175 17.7369C8.64347 18.6559 8.31231 19.5445 7.71621 20.2455C7.41815 20.6042 7.05111 20.883 6.61783 21.1093C6.18731 21.3245 5.69056 21.4432 5.14414 21.4432H1.65584V26.4273H0V14.0333H5.14414C6.16248 14.0029 7.13942 14.4445 7.78796 15.2283C8.07497 15.5815 8.29299 15.9844 8.43649 16.415C8.58 16.8427 8.65175 17.2898 8.65175 17.7369Z" fill="white"/>
</svg>
