<svg width="153" height="40" viewBox="0 0 153 40" fill="none" xmlns="http://www.w3.org/2000/svg">
<path d="M53.7402 27H56.1602V21.94H58.6002C61.6602 21.94 63.7402 20.48 63.7402 17.4C63.7402 14.76 62.2802 12.8 58.8802 12.8H53.7402V27ZM56.1602 19.76V14.96H58.5402C60.2802 14.96 61.2402 15.86 61.2402 17.36C61.2402 18.76 60.3402 19.76 58.3602 19.76H56.1602Z" fill="white"/>
<path d="M69.9826 27.16C71.3426 27.16 72.3826 26.6401 73.0826 25.7001L73.1226 25.72V27H75.2626V17.24H73.0226V18.42L72.9826 18.44C72.2826 17.56 71.2026 17.1 69.9626 17.1C67.2826 17.1 65.2626 19.22 65.2626 22.16C65.2626 25.18 67.2826 27.16 69.9826 27.16ZM70.3426 25.1201C68.6826 25.1201 67.5426 23.9001 67.5426 22.18C67.5426 20.3001 68.7826 19.12 70.3426 19.12C71.9426 19.12 73.1226 20.44 73.1226 22.18C73.1226 23.94 71.8626 25.1201 70.3426 25.1201Z" fill="white"/>
<path d="M78.0891 27H80.3291V22.38C80.3291 20.78 81.2891 19.56 82.9891 19.56C83.1491 19.56 83.4091 19.58 83.6691 19.6V17.1H83.3891C82.2091 17.1 81.1291 17.68 80.3691 18.7H80.3291V17.24H78.0891V27Z" fill="white"/>
<path d="M88.4305 27.16C89.7105 27.16 90.3305 26.9 90.9105 26.58L90.3305 24.64C89.8105 24.92 89.2705 25.06 88.8905 25.06C88.2505 25.06 87.9505 24.7001 87.9505 23.7001V19.14H90.8105V17.24H87.9505V13.76L85.7105 14V17.24H84.5105V19.14H85.7105V23.92C85.7105 26.1 86.7505 27.16 88.4305 27.16Z" fill="white"/>
<path d="M92.8352 27H95.0752V22.1C95.0752 20.18 96.0752 19.12 97.5952 19.12C98.9352 19.12 99.7152 19.78 99.7152 21.84V27H101.955V21.26C101.955 18.32 100.515 17.1 98.3752 17.1C97.0952 17.1 95.9152 17.62 95.1152 18.58H95.0752V17.24H92.8352V27Z" fill="white"/>
<path d="M113.611 22C113.611 19.16 111.751 17.1 109.011 17.1C106.151 17.1 104.111 19.12 104.111 22.12C104.111 25.18 106.211 27.16 109.171 27.16C111.271 27.16 112.491 26.38 113.311 25.32L111.751 23.98C111.251 24.6 110.451 25.1201 109.291 25.1201C107.771 25.1201 106.711 24.2801 106.431 22.8601H113.551C113.571 22.7001 113.611 22.36 113.611 22ZM108.991 19.12C110.271 19.12 111.071 19.9201 111.351 21.1H106.471C106.791 19.82 107.751 19.12 108.991 19.12Z" fill="white"/>
<path d="M115.921 27H118.161V22.38C118.161 20.78 119.121 19.56 120.821 19.56C120.981 19.56 121.241 19.58 121.501 19.6V17.1H121.221C120.041 17.1 118.961 17.68 118.201 18.7H118.161V17.24H115.921V27Z" fill="white"/>
<path d="M126.483 27.16C128.963 27.16 130.123 25.8401 130.123 24.2001C130.123 22.2601 128.823 21.88 126.743 21.06C125.803 20.7 125.203 20.36 125.203 19.88C125.203 19.28 125.823 19.04 126.263 19.04C127.023 19.04 127.923 19.34 128.703 20.08L129.823 18.32C128.743 17.44 127.623 17.1 126.383 17.1C124.383 17.1 122.943 18.26 122.943 19.86C122.943 21.78 124.323 22.5 125.923 23.06C127.203 23.5 127.843 23.74 127.843 24.24C127.843 24.82 127.343 25.2001 126.483 25.2001C125.283 25.2001 124.443 24.82 123.663 24.06L122.543 25.74C123.563 26.64 124.903 27.16 126.483 27.16Z" fill="white"/>
<path d="M133.411 27.16C134.231 27.16 134.911 26.5 134.911 25.68C134.911 24.86 134.231 24.18 133.411 24.18C132.571 24.18 131.891 24.86 131.891 25.68C131.891 26.5 132.571 27.16 133.411 27.16Z" fill="white"/>
<path d="M138.822 15.8C139.662 15.8 140.342 15.12 140.342 14.3C140.342 13.5 139.662 12.82 138.822 12.82C137.982 12.82 137.322 13.5 137.322 14.3C137.322 15.12 137.982 15.8 138.822 15.8ZM137.702 27H139.942V17.24H137.702V27Z" fill="white"/>
<path d="M147.551 27.16C150.551 27.16 152.671 25.1 152.671 22.14C152.671 19.14 150.551 17.1 147.551 17.1C144.471 17.1 142.431 19.26 142.431 22.14C142.431 25 144.471 27.16 147.551 27.16ZM147.551 25.1201C145.871 25.1201 144.711 23.8 144.711 22.14C144.711 20.44 145.851 19.12 147.551 19.12C149.151 19.12 150.391 20.34 150.391 22.14C150.391 23.9 149.131 25.1201 147.551 25.1201Z" fill="white"/>
<path opacity="0.9" d="M13.3333 13.3334C13.3333 5.9696 19.3028 4.60132e-05 26.6667 4.60132e-05C34.0305 4.60132e-05 40 5.9696 40 13.3334C40 20.6972 34.0305 26.6667 26.6667 26.6667C22.6656 26.6667 17.3343 26.6667 13.3333 26.6667C13.3333 23.304 13.3333 16.6962 13.3333 13.3334Z" fill="url(#paint0_angular_701_9580)"/>
<path d="M26.6667 26.6666C26.6667 34.0304 20.6972 40 13.3334 40C5.96954 40 0 34.0304 0 26.6666C0 19.3028 5.96954 13.3333 13.3334 13.3333C17.3344 13.3333 26.6667 13.3333 26.6667 13.3333C26.6667 13.3333 26.6667 23.3038 26.6667 26.6666Z" fill="url(#paint1_angular_701_9580)"/>
<rect x="13.1992" y="13.3" width="13.5" height="13.5" fill="#2A2C3A" fill-opacity="0.13"/>
<defs>
<radialGradient id="paint0_angular_701_9580" cx="0" cy="0" r="1" gradientUnits="userSpaceOnUse" gradientTransform="translate(26.6667 13.3334) rotate(-90) scale(13.3334)">
<stop stop-color="#4D78C6"/>
<stop offset="1" stop-color="#31558B"/>
</radialGradient>
<radialGradient id="paint1_angular_701_9580" cx="0" cy="0" r="1" gradientUnits="userSpaceOnUse" gradientTransform="translate(13.3334 26.6666) rotate(90) scale(13.3334)">
<stop stop-color="#6AF5BF"/>
<stop offset="1" stop-color="#0DB06F"/>
</radialGradient>
</defs>
</svg>
