<svg width="34" height="34" viewBox="0 0 34 34" fill="none" xmlns="http://www.w3.org/2000/svg">
<path fill-rule="evenodd" clip-rule="evenodd" d="M17.2549 34C26.5031 34 34.0002 26.3888 34.0002 17C34.0002 7.61117 26.5031 0 17.2549 0C8.00683 0 0.509766 7.61117 0.509766 17C0.509766 26.3888 8.00683 34 17.2549 34ZM17.2551 30.5169C24.6084 30.5169 30.5693 24.4652 30.5693 17.0001C30.5693 9.53492 24.6084 3.48323 17.2551 3.48323C9.90187 3.48323 3.94091 9.53492 3.94091 17.0001C3.94091 24.4652 9.90187 30.5169 17.2551 30.5169V30.5169Z" fill="white"/>
<path d="M8.09564 16.4377C12.5667 16.4377 16.1913 12.758 16.1913 8.21884C16.1913 3.67969 12.5667 0 8.09564 0C3.62454 0 0 3.67969 0 8.21884C0 12.758 3.62454 16.4377 8.09564 16.4377Z" fill="#0CD664"/>
</svg>
