<svg width="130" height="28" viewBox="0 0 130 28" fill="none" xmlns="http://www.w3.org/2000/svg">
<path d="M8.37951 26.7723C8.37951 26.2986 8.78349 25.9113 9.27806 25.9113C9.77262 25.9113 10.1766 26.2986 10.1766 26.7723C10.1766 27.2461 9.77262 27.6334 9.27806 27.6334C8.78349 27.6334 8.37951 27.2679 8.37951 26.7723ZM8.37951 1.16112C8.37951 0.687374 8.78349 0.300049 9.27806 0.300049C9.77262 0.300049 10.1766 0.687374 10.1766 1.16112C10.1766 1.63486 9.77262 2.02218 9.27806 2.02218C8.78349 2.02218 8.37951 1.65568 8.37951 1.16112ZM3.88677 5.4654C3.88677 4.99166 4.29075 4.60433 4.78532 4.60433C5.27988 4.60433 5.68386 4.99166 5.68386 5.4654C5.68386 5.93914 5.27988 6.32646 4.78532 6.32646C4.29075 6.32646 3.88677 5.95996 3.88677 5.4654ZM4.26889 9.76968C4.26889 9.4896 4.49378 9.27511 4.78532 9.27511C5.07685 9.27511 5.30175 9.49064 5.30175 9.76968C5.30175 10.0498 5.07685 10.2642 4.78532 10.2642C4.49378 10.2642 4.26889 10.0498 4.26889 9.76968ZM0 9.76968C0 9.61871 0.134313 9.4896 0.291533 9.4896C0.448753 9.4896 0.583067 9.61871 0.583067 9.76968C0.583067 9.92065 0.448753 10.0498 0.291533 10.0498C0.134313 10.0498 0 9.94252 0 9.76968ZM0 13.7949C0 13.6439 0.134313 13.5148 0.291533 13.5148C0.448753 13.5148 0.583067 13.6439 0.583067 13.7949C0.583067 13.9459 0.448753 14.075 0.291533 14.075C0.134313 14.075 0 13.9449 0 13.7949ZM0 18.3793C0 18.2283 0.134313 18.0992 0.291533 18.0992C0.448753 18.0992 0.583067 18.2283 0.583067 18.3793C0.583067 18.5303 0.448753 18.6594 0.291533 18.6594C0.134313 18.6594 0 18.5511 0 18.3793ZM4.26889 13.7949C4.26889 13.5148 4.49378 13.3004 4.78532 13.3004C5.07685 13.3004 5.30175 13.5159 5.30175 13.7949C5.30175 14.075 5.07685 14.2895 4.78532 14.2895C4.49378 14.2895 4.26889 14.074 4.26889 13.7949ZM4.26889 18.3793C4.26889 18.0992 4.49378 17.8847 4.78532 17.8847C5.07685 17.8847 5.30175 18.1002 5.30175 18.3793C5.30175 18.6594 5.07685 18.8738 4.78532 18.8738C4.49378 18.8738 4.26889 18.6583 4.26889 18.3793ZM3.88677 22.6836C3.88677 22.2098 4.29075 21.8225 4.78532 21.8225C5.27988 21.8225 5.68386 22.2098 5.68386 22.6836C5.68386 23.1573 5.27988 23.5446 4.78532 23.5446C4.29075 23.5446 3.88677 23.1781 3.88677 22.6836ZM7.77249 5.24987C7.77249 4.38881 8.46905 3.80782 9.27806 3.80782C10.1766 3.80782 10.7837 4.47523 10.7837 5.24987C10.7837 6.02452 10.0871 6.69192 9.27806 6.69192C8.37951 6.69192 7.77249 6.02452 7.77249 5.24987ZM12.7151 5.4654C12.7151 4.60433 13.4116 4.02335 14.2206 4.02335C15.1192 4.02335 15.7262 4.69075 15.7262 5.4654C15.7262 6.24004 15.0296 6.90745 14.2206 6.90745C13.3221 6.90745 12.7151 6.24004 12.7151 5.4654ZM12.7151 22.6836C12.7151 21.8225 13.4116 21.2415 14.2206 21.2415C15.1192 21.2415 15.7262 21.9089 15.7262 22.6836C15.7262 23.4582 15.0296 24.1256 14.2206 24.1256C13.3221 24.1256 12.7151 23.4582 12.7151 22.6836ZM12.7151 13.8595C12.7151 12.9984 13.4116 12.4174 14.2206 12.4174C15.1192 12.4174 15.7262 13.0848 15.7262 13.8595C15.7262 14.6341 15.0296 15.3015 14.2206 15.3015C13.3221 15.3015 12.7151 14.6341 12.7151 13.8595ZM7.77249 22.468C7.77249 21.607 8.46905 21.026 9.27806 21.026C10.1766 21.026 10.7837 21.6934 10.7837 22.468C10.7837 23.2427 10.0871 23.9101 9.27806 23.9101C8.37951 23.9101 7.77249 23.2427 7.77249 22.468ZM7.50283 9.33967C7.50283 8.30681 8.3337 7.6394 9.27702 7.6394C10.3557 7.6394 11.0512 8.43591 11.0512 9.33967C11.0512 10.2434 10.2203 11.0399 9.27702 11.0399C8.19938 11.0608 7.50283 10.2653 7.50283 9.33967ZM7.50283 18.3793C7.50283 17.3464 8.3337 16.679 9.27702 16.679C10.3557 16.679 11.0512 17.4755 11.0512 18.3793C11.0512 19.283 10.2203 20.0795 9.27702 20.0795C8.19938 20.1004 7.50283 19.3039 7.50283 18.3793ZM16.6466 10.3944C16.152 9.51146 16.4894 8.4786 17.3879 7.98404C18.3094 7.5103 19.387 7.83306 19.9035 8.69413C20.398 9.57706 20.0607 10.6099 19.1621 11.1045C18.9154 11.2555 18.578 11.3408 18.3313 11.3408C17.6347 11.3627 16.9611 10.9535 16.6466 10.3944ZM7.45806 14.7195C6.89685 13.7293 7.27793 12.5674 8.31183 12.0291C9.34469 11.4908 10.5588 11.8573 11.12 12.8464C11.6812 13.8366 11.3001 14.9985 10.2661 15.5368C9.97462 15.7086 9.61436 15.8169 9.32283 15.8169C8.5815 15.7961 7.81727 15.3661 7.45806 14.7195ZM16.3093 19.1748C15.7023 18.12 16.1073 16.8716 17.2078 16.2907C18.3084 15.7097 19.6119 16.097 20.2179 17.1517C20.8249 18.2064 20.4199 19.4548 19.3194 20.0358C19.0278 20.2295 18.6228 20.3159 18.3084 20.3159C17.5223 20.3159 16.7132 19.8422 16.3093 19.1748Z" fill="white"/>
<path d="M36.3981 20.4591H30.9121V7.38908H36.1951C37.6309 7.38908 38.7106 7.71393 39.4353 8.36468C40.1589 9.01542 40.5213 9.8744 40.5213 10.9416C40.5213 11.6288 40.3526 12.2244 40.0152 12.7273C39.6779 13.2302 39.2146 13.605 38.6252 13.8497C39.276 14.0704 39.7914 14.4421 40.1714 14.9637C40.5515 15.4854 40.742 16.0955 40.742 16.7952C40.742 17.9488 40.3682 18.8474 39.6196 19.4919C38.871 20.1374 37.7975 20.4591 36.3981 20.4591ZM36.3804 14.8627H33.1038V18.434H36.3617C37.785 18.434 38.4972 17.8385 38.4972 16.6484C38.4972 16.0841 38.3129 15.6447 37.9454 15.3323C37.5768 15.02 37.0551 14.8627 36.3804 14.8627ZM36.2149 9.4142H33.1038V12.8199H36.2149C37.5893 12.8199 38.2764 12.2556 38.2764 11.1259C38.2764 10.5855 38.1047 10.1659 37.7611 9.86503C37.4175 9.56517 36.9021 9.4142 36.2149 9.4142ZM41.8779 12.8564V10.9052H45.468V20.4591H43.2773V12.8564H41.8779ZM44.382 9.30383C43.977 9.30383 43.6459 9.17785 43.3877 8.92692C43.1294 8.67495 43.0014 8.35323 43.0014 7.9607C43.0014 7.55567 43.1305 7.22457 43.3877 6.96636C43.6459 6.70814 43.977 6.58008 44.382 6.58008C44.7745 6.58008 45.1004 6.70919 45.3576 6.96636C45.6148 7.22353 45.7439 7.55567 45.7439 7.9607C45.7439 8.35323 45.6148 8.67599 45.3576 8.92692C45.1004 9.17785 44.7745 9.30383 44.382 9.30383ZM52.2544 18.508V20.404C51.9848 20.4779 51.6037 20.5143 51.1133 20.5143C49.2475 20.5143 48.3156 19.5752 48.3156 17.6979V12.6544H46.8611V10.9052H48.3156V8.4209H50.5063V10.9062H52.2919V12.6554H50.5063V17.4782C50.5063 18.2268 50.8624 18.6006 51.5735 18.6006L52.2544 18.508ZM53.0582 15.6915C53.0582 14.2807 53.5059 13.0927 54.4024 12.1296C55.2978 11.1665 56.44 10.6845 57.8258 10.6845C59.1388 10.6845 60.1852 11.0562 60.964 11.7985C61.7428 12.5409 62.2061 13.3968 62.354 14.3661H60.1081C59.9728 13.8382 59.7 13.4155 59.2887 13.0958C58.8775 12.7772 58.3839 12.6169 57.8071 12.6169C57.0335 12.6169 56.414 12.9022 55.9475 13.4728C55.4811 14.0433 55.2479 14.7826 55.2479 15.6905C55.2479 16.5984 55.4811 17.3345 55.9475 17.8999C56.414 18.4653 57.0335 18.7464 57.8071 18.7464C58.3839 18.7464 58.8775 18.5871 59.2887 18.2674C59.7 17.9488 59.9728 17.5251 60.1081 16.9972H62.354C62.2072 17.9665 61.7438 18.8224 60.964 19.5648C60.1841 20.3071 59.1388 20.6788 57.8258 20.6788C56.439 20.6788 55.2978 20.1968 54.4024 19.2337C53.5059 18.2716 53.0582 17.0909 53.0582 15.6915ZM69.8401 16.3725C67.7047 16.3725 66.4532 16.4703 66.0846 16.6671C65.7045 16.8639 65.514 17.219 65.514 17.7344C65.514 18.5569 66.0596 18.9682 67.1528 18.9682C68.9447 18.9682 69.8401 18.2685 69.8401 16.8691V16.3725ZM66.7655 20.6799C65.6369 20.6799 64.7956 20.404 64.2437 19.8511C63.6919 19.2993 63.415 18.5683 63.415 17.6604C63.415 16.4943 63.9303 15.678 64.9611 15.2126C65.2068 15.1022 65.4432 15.0189 65.6702 14.9637C65.8972 14.9086 66.3605 14.8534 67.0602 14.7982C67.7598 14.743 68.6865 14.7149 69.8401 14.7149V14.236C69.8401 13.0698 69.1592 12.4868 67.7973 12.4868C66.6072 12.4868 65.9315 12.9595 65.7722 13.9038H63.6367C63.7346 12.9709 64.1251 12.2015 64.806 11.5934C65.4869 10.9864 66.5021 10.6824 67.8525 10.6824C69.2144 10.6824 70.242 10.9958 70.9355 11.6215C71.6289 12.2473 71.9756 13.125 71.9756 14.2537V20.4571H69.9505V19.445C69.2633 20.2686 68.2013 20.6799 66.7655 20.6799ZM77.6938 20.6799C76.3809 20.6799 75.3928 20.3727 74.7306 19.7595C74.0684 19.1462 73.7061 18.3601 73.6447 17.4033H75.7614C75.7864 17.8447 75.9759 18.2008 76.332 18.4705C76.6881 18.7401 77.1847 18.8755 77.823 18.8755C78.3873 18.8755 78.8235 18.7776 79.1297 18.5808C79.4368 18.3841 79.5899 18.1206 79.5899 17.7895C79.5899 17.421 79.4024 17.1482 79.0287 16.9701C78.6549 16.7921 78.1967 16.6598 77.6574 16.5745C77.117 16.488 76.5777 16.3746 76.0373 16.234C75.4969 16.0924 75.0399 15.8134 74.6661 15.3969C74.2923 14.9794 74.1049 14.4088 74.1049 13.6852C74.1049 12.8512 74.4516 12.1421 75.145 11.5591C75.8384 10.976 76.7557 10.6845 77.8969 10.6845C78.5476 10.6845 79.1213 10.7854 79.618 10.9885C80.1146 11.1905 80.5019 11.4581 80.7779 11.7892C81.0538 12.1203 81.263 12.4576 81.4036 12.8012C81.5452 13.1448 81.6275 13.4946 81.6525 13.8507H79.5534C79.517 13.4707 79.3535 13.1448 79.0651 12.8751C78.7767 12.6054 78.3685 12.4701 77.8407 12.4701C77.3128 12.4701 76.9078 12.5711 76.6256 12.7741C76.3434 12.9772 76.2018 13.2562 76.2018 13.6112C76.2018 13.9423 76.3892 14.1943 76.763 14.3661C77.1368 14.5379 77.5949 14.667 78.1343 14.7524C78.6747 14.8388 79.214 14.9575 79.7544 15.1116C80.2947 15.2657 80.7518 15.5562 81.1256 15.9862C81.4994 16.4162 81.6868 16.9868 81.6868 17.6979C81.6868 18.5569 81.3401 19.2691 80.6467 19.8334C79.9553 20.3977 78.9703 20.6799 77.6938 20.6799ZM82.5479 12.8564V10.9052H86.1379V20.4591H83.9472V12.8564H82.5479ZM85.0509 9.30383C84.6459 9.30383 84.3148 9.17785 84.0566 8.92692C83.7984 8.67599 83.6703 8.35323 83.6703 7.9607C83.6703 7.55567 83.7994 7.22457 84.0566 6.96636C84.3137 6.70814 84.6459 6.58008 85.0509 6.58008C85.4434 6.58008 85.7693 6.70919 86.0265 6.96636C86.2847 7.22457 86.4128 7.55567 86.4128 7.9607C86.4128 8.35323 86.2837 8.67599 86.0265 8.92692C85.7693 9.17785 85.4445 9.30383 85.0509 9.30383ZM90.6598 10.9052V12.1754C90.8805 11.7579 91.246 11.405 91.7551 11.1165C92.2643 10.8281 92.8807 10.6845 93.6053 10.6845C94.734 10.6845 95.6086 11.028 96.2281 11.7152C96.8476 12.4024 97.1579 13.3166 97.1579 14.4577V20.4591H94.9672V14.7347C94.9672 14.06 94.811 13.529 94.4976 13.1427C94.1842 12.7564 93.7094 12.5628 93.0712 12.5628C92.3715 12.5628 91.8228 12.771 91.424 13.1885C91.0252 13.606 90.8253 14.1829 90.8253 14.919V20.4602H88.6347V10.9062H90.6598V10.9052ZM103.908 20.6799C102.436 20.6799 101.241 20.1947 100.327 19.2253C99.4131 18.256 98.956 17.0774 98.956 15.6905C98.956 14.3036 99.4131 13.1229 100.327 12.1473C101.241 11.1717 102.435 10.6834 103.908 10.6834C105.392 10.6834 106.592 11.1717 107.506 12.1473C108.42 13.1229 108.877 14.3036 108.877 15.6905C108.877 17.0774 108.42 18.2549 107.506 19.2253C106.592 20.1957 105.392 20.6799 103.908 20.6799ZM101.147 15.6915C101.147 16.5995 101.407 17.3356 101.929 17.9009C102.45 18.4663 103.109 18.7474 103.908 18.7474C104.718 18.7474 105.383 18.4653 105.905 17.9009C106.426 17.3366 106.687 16.6005 106.687 15.6915C106.687 14.7711 106.426 14.0288 105.905 13.4644C105.383 12.9001 104.718 12.6179 103.908 12.6179C103.11 12.6179 102.45 12.9001 101.929 13.4644C101.407 14.0288 101.147 14.7711 101.147 15.6915ZM111.687 20.607C111.246 20.607 110.88 20.4685 110.592 20.1926C110.304 19.9167 110.16 19.5575 110.16 19.116C110.16 18.686 110.304 18.3278 110.592 18.0394C110.88 17.751 111.246 17.6073 111.687 17.6073C112.117 17.6073 112.476 17.751 112.764 18.0394C113.052 18.3278 113.196 18.687 113.196 19.116C113.196 19.5575 113.054 19.9167 112.772 20.1926C112.491 20.4685 112.13 20.607 111.687 20.607ZM114.162 12.8564V10.9052H117.752V20.4591H115.562V12.8564H114.162ZM116.665 9.30383C116.26 9.30383 115.929 9.17785 115.671 8.92692C115.413 8.67495 115.285 8.35323 115.285 7.9607C115.285 7.55567 115.414 7.22457 115.671 6.96636C115.929 6.70814 116.26 6.58008 116.665 6.58008C117.058 6.58008 117.384 6.70919 117.641 6.96636C117.899 7.22457 118.027 7.55567 118.027 7.9607C118.027 8.35323 117.898 8.67599 117.641 8.92692C117.384 9.17785 117.058 9.30383 116.665 9.30383ZM124.589 20.6799C123.117 20.6799 121.922 20.1947 121.008 19.2253C120.094 18.256 119.637 17.0774 119.637 15.6905C119.637 14.3036 120.094 13.1229 121.008 12.1473C121.922 11.1717 123.115 10.6834 124.589 10.6834C126.074 10.6834 127.273 11.1717 128.187 12.1473C129.101 13.1229 129.558 14.3036 129.558 15.6905C129.558 17.0774 129.101 18.2549 128.187 19.2253C127.273 20.1957 126.074 20.6799 124.589 20.6799ZM121.828 15.6915C121.828 16.5995 122.088 17.3356 122.609 17.9009C123.131 18.4663 123.79 18.7474 124.589 18.7474C125.399 18.7474 126.064 18.4653 126.586 17.9009C127.107 17.3366 127.368 16.6005 127.368 15.6915C127.368 14.7711 127.107 14.0288 126.586 13.4644C126.064 12.9001 125.399 12.6179 124.589 12.6179C123.791 12.6179 123.131 12.9001 122.609 13.4644C122.088 14.0288 121.828 14.7711 121.828 15.6915Z" fill="white"/>
</svg>
