<svg width="155" height="36" viewBox="0 0 155 36" fill="none" xmlns="http://www.w3.org/2000/svg">
<g clip-path="url(#clip0_670_16004)">
<path fill-rule="evenodd" clip-rule="evenodd" d="M13.5423 30.7C20.8007 30.7 26.6848 24.8349 26.6848 17.6C26.6848 10.3651 20.8007 4.5 13.5423 4.5C6.28395 4.5 0.399902 10.3651 0.399902 17.6C0.399902 24.8349 6.28395 30.7 13.5423 30.7ZM13.5424 28.0159C19.3136 28.0159 23.992 23.3526 23.992 17.6C23.992 11.8475 19.3136 7.18414 13.5424 7.18414C7.77126 7.18414 3.09282 11.8475 3.09282 17.6C3.09282 23.3526 7.77126 28.0159 13.5424 28.0159V28.0159Z" fill="#282A38"/>
<path d="M6.35383 17.1667C9.86297 17.1667 12.7077 14.3311 12.7077 10.8333C12.7077 7.33553 9.86297 4.5 6.35383 4.5C2.8447 4.5 0 7.33553 0 10.8333C0 14.3311 2.8447 17.1667 6.35383 17.1667Z" fill="#0CD664"/>
<path d="M36.385 14.1662C36.385 14.7995 36.7194 15.3328 37.3549 15.7328C37.9902 16.1328 39.0269 16.4661 40.4315 16.7662C42.2707 17.1328 43.6419 17.7662 44.5447 18.5661C45.4477 19.3994 45.8824 20.4994 45.8824 21.8662C45.8824 23.2661 45.3138 24.4995 44.1768 25.4662C43.0399 26.4662 41.535 26.9662 39.6623 26.9662C37.6893 26.9662 36.0841 26.4662 34.9136 25.4996C33.7432 24.5328 32.974 23.2328 32.6396 21.6329L35.4153 20.2328C35.9168 22.8661 37.3214 24.1995 39.6289 24.1995C40.5651 24.1995 41.3343 23.9994 41.8694 23.5662C42.438 23.1662 42.7055 22.5995 42.7055 21.9329C42.7055 21.1995 42.3711 20.6328 41.7023 20.2328C41.0334 19.8328 39.9967 19.4661 38.5588 19.1995C36.9536 18.8662 35.6828 18.2995 34.7465 17.4661C33.8101 16.6328 33.3419 15.5328 33.3419 14.1995C33.3419 12.8328 33.877 11.6995 34.9805 10.8661C36.0506 10.0328 37.4886 9.63281 39.2276 9.63281C42.4045 9.63281 44.5112 11.0661 45.5815 13.8995L43.1068 15.3328C42.438 13.3662 41.1337 12.3662 39.1607 12.3662C38.3581 12.3662 37.6893 12.4995 37.1542 12.7995C36.6526 13.1328 36.385 13.5661 36.385 14.1662V14.1662ZM47.1865 31.4995V14.8328H50.1963V16.5328C50.5976 15.9328 51.1995 15.4328 51.9018 15.0662C52.6375 14.6995 53.4401 14.4995 54.2761 14.4995C55.8144 14.4995 57.1187 15.0662 58.1553 16.1995C59.1919 17.3328 59.727 18.8328 59.727 20.7328C59.727 22.5995 59.1919 24.0995 58.0884 25.2328C56.9849 26.3995 55.6473 26.9662 54.0421 26.9662C52.4369 26.9662 51.1661 26.3661 50.1963 25.1661V31.4995H47.1865ZM55.7475 18.2995C55.1122 17.6328 54.3096 17.2995 53.3732 17.2995C52.4034 17.2995 51.6343 17.6328 50.9989 18.2995C50.3635 18.9661 50.0291 19.7661 50.0291 20.7328C50.0291 21.6994 50.3635 22.4994 50.9989 23.1662C51.6343 23.8328 52.4369 24.1662 53.3732 24.1662C54.343 24.1662 55.1122 23.8328 55.7475 23.1662C56.383 22.4994 56.7174 21.6994 56.7174 20.7328C56.6839 19.7661 56.383 18.9661 55.7475 18.2995ZM71.4984 16.1662C72.8025 17.2662 73.438 18.7995 73.438 20.7328C73.438 22.6662 72.8025 24.1995 71.5319 25.2995C70.2611 26.3995 68.7228 26.9662 66.9838 26.9662C65.2449 26.9662 63.7066 26.3995 62.4358 25.2995C61.165 24.1995 60.5296 22.6662 60.5296 20.7328C60.5296 18.7995 61.165 17.2662 62.4358 16.1662C63.7066 15.0662 65.2449 14.4995 66.9838 14.4995C68.7228 14.4995 70.2276 15.0662 71.4984 16.1662V16.1662ZM64.5761 23.2328C65.2449 23.8662 66.0475 24.1662 66.9838 24.1662C67.9202 24.1662 68.7228 23.8662 69.3916 23.2328C70.0603 22.5995 70.3947 21.7661 70.3947 20.7328C70.3947 19.6995 70.0603 18.8662 69.3916 18.2328C68.7228 17.5995 67.9202 17.2995 66.9838 17.2995C66.0475 17.2995 65.2449 17.5995 64.5761 18.2328C63.9072 18.8662 63.5728 19.6995 63.5728 20.7328C63.5728 21.7661 63.9072 22.5995 64.5761 23.2328ZM82.1996 14.6662V17.4328C81.8986 17.2662 81.096 17.3328 80.7616 17.3328C79.8921 17.3328 79.1899 17.6661 78.6882 18.3328C78.1866 18.9994 77.9191 19.8328 77.9191 20.8329V26.6662H74.9094V14.8328H77.9191V16.6995C78.6548 15.2328 79.7583 14.4995 81.2298 14.4995C81.5308 14.4995 81.8652 14.5662 82.1996 14.6662V14.6662ZM83.6709 14.8328V11.6328H86.6806V14.8328H89.2557V17.2662H86.6806V22.6328C86.6806 23.7328 87.1823 24.2995 88.1856 24.2995C88.52 24.2995 88.8544 24.2662 89.1888 24.1662L89.4897 26.6329C88.8878 26.8662 88.2189 26.9662 87.4832 26.9662C84.9417 26.9662 83.7044 25.6995 83.7044 23.1994V17.2662L83.6709 14.8328V14.8328ZM93.3689 17.7328C93.3689 18.4662 94.3053 19.0328 96.178 19.3994C97.549 19.6995 98.5523 20.1328 99.1877 20.6995C99.8231 21.2661 100.124 22.0661 100.124 23.0328C100.124 24.1662 99.6893 25.0995 98.8533 25.8662C98.0172 26.5995 96.8802 26.9662 95.4423 26.9662C94.0711 26.9662 92.9342 26.6329 92.0313 25.9661C91.1284 25.2995 90.4596 24.4661 90.0248 23.4328L92.4326 21.8995C92.7001 22.6662 93.1014 23.2995 93.6031 23.7662C94.1046 24.2328 94.7401 24.4661 95.4758 24.4661C95.9773 24.4661 96.412 24.3661 96.7799 24.1328C97.1477 23.8995 97.3485 23.5662 97.3485 23.1662C97.3485 22.7996 97.1477 22.4661 96.7464 22.2662C96.3451 22.0329 95.7098 21.8328 94.8068 21.6661C92.0648 21.1328 90.6936 19.8995 90.6936 17.9662C90.6936 16.8995 91.1284 16.0662 91.9979 15.4661C92.8672 14.8662 93.904 14.5662 95.1414 14.5662C96.412 14.5662 97.4154 14.7995 98.151 15.2661C98.8867 15.7328 99.5221 16.4995 100.024 17.5328L97.8501 18.8328C97.315 17.4661 96.412 16.7662 95.1748 16.7662C93.9709 16.6995 93.3689 17.0328 93.3689 17.7328V17.7328ZM101.194 26.6329V9.96615H104.204V16.2662C105.14 15.0662 106.444 14.4662 108.083 14.4662C109.722 14.4662 111.059 15.0328 112.129 16.1328C113.2 17.2662 113.735 18.7662 113.735 20.6995C113.735 22.5995 113.2 24.1328 112.096 25.2328C110.993 26.3661 109.655 26.9328 108.05 26.9328C106.378 26.9328 105.073 26.3328 104.204 25.1328V26.5995H101.194V26.6329ZM104.973 23.2328C105.608 23.8662 106.411 24.1995 107.381 24.1995C108.351 24.1995 109.153 23.8662 109.789 23.2328C110.424 22.5995 110.725 21.7661 110.725 20.7662C110.725 19.7661 110.424 18.9329 109.789 18.2995C109.153 17.6662 108.351 17.3328 107.381 17.3328C106.411 17.3328 105.608 17.6662 104.973 18.2995C104.338 18.9329 104.037 19.7661 104.037 20.7662C104.037 21.7328 104.338 22.5661 104.973 23.2328ZM126.509 21.4662H117.38C117.48 22.3662 117.814 23.0995 118.416 23.6328C119.018 24.1662 119.754 24.4328 120.624 24.4328C122.095 24.4328 123.165 23.6995 123.901 22.2662L126.141 23.5662C125.038 25.8662 123.165 27.0329 120.59 27.0329C118.918 27.0329 117.48 26.4662 116.276 25.2995C115.106 24.1328 114.504 22.6328 114.504 20.7995C114.504 18.9661 115.106 17.4661 116.31 16.2995C117.514 15.1328 118.985 14.5662 120.724 14.5662C122.396 14.5662 123.801 15.1328 124.871 16.2328C125.941 17.3328 126.509 18.7662 126.509 20.4662V21.4662ZM120.657 16.7995C119.888 16.7995 119.186 17.0328 118.617 17.4995C118.048 17.9661 117.647 18.5661 117.413 19.2662H123.767C123.633 18.4995 123.265 17.8662 122.73 17.4328C122.195 16.9995 121.493 16.7995 120.657 16.7995V16.7995ZM127.479 14.8328V11.6328H130.489V14.8328H133.064V17.2662H130.489V22.6328C130.489 23.7328 130.99 24.2995 131.994 24.2995C132.328 24.2995 132.662 24.2662 132.997 24.1662L133.298 26.6329C132.696 26.8662 132.027 26.9662 131.291 26.9662C128.75 26.9662 127.512 25.6995 127.512 23.1994V17.2662L127.479 14.8328V14.8328ZM135.806 26.6329C136.676 26.6329 137.411 25.9328 137.411 25.0329C137.411 24.1662 136.708 23.4328 135.806 23.4328C134.936 23.4328 134.201 24.1328 134.201 25.0329C134.201 25.9328 134.936 26.6329 135.806 26.6329ZM138.748 26.6329V14.8328H141.759V26.6329H138.748ZM153.764 16.1662C155.068 17.2662 155.703 18.7995 155.703 20.7328C155.703 22.6662 155.068 24.1995 153.798 25.2995C152.526 26.3995 150.988 26.9662 149.249 26.9662C147.511 26.9662 145.972 26.3995 144.701 25.2995C143.43 24.1995 142.795 22.6662 142.795 20.7328C142.795 18.7995 143.43 17.2662 144.701 16.1662C145.972 15.0662 147.511 14.4995 149.249 14.4995C150.988 14.4995 152.46 15.0662 153.764 16.1662V16.1662ZM146.808 23.2328C147.477 23.8662 148.279 24.1662 149.216 24.1662C150.152 24.1662 150.955 23.8662 151.624 23.2328C152.292 22.5995 152.626 21.7661 152.626 20.7328C152.626 19.6995 152.292 18.8662 151.624 18.2328C150.955 17.5995 150.152 17.2995 149.216 17.2995C148.279 17.2995 147.477 17.5995 146.808 18.2328C146.139 18.8662 145.804 19.6995 145.804 20.7328C145.804 21.7661 146.139 22.5995 146.808 23.2328Z" fill="#282A38"/>
<path d="M138.576 11.5632C138.576 12.4645 139.313 13.1655 140.184 13.1655C141.055 13.1655 141.79 12.4645 141.79 11.5632C141.79 10.6619 141.055 9.96094 140.184 9.96094C139.279 9.96094 138.576 10.6619 138.576 11.5632V11.5632Z" fill="#0CD664"/>
</g>
<defs>
<clipPath id="clip0_670_16004">
<rect width="155" height="36" fill="white"/>
</clipPath>
</defs>
</svg>
