<svg width="135" height="29" viewBox="0 0 135 29" fill="none" xmlns="http://www.w3.org/2000/svg">
<g clip-path="url(#clip0_943_10203)">
<path d="M9.32582 27.8879C9.32582 27.3983 9.74327 26.9981 10.2543 26.9981C10.7654 26.9981 11.1828 27.3983 11.1828 27.8879C11.1828 28.3774 10.7654 28.7776 10.2543 28.7776C9.74327 28.7776 9.32582 28.4 9.32582 27.8879ZM9.32582 1.42297C9.32582 0.933439 9.74327 0.533203 10.2543 0.533203C10.7654 0.533203 11.1828 0.933439 11.1828 1.42297C11.1828 1.91251 10.7654 2.31274 10.2543 2.31274C9.74327 2.31274 9.32582 1.93402 9.32582 1.42297ZM4.68332 5.87073C4.68332 5.3812 5.10077 4.98096 5.61182 4.98096C6.12287 4.98096 6.54032 5.3812 6.54032 5.87073C6.54032 6.36026 6.12287 6.7605 5.61182 6.7605C5.10077 6.7605 4.68332 6.38178 4.68332 5.87073ZM5.07817 10.3185C5.07817 10.0291 5.31057 9.80744 5.61182 9.80744C5.91307 9.80744 6.14546 10.0301 6.14546 10.3185C6.14546 10.6079 5.91307 10.8295 5.61182 10.8295C5.31057 10.8295 5.07817 10.6079 5.07817 10.3185ZM0.666992 10.3185C0.666992 10.1625 0.805782 10.0291 0.968243 10.0291C1.1307 10.0291 1.2695 10.1625 1.2695 10.3185C1.2695 10.4745 1.1307 10.6079 0.968243 10.6079C0.805782 10.6079 0.666992 10.4971 0.666992 10.3185ZM0.666992 14.4779C0.666992 14.3219 0.805782 14.1885 0.968243 14.1885C1.1307 14.1885 1.2695 14.3219 1.2695 14.4779C1.2695 14.6339 1.1307 14.7673 0.968243 14.7673C0.805782 14.7673 0.666992 14.6328 0.666992 14.4779ZM0.666992 19.2151C0.666992 19.0591 0.805782 18.9257 0.968243 18.9257C1.1307 18.9257 1.2695 19.0591 1.2695 19.2151C1.2695 19.3711 1.1307 19.5045 0.968243 19.5045C0.805782 19.5045 0.666992 19.3926 0.666992 19.2151ZM5.07817 14.4779C5.07817 14.1885 5.31057 13.9669 5.61182 13.9669C5.91307 13.9669 6.14546 14.1896 6.14546 14.4779C6.14546 14.7673 5.91307 14.989 5.61182 14.989C5.31057 14.989 5.07817 14.7662 5.07817 14.4779ZM5.07817 19.2151C5.07817 18.9257 5.31057 18.704 5.61182 18.704C5.91307 18.704 6.14546 18.9267 6.14546 19.2151C6.14546 19.5045 5.91307 19.7261 5.61182 19.7261C5.31057 19.7261 5.07817 19.5034 5.07817 19.2151ZM4.68332 23.6628C4.68332 23.1733 5.10077 22.7731 5.61182 22.7731C6.12287 22.7731 6.54032 23.1733 6.54032 23.6628C6.54032 24.1524 6.12287 24.5526 5.61182 24.5526C5.10077 24.5526 4.68332 24.1739 4.68332 23.6628ZM8.69857 5.64802C8.69857 4.75825 9.41835 4.1579 10.2543 4.1579C11.1828 4.1579 11.8101 4.84755 11.8101 5.64802C11.8101 6.44849 11.0903 7.13814 10.2543 7.13814C9.32582 7.13814 8.69857 6.44849 8.69857 5.64802ZM13.8059 5.87073C13.8059 4.98096 14.5257 4.38061 15.3616 4.38061C16.2901 4.38061 16.9174 5.07026 16.9174 5.87073C16.9174 6.6712 16.1976 7.36085 15.3616 7.36085C14.4331 7.36085 13.8059 6.6712 13.8059 5.87073ZM13.8059 23.6628C13.8059 22.7731 14.5257 22.1727 15.3616 22.1727C16.2901 22.1727 16.9174 22.8624 16.9174 23.6628C16.9174 24.4633 16.1976 25.153 15.3616 25.153C14.4331 25.153 13.8059 24.4633 13.8059 23.6628ZM13.8059 14.5446C13.8059 13.6548 14.5257 13.0545 15.3616 13.0545C16.2901 13.0545 16.9174 13.7441 16.9174 14.5446C16.9174 15.3451 16.1976 16.0347 15.3616 16.0347C14.4331 16.0347 13.8059 15.3451 13.8059 14.5446ZM8.69857 23.4401C8.69857 22.5504 9.41835 21.95 10.2543 21.95C11.1828 21.95 11.8101 22.6397 11.8101 23.4401C11.8101 24.2406 11.0903 24.9302 10.2543 24.9302C9.32582 24.9302 8.69857 24.2406 8.69857 23.4401ZM8.41991 9.87414C8.41991 8.80685 9.27848 8.1172 10.2532 8.1172C11.3679 8.1172 12.0866 8.94026 12.0866 9.87414C12.0866 10.808 11.228 11.6311 10.2532 11.6311C9.13969 11.6526 8.41991 10.8306 8.41991 9.87414ZM8.41991 19.2151C8.41991 18.1478 9.27848 17.4581 10.2532 17.4581C11.3679 17.4581 12.0866 18.2812 12.0866 19.2151C12.0866 20.149 11.228 20.972 10.2532 20.972C9.13969 20.9935 8.41991 20.1705 8.41991 19.2151ZM17.8685 10.964C17.3574 10.0517 17.706 8.98438 18.6345 8.47332C19.5867 7.98379 20.7003 8.31732 21.2339 9.20709C21.7449 10.1194 21.3964 11.1867 20.4679 11.6978C20.2129 11.8538 19.8643 11.942 19.6093 11.942C18.8895 11.9646 18.1934 11.5418 17.8685 10.964ZM8.37365 15.4333C7.79374 14.4101 8.18752 13.2094 9.25588 12.6532C10.3232 12.0969 11.5777 12.4757 12.1576 13.4978C12.7375 14.5209 12.3438 15.7216 11.2753 16.2779C10.9741 16.4554 10.6018 16.5673 10.3006 16.5673C9.53454 16.5458 8.74483 16.1014 8.37365 15.4333ZM17.5199 20.0371C16.8927 18.9472 17.3112 17.6572 18.4484 17.0568C19.5856 16.4565 20.9326 16.8567 21.5588 17.9466C22.1861 19.0365 21.7675 20.3265 20.6303 20.9268C20.3291 21.1269 19.9105 21.2162 19.5856 21.2162C18.7733 21.2162 17.9373 20.7267 17.5199 20.0371Z" fill="#FF5111"/>
<path d="M38.2783 21.3656H32.6094V7.8599H38.0685C39.5521 7.8599 40.6678 8.19558 41.4167 8.86801C42.1644 9.54045 42.5388 10.4281 42.5388 11.5309C42.5388 12.2409 42.3645 12.8564 42.0159 13.376C41.6674 13.8957 41.1886 14.283 40.5796 14.5358C41.2521 14.7639 41.7846 15.148 42.1773 15.687C42.57 16.2261 42.7669 16.8565 42.7669 17.5796C42.7669 18.7716 42.3807 19.7001 41.6071 20.3661C40.8335 21.0332 39.7243 21.3656 38.2783 21.3656ZM38.26 15.5827H34.8741V19.273H38.2406C39.7114 19.273 40.4473 18.6576 40.4473 17.4278C40.4473 16.8447 40.2569 16.3907 39.8771 16.0679C39.4962 15.7451 38.9572 15.5827 38.26 15.5827ZM38.0889 9.95252H34.8741V13.4718H38.0889C39.5091 13.4718 40.2192 12.8886 40.2192 11.7213C40.2192 11.1629 40.0417 10.7293 39.6866 10.4184C39.3316 10.1085 38.799 9.95252 38.0889 9.95252ZM43.9407 13.5094V11.4932H47.6504V21.3656H45.3867V13.5094H43.9407ZM46.5283 9.83847C46.1097 9.83847 45.7676 9.70829 45.5008 9.449C45.2339 9.18863 45.1016 8.85618 45.1016 8.45057C45.1016 8.03204 45.235 7.68991 45.5008 7.42308C45.7676 7.15626 46.1097 7.02393 46.5283 7.02393C46.9339 7.02393 47.2706 7.15734 47.5364 7.42308C47.8021 7.68883 47.9355 8.03204 47.9355 8.45057C47.9355 8.85618 47.8021 9.18971 47.5364 9.449C47.2706 9.70829 46.9339 9.83847 46.5283 9.83847ZM54.6631 19.3494V21.3086C54.3845 21.385 53.9907 21.4227 53.4839 21.4227C51.5559 21.4227 50.593 20.4522 50.593 18.5124V13.3007H49.09V11.4932H50.593V8.92611H52.8567V11.4943H54.7018V13.3018H52.8567V18.2853C52.8567 19.0589 53.2246 19.4452 53.9595 19.4452L54.6631 19.3494ZM55.4937 16.4391C55.4937 14.9813 55.9563 13.7537 56.8827 12.7585C57.808 11.7633 58.9882 11.2651 60.4202 11.2651C61.7769 11.2651 62.8582 11.6492 63.663 12.4163C64.4678 13.1834 64.9465 14.0678 65.0993 15.0695H62.7786C62.6387 14.524 62.3569 14.0872 61.9319 13.7569C61.5069 13.4277 60.9969 13.262 60.4009 13.262C59.6015 13.262 58.9613 13.5568 58.4793 14.1464C57.9973 14.736 57.7563 15.4998 57.7563 16.438C57.7563 17.3762 57.9973 18.1369 58.4793 18.7211C58.9613 19.3053 59.6015 19.5958 60.4009 19.5958C60.9969 19.5958 61.5069 19.4312 61.9319 19.1009C62.3569 18.7716 62.6387 18.3338 62.7786 17.7883H65.0993C64.9476 18.7899 64.4688 19.6743 63.663 20.4414C62.8571 21.2085 61.7769 21.5926 60.4202 21.5926C58.9871 21.5926 57.808 21.0945 56.8827 20.0993C55.9563 19.1052 55.4937 17.8851 55.4937 16.4391ZM72.835 17.1427C70.6283 17.1427 69.3351 17.2439 68.9543 17.4472C68.5615 17.6506 68.3647 18.0174 68.3647 18.55C68.3647 19.4 68.9284 19.8249 70.0581 19.8249C71.9097 19.8249 72.835 19.1019 72.835 17.6559V17.1427ZM69.6579 21.5937C68.4916 21.5937 67.6223 21.3086 67.0521 20.7373C66.4818 20.1671 66.1957 19.4118 66.1957 18.4736C66.1957 17.2686 66.7282 16.4251 67.7934 15.9442C68.0473 15.8301 68.2915 15.7441 68.526 15.687C68.7606 15.63 69.2394 15.573 69.9624 15.516C70.6854 15.459 71.6429 15.4299 72.835 15.4299V14.935C72.835 13.73 72.1314 13.1275 70.7241 13.1275C69.4944 13.1275 68.7961 13.6159 68.6315 14.5918H66.4248C66.526 13.6278 66.9294 12.8327 67.6331 12.2044C68.3367 11.5771 69.3857 11.263 70.7811 11.263C72.1884 11.263 73.2503 11.5868 73.9669 12.2334C74.6834 12.88 75.0417 13.787 75.0417 14.9533V21.3635H72.9491V20.3177C72.239 21.1687 71.1416 21.5937 69.6579 21.5937ZM80.9505 21.5937C79.5938 21.5937 78.5728 21.2763 77.8885 20.6426C77.2042 20.0089 76.8298 19.1966 76.7663 18.2079H78.9536C78.9795 18.6641 79.1753 19.032 79.5432 19.3107C79.9112 19.5893 80.4244 19.7292 81.0839 19.7292C81.6671 19.7292 82.1179 19.6281 82.4342 19.4247C82.7516 19.2214 82.9097 18.9492 82.9097 18.607C82.9097 18.2262 82.716 17.9443 82.3298 17.7603C81.9436 17.5763 81.4702 17.4397 80.9128 17.3515C80.3545 17.2622 79.7971 17.1449 79.2388 16.9996C78.6804 16.8533 78.208 16.565 77.8218 16.1346C77.4356 15.7032 77.2419 15.1136 77.2419 14.3658C77.2419 13.5041 77.6002 12.7714 78.3167 12.1689C79.0333 11.5664 79.9811 11.2651 81.1603 11.2651C81.8327 11.2651 82.4256 11.3695 82.9388 11.5793C83.452 11.788 83.8522 12.0645 84.1373 12.4066C84.4224 12.7488 84.6387 13.0974 84.7839 13.4524C84.9302 13.8075 85.0152 14.169 85.0411 14.5369H82.8721C82.8344 14.1442 82.6655 13.8075 82.3675 13.5288C82.0694 13.2501 81.6477 13.1103 81.1022 13.1103C80.5567 13.1103 80.1382 13.2146 79.8466 13.4244C79.5551 13.6342 79.4087 13.9226 79.4087 14.2895C79.4087 14.6316 79.6024 14.892 79.9887 15.0695C80.3749 15.247 80.8483 15.3804 81.4056 15.4686C81.964 15.5579 82.5213 15.6806 83.0797 15.8398C83.6381 15.9991 84.1104 16.2992 84.4967 16.7436C84.8829 17.1879 85.0766 17.7775 85.0766 18.5124C85.0766 19.4 84.7183 20.1359 84.0018 20.719C83.2874 21.3022 82.2696 21.5937 80.9505 21.5937ZM85.9663 13.5094V11.4932H89.676V21.3656H87.4123V13.5094H85.9663ZM88.5528 9.83847C88.1343 9.83847 87.7921 9.70829 87.5253 9.449C87.2585 9.18971 87.1262 8.85618 87.1262 8.45057C87.1262 8.03204 87.2596 7.68991 87.5253 7.42308C87.7911 7.15626 88.1343 7.02393 88.5528 7.02393C88.9584 7.02393 89.2952 7.15734 89.5609 7.42308C89.8277 7.68991 89.9601 8.03204 89.9601 8.45057C89.9601 8.85618 89.8267 9.18971 89.5609 9.449C89.2952 9.70829 88.9595 9.83847 88.5528 9.83847ZM94.3486 11.4932V12.8058C94.5767 12.3744 94.9544 12.0096 95.4805 11.7116C96.0066 11.4136 96.6435 11.2651 97.3924 11.2651C98.5586 11.2651 99.4624 11.6202 100.103 12.3302C100.743 13.0403 101.063 13.985 101.063 15.1642V21.3656H98.7996V15.4503C98.7996 14.7532 98.6383 14.2045 98.3144 13.8053C97.9906 13.4061 97.5 13.206 96.8404 13.206C96.1174 13.206 95.5504 13.4212 95.1384 13.8526C94.7263 14.2841 94.5197 14.8801 94.5197 15.6408V21.3667H92.256V11.4943H94.3486V11.4932ZM108.038 21.5937C106.517 21.5937 105.283 21.0924 104.338 20.0907C103.394 19.089 102.921 17.8711 102.921 16.438C102.921 15.0049 103.394 13.7849 104.338 12.7767C105.283 11.7686 106.516 11.264 108.038 11.264C109.572 11.264 110.812 11.7686 111.756 12.7767C112.701 13.7849 113.173 15.0049 113.173 16.438C113.173 17.8711 112.701 19.088 111.756 20.0907C110.812 21.0934 109.572 21.5937 108.038 21.5937ZM105.185 16.4391C105.185 17.3773 105.454 18.1379 105.993 18.7222C106.532 19.3064 107.213 19.5969 108.038 19.5969C108.875 19.5969 109.563 19.3053 110.102 18.7222C110.641 18.139 110.91 17.3784 110.91 16.4391C110.91 15.488 110.641 14.7209 110.102 14.1378C109.563 13.5546 108.875 13.2631 108.038 13.2631C107.214 13.2631 106.532 13.5546 105.993 14.1378C105.454 14.7209 105.185 15.488 105.185 16.4391ZM116.077 21.5184C115.621 21.5184 115.243 21.3753 114.945 21.0902C114.647 20.8051 114.499 20.4339 114.499 19.9777C114.499 19.5334 114.647 19.1633 114.945 18.8652C115.243 18.5672 115.621 18.4188 116.077 18.4188C116.521 18.4188 116.892 18.5672 117.19 18.8652C117.488 19.1633 117.636 19.5345 117.636 19.9777C117.636 20.4339 117.49 20.8051 117.198 21.0902C116.908 21.3753 116.534 21.5184 116.077 21.5184ZM118.635 13.5094V11.4932H122.344V21.3656H120.081V13.5094H118.635ZM121.221 9.83847C120.802 9.83847 120.46 9.70829 120.194 9.449C119.927 9.18863 119.794 8.85618 119.794 8.45057C119.794 8.03204 119.928 7.68991 120.194 7.42308C120.46 7.15626 120.802 7.02393 121.221 7.02393C121.627 7.02393 121.963 7.15734 122.229 7.42308C122.496 7.68991 122.628 8.03204 122.628 8.45057C122.628 8.85618 122.495 9.18971 122.229 9.449C121.963 9.70829 121.627 9.83847 121.221 9.83847ZM129.409 21.5937C127.887 21.5937 126.653 21.0924 125.709 20.0907C124.764 19.089 124.292 17.8711 124.292 16.438C124.292 15.0049 124.764 13.7849 125.709 12.7767C126.653 11.7686 127.886 11.264 129.409 11.264C130.943 11.264 132.182 11.7686 133.127 12.7767C134.072 13.7849 134.544 15.0049 134.544 16.438C134.544 17.8711 134.072 19.088 133.127 20.0907C132.182 21.0934 130.943 21.5937 129.409 21.5937ZM126.555 16.4391C126.555 17.3773 126.824 18.1379 127.363 18.7222C127.902 19.3064 128.583 19.5969 129.409 19.5969C130.246 19.5969 130.933 19.3053 131.472 18.7222C132.011 18.139 132.28 17.3784 132.28 16.4391C132.28 15.488 132.011 14.7209 131.472 14.1378C130.933 13.5546 130.246 13.2631 129.409 13.2631C128.584 13.2631 127.902 13.5546 127.363 14.1378C126.824 14.7209 126.555 15.488 126.555 16.4391Z" fill="white"/>
</g>
<defs>
<clipPath id="clip0_943_10203">
<rect width="133.877" height="28.2444" fill="white" transform="translate(0.666992 0.533203)"/>
</clipPath>
</defs>
</svg>
