<svg width="68" height="28" viewBox="0 0 68 28" fill="none" xmlns="http://www.w3.org/2000/svg">
<path d="M26.0244 11.9872C24.6749 10.5318 22.9929 9.8125 20.9594 9.8125C19.1372 9.8125 17.5601 10.3772 16.2803 11.5078C14.8434 12.7752 14.125 14.4025 14.125 16.3378C14.125 18.0158 14.6857 19.4712 15.8077 20.6712C17.1566 22.1265 18.8393 22.8458 20.9249 22.8458C22.7125 22.8458 24.2368 22.2805 25.5159 21.1498C26.9704 19.8658 27.6895 18.2898 27.6895 16.4232C27.6895 14.6765 27.1282 13.1865 26.0238 11.9872H26.0244Z" fill="white"/>
<path d="M48.6309 21.3193C48.6309 22.21 47.8949 22.9127 46.9834 22.9127C46.7687 22.9134 46.556 22.8722 46.3576 22.7915C46.1592 22.7107 45.979 22.5921 45.8274 22.4424C45.6758 22.2927 45.5559 22.1149 45.4746 21.9192C45.3933 21.7236 45.3521 21.5141 45.3536 21.3027C45.3536 20.874 45.5296 20.5147 45.8445 20.1893C45.9928 20.0405 46.1701 19.9228 46.3659 19.8433C46.5616 19.7638 46.7717 19.7241 46.9834 19.7267C47.8949 19.744 48.6309 20.4467 48.6309 21.32V21.3193Z" fill="white"/>
<path d="M53.1688 10.0703V22.607H50.6973V10.807L53.1688 10.0703Z" fill="white"/>
<path d="M65.9804 11.8343C67.137 13.0843 67.7152 14.5743 67.7152 16.3209C67.7152 18.3596 66.9616 20.0036 65.4895 21.3223C64.2632 22.4183 62.7734 22.9663 61.0562 22.9663C59.0586 22.9663 57.4111 22.2643 56.1144 20.8596C54.9572 19.6096 54.3789 18.0683 54.3789 16.2869C54.3789 14.3176 55.1326 12.6563 56.6047 11.3376C57.8317 10.2416 59.3559 9.71094 61.1612 9.71094C63.0538 9.71094 64.6661 10.4129 65.9804 11.8343ZM58.8833 12.4849C57.5337 13.2729 56.8674 14.5403 56.8674 16.3216C56.8674 17.7949 57.3414 18.9416 58.2874 19.7636C59.058 20.4489 59.987 20.7743 61.0562 20.7743C62.2825 20.7743 63.2989 20.3463 64.1054 19.4896C64.859 18.7023 65.2267 17.6403 65.2267 16.3043C65.2267 14.8483 64.7534 13.7356 63.825 12.9136C63.0538 12.2283 62.1254 11.9029 61.021 11.9029C60.2321 11.9029 59.5137 12.0909 58.8833 12.4849Z" fill="white"/>
<path d="M53.6069 6.62667C53.6069 7.072 53.4491 7.44933 53.1329 7.75733C52.818 8.08267 52.4151 8.23733 51.9418 8.23733C50.9958 8.23733 50.2598 7.51733 50.2598 6.59267C50.2598 6.14733 50.4345 5.77067 50.75 5.46267C51.0656 5.15333 51.4691 5 51.9242 5C52.8708 5 53.6069 5.71933 53.6069 6.62667Z" fill="white"/>
<path d="M10.5152 7.08823L10.4624 7.12223V22.6056H12.934V6.35156L10.5152 7.08823ZM6.27427 15.5316L5.04729 15.0689C4.15346 14.7436 3.61039 14.4869 3.36526 14.2642C3.12014 14.0756 3.0145 13.7676 3.0145 13.3736C3.0145 12.4829 3.76816 11.8496 4.87258 11.8496C5.59035 11.8496 6.22145 12.1922 6.78213 12.8769L8.97336 12.2089C8.04432 10.5476 6.69477 9.7089 4.94233 9.7089C3.76816 9.7089 2.76938 10.0682 1.92836 10.7702C1.10428 11.4556 0.701382 12.3462 0.701382 13.4422C0.701382 14.9489 1.61282 16.0456 3.41808 16.7136L4.76695 17.2269C5.60864 17.5356 6.16863 17.8096 6.43204 18.0489C6.67717 18.2716 6.81801 18.5802 6.81801 18.9909C6.81801 19.4362 6.65956 19.8309 6.34401 20.1902C5.99393 20.6009 5.46847 20.8062 4.76695 20.8062C3.66321 20.8062 2.9969 20.3102 2.24391 18.8882L0.0878906 19.5562C0.982396 21.8522 2.54186 22.9989 4.71481 22.9989C5.97633 22.9989 7.04553 22.6222 7.90415 21.8682C8.81559 21.0809 9.27063 20.0876 9.27063 18.9056C9.2537 17.3296 8.3768 16.3189 6.27427 15.5316Z" fill="white"/>
<path d="M3.27741 10.4788C3.27741 11.3702 2.54135 12.0722 1.62992 12.0722C1.41522 12.0729 1.20251 12.0317 1.00408 11.951C0.805658 11.8702 0.625454 11.7516 0.473891 11.6019C0.322328 11.4522 0.202412 11.2744 0.121078 11.0787C0.0397431 10.8831 -0.00139694 10.6736 3.61939e-05 10.4622C3.61939e-05 10.0342 0.175416 9.67418 0.490965 9.34885C0.639307 9.20014 0.816695 9.08254 1.01244 9.00314C1.20818 8.92374 1.41823 8.88418 1.62992 8.88685C2.54135 8.88685 3.27741 9.58885 3.27741 10.4795V10.4788Z" fill="white"/>
<path d="M33.2443 20.7548C32.9111 20.7548 32.666 20.7208 32.4561 20.6522C32.4385 20.6522 32.4209 20.6355 32.4032 20.6355C32.1933 20.5668 32.0003 20.4982 31.7721 20.2415C31.3869 19.7962 31.4573 18.6148 31.4573 18.3915L31.4221 13.6302V12.2262L31.3692 11.3355V11.1302L31.4397 10.0682V6.4375L28.9681 7.19083V10.0508L28.9512 11.3355L28.9688 12.2262L28.9512 18.6315V19.0255C28.9512 20.4642 29.266 21.2002 29.8795 21.8515C30.4578 22.4675 31.6144 22.8782 32.561 22.9302H32.7188C32.8414 22.9475 32.9463 22.9475 33.0689 22.9475L35.3123 20.7548H33.2443Z" fill="white"/>
<path d="M41.1653 15.5343L39.9383 15.0716C39.0445 14.7463 38.5014 14.4896 38.2563 14.2669C38.0112 14.0783 37.9055 13.7703 37.9055 13.3763C37.9055 12.4856 38.6592 11.8523 39.7636 11.8523C40.4814 11.8523 41.1125 12.1949 41.6732 12.8623L43.8644 12.1943C42.9353 10.5336 41.5858 9.71094 39.8334 9.71094C38.6592 9.71094 37.6604 10.0709 36.8194 10.7729C35.9953 11.4583 35.5924 12.3489 35.5924 13.4449C35.5924 14.9516 36.5038 16.0483 38.3091 16.7163L39.658 17.2296C40.499 17.5383 41.0597 17.8123 41.3231 18.0516C41.5682 18.2743 41.709 18.5829 41.709 18.9936C41.709 19.4389 41.5506 19.8336 41.235 20.1929C40.885 20.6036 40.3588 20.8089 39.658 20.8089L37.3977 20.7923L35.1543 22.9843H37.6956C38.0985 23.0016 38.5014 22.9843 38.9219 22.9843H39.6228C40.885 22.9843 41.9542 22.6076 42.8121 21.8543C43.7235 21.0663 44.1799 20.0729 44.1799 18.8909C44.1617 17.3323 43.2685 16.3223 41.1653 15.5343Z" fill="white"/>
<path d="M33.5593 10.0352H27.4434V12.2785H33.5593V10.0352Z" fill="white"/>
</svg>
