<svg width="26" height="34" viewBox="0 0 26 34" fill="none" xmlns="http://www.w3.org/2000/svg">
<path d="M10.6276 32.9289C10.6276 32.3396 11.1399 31.8578 11.7672 31.8578C12.3944 31.8578 12.9068 32.3396 12.9068 32.9289C12.9068 33.5182 12.3944 34 11.7672 34C11.1399 34 10.6276 33.5454 10.6276 32.9289ZM10.6276 1.07108C10.6276 0.481795 11.1399 0 11.7672 0C12.3944 0 12.9068 0.481795 12.9068 1.07108C12.9068 1.66037 12.3944 2.14216 11.7672 2.14216C11.1399 2.14216 10.6276 1.68627 10.6276 1.07108ZM4.92952 6.42519C4.92952 5.8359 5.44188 5.35411 6.06913 5.35411C6.69638 5.35411 7.20875 5.8359 7.20875 6.42519C7.20875 7.01448 6.69638 7.49627 6.06913 7.49627C5.44188 7.49627 4.92952 7.04038 4.92952 6.42519ZM5.41415 11.7793C5.41415 11.4309 5.69939 11.1641 6.06913 11.1641C6.43888 11.1641 6.72411 11.4322 6.72411 11.7793C6.72411 12.1277 6.43888 12.3945 6.06913 12.3945C5.69939 12.3945 5.41415 12.1277 5.41415 11.7793ZM0 11.7793C0 11.5915 0.170347 11.4309 0.369746 11.4309C0.569145 11.4309 0.739494 11.5915 0.739494 11.7793C0.739494 11.9671 0.569145 12.1277 0.369746 12.1277C0.170347 12.1277 0 11.9943 0 11.7793ZM0 16.7863C0 16.5985 0.170347 16.4379 0.369746 16.4379C0.569145 16.4379 0.739494 16.5985 0.739494 16.7863C0.739494 16.9741 0.569145 17.1347 0.369746 17.1347C0.170347 17.1347 0 16.9728 0 16.7863ZM0 22.4888C0 22.301 0.170347 22.1404 0.369746 22.1404C0.569145 22.1404 0.739494 22.301 0.739494 22.4888C0.739494 22.6766 0.569145 22.8372 0.369746 22.8372C0.170347 22.8372 0 22.7025 0 22.4888ZM5.41415 16.7863C5.41415 16.4379 5.69939 16.1711 6.06913 16.1711C6.43888 16.1711 6.72411 16.4392 6.72411 16.7863C6.72411 17.1347 6.43888 17.4015 6.06913 17.4015C5.69939 17.4015 5.41415 17.1334 5.41415 16.7863ZM5.41415 22.4888C5.41415 22.1404 5.69939 21.8736 6.06913 21.8736C6.43888 21.8736 6.72411 22.1417 6.72411 22.4888C6.72411 22.8372 6.43888 23.104 6.06913 23.104C5.69939 23.104 5.41415 22.8359 5.41415 22.4888ZM4.92952 27.8429C4.92952 27.2536 5.44188 26.7718 6.06913 26.7718C6.69638 26.7718 7.20875 27.2536 7.20875 27.8429C7.20875 28.4322 6.69638 28.914 6.06913 28.914C5.44188 28.914 4.92952 28.4581 4.92952 27.8429ZM9.85772 6.1571C9.85772 5.08602 10.7412 4.36333 11.7672 4.36333C12.9068 4.36333 13.6767 5.19351 13.6767 6.1571C13.6767 7.12068 12.7932 7.95086 11.7672 7.95086C10.6276 7.95086 9.85772 7.12068 9.85772 6.1571ZM16.1263 6.42519C16.1263 5.35411 17.0097 4.63142 18.0358 4.63142C19.1754 4.63142 19.9453 5.46161 19.9453 6.42519C19.9453 7.38877 19.0618 8.21896 18.0358 8.21896C16.8962 8.21896 16.1263 7.38877 16.1263 6.42519ZM16.1263 27.8429C16.1263 26.7718 17.0097 26.0491 18.0358 26.0491C19.1754 26.0491 19.9453 26.8793 19.9453 27.8429C19.9453 28.8065 19.0618 29.6367 18.0358 29.6367C16.8962 29.6367 16.1263 28.8065 16.1263 27.8429ZM16.1263 16.8666C16.1263 15.7955 17.0097 15.0728 18.0358 15.0728C19.1754 15.0728 19.9453 15.903 19.9453 16.8666C19.9453 17.8302 19.0618 18.6604 18.0358 18.6604C16.8962 18.6604 16.1263 17.8302 16.1263 16.8666ZM9.85772 27.5748C9.85772 26.5037 10.7412 25.781 11.7672 25.781C12.9068 25.781 13.6767 26.6112 13.6767 27.5748C13.6767 28.5384 12.7932 29.3686 11.7672 29.3686C10.6276 29.3686 9.85772 28.5384 9.85772 27.5748ZM9.5157 11.2444C9.5157 9.95962 10.5695 9.12944 11.7659 9.12944C13.134 9.12944 14.0161 10.1202 14.0161 11.2444C14.0161 12.3686 12.9623 13.3594 11.7659 13.3594C10.3991 13.3853 9.5157 12.3958 9.5157 11.2444ZM9.5157 22.4888C9.5157 21.204 10.5695 20.3738 11.7659 20.3738C13.134 20.3738 14.0161 21.3646 14.0161 22.4888C14.0161 23.613 12.9623 24.6038 11.7659 24.6038C10.3991 24.6297 9.5157 23.6389 9.5157 22.4888ZM21.1126 12.5564C20.4854 11.4581 20.9132 10.1733 22.0528 9.55813C23.2215 8.96884 24.5882 9.37034 25.2432 10.4414C25.8705 11.5397 25.4426 12.8245 24.303 13.4397C23.99 13.6275 23.5622 13.7337 23.2492 13.7337C22.3658 13.7609 21.5114 13.2519 21.1126 12.5564ZM9.45892 17.9364C8.74716 16.7047 9.23047 15.2593 10.5418 14.5897C11.8517 13.9202 13.3915 14.376 14.1033 15.6064C14.815 16.8381 14.3317 18.2835 13.0204 18.9531C12.6506 19.1668 12.1937 19.3015 11.824 19.3015C10.8838 19.2756 9.9145 18.7407 9.45892 17.9364ZM20.6848 23.4783C19.9149 22.1663 20.4286 20.6134 21.8244 19.8908C23.2202 19.1681 24.8735 19.6499 25.642 20.9618C26.4119 22.2738 25.8982 23.8267 24.5024 24.5494C24.1326 24.7903 23.619 24.8978 23.2202 24.8978C22.2232 24.8978 21.1971 24.3085 20.6848 23.4783Z" fill="#FF5111"/>
</svg>
