<svg width="96" height="36" viewBox="0 0 96 36" fill="none" xmlns="http://www.w3.org/2000/svg">
<path d="M36.8673 15.1511C34.9554 13.0894 32.5726 12.0703 29.6918 12.0703C27.1104 12.0703 24.8762 12.8703 23.0632 14.472C21.0276 16.2674 20.0098 18.5728 20.0098 21.3145C20.0098 23.6917 20.8041 25.7534 22.3936 27.4534C24.3045 29.5151 26.6883 30.5342 29.6429 30.5342C32.1754 30.5342 34.3348 29.7333 36.1469 28.1315C38.2074 26.3125 39.2262 24.0799 39.2262 21.4354C39.2262 18.961 38.4309 16.8501 36.8663 15.1511H36.8673Z" fill="#FC3586"/>
<path d="M68.894 28.3717C68.894 29.6335 67.8512 30.6289 66.56 30.6289C66.2559 30.6299 65.9545 30.5715 65.6734 30.4572C65.3923 30.3428 65.137 30.1747 64.9223 29.9626C64.7076 29.7505 64.5377 29.4986 64.4225 29.2215C64.3073 28.9444 64.249 28.6475 64.251 28.3481C64.251 27.7408 64.5004 27.2317 64.9465 26.7708C65.1566 26.56 65.4078 26.3932 65.6852 26.2806C65.9625 26.1679 66.2601 26.1117 66.56 26.1154C67.8512 26.14 68.894 27.1354 68.894 28.3726V28.3717Z" fill="#00E8E8"/>
<path d="M75.3227 12.4336V30.1939H71.8213V13.4772L75.3227 12.4336V12.4336Z" fill="#6300FF"/>
<path d="M93.4716 14.9319C95.11 16.7027 95.9293 18.8135 95.9293 21.288C95.9293 24.1761 94.8616 26.5051 92.7761 28.3732C91.0388 29.9259 88.9284 30.7022 86.4956 30.7022C83.6658 30.7022 81.3318 29.7077 79.4948 27.7178C77.8554 25.9469 77.0361 23.7634 77.0361 21.2398C77.0361 18.4499 78.1038 16.0964 80.1893 14.2283C81.9275 12.6756 84.0869 11.9238 86.6443 11.9238C89.3255 11.9238 91.6096 12.9183 93.4716 14.9319V14.9319ZM83.4173 15.8537C81.5054 16.97 80.5615 18.7654 80.5615 21.2889C80.5615 23.3762 81.233 25.0006 82.5731 26.1651C83.6648 27.136 84.9809 27.5969 86.4956 27.5969C88.2329 27.5969 89.6728 26.9905 90.8153 25.7769C91.883 24.6615 92.4039 23.157 92.4039 21.2644C92.4039 19.2017 91.7333 17.6254 90.4182 16.4609C89.3255 15.4901 88.0104 15.0292 86.4458 15.0292C85.3282 15.0292 84.3104 15.2955 83.4173 15.8537V15.8537Z" fill="#282A38"/>
<path d="M75.9449 7.55444C75.9449 8.18533 75.7214 8.71989 75.2734 9.15622C74.8273 9.61711 74.2565 9.83622 73.586 9.83622C72.2459 9.83622 71.2031 8.81622 71.2031 7.50628C71.2031 6.87539 71.4506 6.34178 71.8976 5.90544C72.3447 5.46722 72.9164 5.25 73.5611 5.25C74.9021 5.25 75.9449 6.26906 75.9449 7.55444Z" fill="#FFA300"/>
<path d="M14.8951 8.20963L14.8203 8.25779V30.1925H18.3217V7.16602L14.8951 8.20963V8.20963ZM8.88708 20.171L7.14886 19.5156C5.8826 19.0547 5.11325 18.6911 4.76599 18.3756C4.41873 18.1083 4.26908 17.672 4.26908 17.1138C4.26908 15.8521 5.33677 14.9548 6.90136 14.9548C7.9182 14.9548 8.81226 15.4403 9.60655 16.4102L12.7108 15.4639C11.3947 13.1103 9.4828 11.9222 7.00017 11.9222C5.33677 11.9222 3.92182 12.4313 2.73039 13.4258C1.56293 14.3967 0.99216 15.6585 0.99216 17.2111C0.99216 19.3456 2.28336 20.8992 4.84081 21.8455L6.75171 22.5727C7.9441 23.01 8.73743 23.3982 9.1106 23.7372C9.45786 24.0527 9.65739 24.49 9.65739 25.0717C9.65739 25.7026 9.43292 26.2617 8.98589 26.7708C8.48994 27.3526 7.74553 27.6435 6.75171 27.6435C5.18808 27.6435 4.24414 26.9408 3.17741 24.9263L0.123047 25.8726C1.39026 29.1253 3.5995 30.7497 6.67785 30.7497C8.465 30.7497 9.97971 30.2161 11.1961 29.148C12.4873 28.0326 13.1319 26.6253 13.1319 24.9508C13.1079 22.7182 11.8657 21.2864 8.88708 20.171Z" fill="#282A38"/>
<path d="M4.64299 13.0133C4.64299 14.276 3.60025 15.2705 2.30905 15.2705C2.0049 15.2716 1.70356 15.2132 1.42245 15.0988C1.14135 14.9845 0.88606 14.8164 0.671345 14.6043C0.456631 14.3922 0.286751 14.1403 0.171527 13.8632C0.0563027 13.586 -0.001979 13.2892 5.12747e-05 12.9897C5.12747e-05 12.3834 0.248506 11.8734 0.695533 11.4125C0.905685 11.2018 1.15698 11.0352 1.43429 10.9227C1.71159 10.8103 2.00916 10.7542 2.30905 10.758C3.60025 10.758 4.64299 11.7525 4.64299 13.0143V13.0133Z" fill="#F7CD00"/>
<path d="M47.0946 27.572C46.6226 27.572 46.2753 27.5238 45.978 27.4265C45.953 27.4265 45.9281 27.4029 45.9031 27.4029C45.6058 27.3056 45.3324 27.2083 45.0091 26.8447C44.4632 26.2138 44.563 24.5403 44.563 24.2239L44.5131 17.4787V15.4897L44.4383 14.2279V13.937L44.5381 12.4325V7.28906L41.0367 8.35628V12.408L41.0127 14.2279L41.0376 15.4897L41.0127 24.5639V25.1221C41.0127 27.1602 41.4588 28.2028 42.3279 29.1256C43.1471 29.9982 44.7856 30.58 46.1266 30.6537H46.3502C46.5238 30.6782 46.6725 30.6782 46.8461 30.6782L50.0242 27.572H47.0946V27.572Z" fill="#282A38"/>
<path d="M58.3173 20.1677L56.5791 19.5122C55.3129 19.0514 54.5435 18.6877 54.1962 18.3723C53.849 18.105 53.6993 17.6687 53.6993 17.1105C53.6993 15.8487 54.767 14.9515 56.3316 14.9515C57.3485 14.9515 58.2425 15.437 59.0368 16.3824L62.1411 15.436C60.8249 13.0834 58.9131 11.918 56.4304 11.918C54.767 11.918 53.3521 12.428 52.1606 13.4225C50.9932 14.3934 50.4224 15.6551 50.4224 17.2078C50.4224 19.3422 51.7136 20.8959 54.2711 21.8422L56.182 22.5694C57.3734 23.0067 58.1677 23.3949 58.5409 23.7339C58.8881 24.0494 59.0877 24.4866 59.0877 25.0684C59.0877 25.6993 58.8632 26.2584 58.4161 26.7675C57.9202 27.3492 57.1748 27.6401 56.182 27.6401L52.9799 27.6165L49.8018 30.7219H53.402C53.9727 30.7464 54.5435 30.7219 55.1392 30.7219H56.1321C57.9202 30.7219 59.4349 30.1882 60.6503 29.121C61.9415 28.0047 62.5881 26.5975 62.5881 24.923C62.5622 22.7149 61.2969 21.284 58.3173 20.1677Z" fill="#282A38"/>
<path d="M47.5412 12.3867H38.877V15.5648H47.5412V12.3867Z" fill="#00F490"/>
</svg>
