<svg width="71" height="28" viewBox="0 0 71 28" fill="none" xmlns="http://www.w3.org/2000/svg">
<path d="M27.1252 11.92C25.7306 10.4162 23.9926 9.67285 21.8913 9.67285C20.0084 9.67285 18.3788 10.2563 17.0563 11.4247C15.5715 12.7343 14.8291 14.4159 14.8291 16.4157C14.8291 18.1496 15.4085 19.6535 16.5679 20.8935C17.9617 22.3973 19.7005 23.1406 21.8556 23.1406C23.7029 23.1406 25.2779 22.5565 26.5997 21.3881C28.1027 20.0613 28.8458 18.4328 28.8458 16.5039C28.8458 14.699 28.2657 13.1593 27.1245 11.92H27.1252Z" fill="#FC3586"/>
<path d="M50.4853 21.5634C50.4853 22.4837 49.7247 23.2098 48.7829 23.2098C48.561 23.2105 48.3412 23.168 48.1362 23.0846C47.9311 23.0011 47.7449 22.8785 47.5883 22.7238C47.4317 22.5691 47.3078 22.3854 47.2237 22.1832C47.1397 21.9811 47.0972 21.7646 47.0987 21.5461C47.0987 21.1032 47.2806 20.7319 47.606 20.3957C47.7592 20.2419 47.9425 20.1203 48.1447 20.0381C48.347 19.9559 48.5641 19.9149 48.7829 19.9176C49.7247 19.9355 50.4853 20.6616 50.4853 21.564V21.5634Z" fill="#00E8E8"/>
<path d="M55.1746 9.93921V22.8938H52.6206V10.7004L55.1746 9.93921Z" fill="#6300FF"/>
<path d="M68.413 11.762C69.6081 13.0536 70.2057 14.5933 70.2057 16.3982C70.2057 18.5048 69.4269 20.2036 67.9057 21.5663C66.6385 22.6988 65.0992 23.2651 63.3247 23.2651C61.2605 23.2651 59.5581 22.5397 58.2182 21.0882C57.0224 19.7965 56.4248 18.2038 56.4248 16.3631C56.4248 14.3281 57.2036 12.6114 58.7248 11.2488C59.9927 10.1162 61.5677 9.56787 63.4331 9.56787C65.3888 9.56787 67.0549 10.2933 68.413 11.762ZM61.0793 12.4343C59.6848 13.2486 58.9963 14.5582 58.9963 16.3989C58.9963 17.9213 59.4861 19.1062 60.4636 19.9556C61.2598 20.6638 62.2198 21 63.3247 21C64.5919 21 65.6421 20.5577 66.4755 19.6725C67.2543 18.8589 67.6342 17.7615 67.6342 16.381C67.6342 14.8764 67.1451 13.7267 66.1858 12.8773C65.3888 12.1691 64.4295 11.8329 63.2883 11.8329C62.4731 11.8329 61.7307 12.0272 61.0793 12.4343Z" fill="white"/>
<path d="M55.6272 6.38084C55.6272 6.84102 55.4641 7.23093 55.1374 7.5492C54.812 7.88537 54.3957 8.0452 53.9066 8.0452C52.929 8.0452 52.1685 7.3012 52.1685 6.34571C52.1685 5.88553 52.349 5.49631 52.6751 5.17804C53.0011 4.8584 53.4182 4.69995 53.8884 4.69995C54.8666 4.69995 55.6272 5.44326 55.6272 6.38084Z" fill="#FFA300"/>
<path d="M11.0991 6.8579L11.0445 6.89304V22.8925H13.5985V6.09668L11.0991 6.8579ZM6.71681 15.5827L5.44893 15.1046C4.5253 14.7684 3.96413 14.5032 3.71084 14.2731C3.45754 14.0781 3.34838 13.7599 3.34838 13.3527C3.34838 12.4324 4.12717 11.7779 5.2684 11.7779C6.0101 11.7779 6.66223 12.132 7.2416 12.8395L9.50587 12.1493C8.54586 10.4325 7.15133 9.56592 5.34047 9.56592C4.12717 9.56592 3.09509 9.93723 2.22604 10.6626C1.37449 11.3708 0.95816 12.2912 0.95816 13.4237C0.95816 14.9806 1.89998 16.1138 3.76541 16.8041L5.15925 17.3345C6.02899 17.6535 6.60765 17.9366 6.87984 18.1839C7.13314 18.414 7.27868 18.733 7.27868 19.1573C7.27868 19.6175 7.11495 20.0253 6.78888 20.3966C6.42713 20.821 5.88415 21.0332 5.15925 21.0332C4.01871 21.0332 3.33019 20.5206 2.55211 19.0512L0.324219 19.7415C1.24854 22.114 2.85998 23.2989 5.10537 23.2989C6.40893 23.2989 7.51378 22.9097 8.40102 22.1306C9.34284 21.317 9.81305 20.2905 9.81305 19.0691C9.79555 17.4406 8.88942 16.3963 6.71681 15.5827Z" fill="white"/>
<path d="M3.62005 10.3615C3.62005 11.2826 2.85946 12.0079 1.91765 12.0079C1.69579 12.0087 1.47599 11.9661 1.27095 11.8827C1.06591 11.7993 0.879701 11.6767 0.723086 11.522C0.56647 11.3673 0.442558 11.1835 0.358512 10.9814C0.274466 10.7792 0.231955 10.5627 0.233436 10.3443C0.233436 9.90202 0.414662 9.53002 0.740729 9.19384C0.894016 9.04017 1.07732 8.91866 1.27959 8.83661C1.48185 8.75456 1.6989 8.71368 1.91765 8.71644C2.85946 8.71644 3.62005 9.44184 3.62005 10.3622V10.3615Z" fill="#F7CD00"/>
<path d="M34.5856 20.9799C34.2413 20.9799 33.988 20.9447 33.7711 20.8738C33.7529 20.8738 33.7348 20.8566 33.7166 20.8566C33.4996 20.7856 33.3002 20.7147 33.0644 20.4494C32.6663 19.9893 32.7391 18.7685 32.7391 18.5378L32.7027 13.6177V12.1669L32.6481 11.2466V11.0344L32.7209 9.93699V6.1853L30.1669 6.96375V9.91908L30.1494 11.2466L30.1676 12.1669L30.1494 18.7858V19.1929C30.1494 20.6795 30.4748 21.4401 31.1087 22.1131C31.7063 22.7496 32.9014 23.174 33.8796 23.2277H34.0426C34.1693 23.2456 34.2777 23.2456 34.4044 23.2456L36.7225 20.9799H34.5856Z" fill="white"/>
<path d="M42.7709 15.5853L41.503 15.1072C40.5794 14.771 40.0183 14.5058 39.765 14.2757C39.5117 14.0808 39.4025 13.7625 39.4025 13.3554C39.4025 12.435 40.1813 11.7806 41.3225 11.7806C42.0642 11.7806 42.7164 12.1347 43.2957 12.8242L45.56 12.134C44.6 10.418 43.2055 9.56787 41.3946 9.56787C40.1813 9.56787 39.1492 9.93987 38.2802 10.6653C37.4286 11.3734 37.0123 12.2938 37.0123 13.4263C37.0123 14.9832 37.9541 16.1165 39.8195 16.8067L41.2134 17.3372C42.0824 17.6561 42.6618 17.9393 42.934 18.1866C43.1873 18.4167 43.3328 18.7356 43.3328 19.16C43.3328 19.6201 43.1691 20.028 42.843 20.3993C42.4812 20.8236 41.9376 21.0358 41.2134 21.0358L38.8777 21.0186L36.5596 23.2837H39.1856C39.6019 23.3016 40.0183 23.2837 40.4528 23.2837H41.177C42.4812 23.2837 43.5861 22.8944 44.4726 22.116C45.4144 21.3017 45.8861 20.2753 45.8861 19.0539C45.8672 17.4433 44.9442 16.3996 42.7709 15.5853Z" fill="white"/>
<path d="M34.9111 9.90283H28.5913V12.2209H34.9111V9.90283Z" fill="#00F490"/>
</svg>
