<svg width="23" height="34" viewBox="0 0 23 34" fill="none" xmlns="http://www.w3.org/2000/svg">
<path d="M15.1174 16.0092L12.1613 14.8945C10.0078 14.1107 8.69945 13.4923 8.10888 12.9559C7.51832 12.5013 7.26382 11.7593 7.26382 10.81C7.26382 8.6642 9.07957 7.13835 11.7404 7.13835C13.4697 7.13835 14.9901 7.96392 16.3409 9.61345L21.6202 8.00407C19.3819 4.00151 16.1305 1.98096 11.9084 1.98096C9.07957 1.98096 6.67325 2.84668 4.64705 4.53797C2.66163 6.1891 1.69094 8.33494 1.69094 10.9755C1.69094 14.6054 3.88681 17.2475 8.23613 18.8569L11.4859 20.0937C13.5137 20.8373 14.8629 21.4975 15.4975 22.0741C16.0881 22.6105 16.4274 23.3542 16.4274 24.3436C16.4274 25.4165 16.0457 26.3673 15.2854 27.2331C14.442 28.2225 13.176 28.7172 11.4859 28.7172C8.8267 28.7172 7.2214 27.5222 5.40728 24.0962L0.212891 25.7056C2.36797 31.2372 6.1251 33.9998 11.3603 33.9998C14.3996 33.9998 16.9756 33.0924 19.0442 31.2758C21.2401 29.3789 22.3364 26.9857 22.3364 24.138C22.2956 20.341 20.1829 17.9061 15.1174 16.0092Z" fill="white"/>
<path d="M7.89608 3.83582C7.89608 5.98326 6.12274 7.67455 3.92688 7.67455C3.40961 7.67626 2.89714 7.57701 2.41908 7.38252C1.94103 7.18803 1.50687 6.90218 1.14172 6.54148C0.776566 6.18078 0.487661 5.7524 0.291706 5.28109C0.0957508 4.80979 -0.00336557 4.30492 8.72e-05 3.79567C8.72e-05 2.76451 0.422621 1.89718 1.18285 1.11338C1.54025 0.755103 1.96762 0.471781 2.43921 0.280485C2.91081 0.0891894 3.41686 -0.00611909 3.92688 0.000304369C6.12274 0.000304369 7.89608 1.69159 7.89608 3.83743V3.83582Z" fill="#F7CD00"/>
</svg>
