<svg width="115" height="28" viewBox="0 0 115 28" fill="none" xmlns="http://www.w3.org/2000/svg">
<path fill-rule="evenodd" clip-rule="evenodd" d="M9.98486 23.3799C15.3365 23.3799 19.6749 19.0415 19.6749 13.6899C19.6749 8.33834 15.3365 4 9.98486 4C4.63325 4 0.294922 8.33834 0.294922 13.6899C0.294922 19.0415 4.63325 23.3799 9.98486 23.3799ZM9.98495 21.3945C14.2401 21.3945 17.6895 17.9451 17.6895 13.69C17.6895 9.43487 14.2401 5.98543 9.98495 5.98543C5.72986 5.98543 2.28042 9.43487 2.28042 13.69C2.28042 17.9451 5.72986 21.3945 9.98495 21.3945Z" fill="white"/>
<path d="M4.68471 13.3694C7.27201 13.3694 9.36942 11.272 9.36942 8.68471C9.36942 6.09741 7.27201 4 4.68471 4C2.09741 4 0 6.09741 0 8.68471C0 11.272 2.09741 13.3694 4.68471 13.3694Z" fill="white"/>
<path d="M26.8259 11.1501C26.8259 11.6186 27.0725 12.0131 27.541 12.309C28.0095 12.6049 28.7738 12.8514 29.8094 13.0733C31.1655 13.3446 32.1764 13.813 32.8421 14.4047C33.5078 15.0212 33.8284 15.8348 33.8284 16.8458C33.8284 17.8813 33.4092 18.7936 32.5709 19.5087C31.7326 20.2483 30.623 20.6182 29.2423 20.6182C27.7876 20.6182 26.604 20.2483 25.7411 19.5333C24.8781 18.8183 24.311 17.8566 24.0645 16.6732L26.1109 15.6376C26.4807 17.5854 27.5164 18.5717 29.2176 18.5717C29.908 18.5717 30.4751 18.4237 30.8696 18.1033C31.2888 17.8074 31.486 17.3882 31.486 16.8951C31.486 16.3527 31.2395 15.9335 30.7464 15.6376C30.2532 15.3417 29.4889 15.0705 28.4287 14.8733C27.2451 14.6267 26.3082 14.2075 25.6178 13.5911C24.9274 12.9747 24.5822 12.1611 24.5822 11.1748C24.5822 10.1639 24.9768 9.32557 25.7904 8.70916C26.5794 8.09275 27.6396 7.79688 28.9218 7.79688C31.2641 7.79688 32.8174 8.8571 33.6065 10.9529L31.7819 12.0131C31.2888 10.5584 30.3272 9.8187 28.8724 9.8187C28.2807 9.8187 27.7876 9.91732 27.393 10.1392C27.0233 10.3858 26.8259 10.7063 26.8259 11.1501ZM34.7899 23.9714V11.6433H37.0091V12.9007C37.305 12.4569 37.7487 12.0871 38.2665 11.8159C38.8089 11.5446 39.4007 11.3967 40.0171 11.3967C41.1513 11.3967 42.1129 11.8159 42.8772 12.6542C43.6416 13.4925 44.0361 14.6021 44.0361 16.0075C44.0361 17.3882 43.6416 18.4977 42.8279 19.336C42.0143 20.199 41.0281 20.6182 39.8445 20.6182C38.661 20.6182 37.7241 20.1743 37.0091 19.2867V23.9714H34.7899ZM41.102 14.2075C40.6335 13.7144 40.0418 13.4678 39.3513 13.4678C38.6364 13.4678 38.0693 13.7144 37.6008 14.2075C37.1323 14.7006 36.8858 15.2924 36.8858 16.0075C36.8858 16.7224 37.1323 17.3142 37.6008 17.8074C38.0693 18.3005 38.661 18.547 39.3513 18.547C40.0664 18.547 40.6335 18.3005 41.102 17.8074C41.5705 17.3142 41.817 16.7224 41.817 16.0075C41.7924 15.2924 41.5705 14.7006 41.102 14.2075ZM52.7152 12.6295C53.6767 13.4432 54.1452 14.5774 54.1452 16.0075C54.1452 17.4375 53.6767 18.5717 52.7398 19.3854C51.8029 20.199 50.6687 20.6182 49.3865 20.6182C48.1044 20.6182 46.9702 20.199 46.0333 19.3854C45.0963 18.5717 44.6279 17.4375 44.6279 16.0075C44.6279 14.5774 45.0963 13.4432 46.0333 12.6295C46.9702 11.8159 48.1044 11.3967 49.3865 11.3967C50.6687 11.3967 51.7782 11.8159 52.7152 12.6295ZM47.6113 17.8566C48.1044 18.3252 48.6962 18.547 49.3865 18.547C50.0769 18.547 50.6687 18.3252 51.1618 17.8566C51.6549 17.3882 51.9014 16.7718 51.9014 16.0075C51.9014 15.2431 51.6549 14.6267 51.1618 14.1582C50.6687 13.6897 50.0769 13.4678 49.3865 13.4678C48.6962 13.4678 48.1044 13.6897 47.6113 14.1582C47.1181 14.6267 46.8716 15.2431 46.8716 16.0075C46.8716 16.7718 47.1181 17.3882 47.6113 17.8566ZM60.6052 11.52V13.5665C60.3833 13.4432 59.7915 13.4925 59.545 13.4925C58.9039 13.4925 58.3861 13.7391 58.0163 14.2322C57.6464 14.7253 57.4492 15.3417 57.4492 16.0814V20.3963H55.2301V11.6433H57.4492V13.024C57.9916 11.9391 58.8052 11.3967 59.8902 11.3967C60.1121 11.3967 60.3586 11.446 60.6052 11.52ZM61.69 11.6433V9.27626H63.9091V11.6433H65.8077V13.4432H63.9091V17.4129C63.9091 18.2265 64.279 18.6457 65.0187 18.6457C65.2653 18.6457 65.5118 18.621 65.7584 18.547L65.9802 20.3717C65.5365 20.5442 65.0433 20.6182 64.5008 20.6182C62.627 20.6182 61.7147 19.6812 61.7147 17.832V13.4432L61.69 11.6433ZM68.8404 13.7884C68.8404 14.3308 69.5308 14.7499 70.9115 15.0212C71.9224 15.2431 72.6622 15.5636 73.1306 15.9828C73.5991 16.4019 73.821 16.9937 73.821 17.7087C73.821 18.547 73.5005 19.2375 72.884 19.8046C72.2676 20.347 71.4293 20.6182 70.3691 20.6182C69.3581 20.6182 68.5198 20.3717 67.8542 19.8785C67.1884 19.3854 66.6953 18.7689 66.3748 18.0046L68.1501 16.8704C68.3473 17.4375 68.6432 17.906 69.013 18.2512C69.3828 18.5964 69.8513 18.7689 70.3938 18.7689C70.7635 18.7689 71.0841 18.6949 71.3553 18.5224C71.6265 18.3498 71.7745 18.1033 71.7745 17.8074C71.7745 17.5362 71.6265 17.2895 71.3306 17.1416C71.0348 16.9691 70.5663 16.8211 69.9006 16.6978C67.8788 16.3033 66.8679 15.391 66.8679 13.961C66.8679 13.172 67.1884 12.5556 67.8295 12.1117C68.4705 11.6679 69.2349 11.446 70.1472 11.446C71.0841 11.446 71.8238 11.6186 72.3663 11.9638C72.9087 12.309 73.3771 12.8761 73.747 13.6404L72.1444 14.6021C71.7499 13.5911 71.0841 13.0733 70.1719 13.0733C69.2842 13.024 68.8404 13.2706 68.8404 13.7884ZM74.61 20.3717V8.04344H76.829V12.7035C77.5195 11.8159 78.481 11.372 79.6892 11.372C80.8974 11.372 81.8837 11.7912 82.6726 12.6049C83.4616 13.4432 83.8562 14.5527 83.8562 15.9828C83.8562 17.3882 83.4616 18.5224 82.648 19.336C81.8343 20.1743 80.848 20.5935 79.6645 20.5935C78.4318 20.5935 77.4701 20.1497 76.829 19.262V20.347H74.61V20.3717ZM77.3961 17.8566C77.8647 18.3252 78.4564 18.5717 79.1714 18.5717C79.8865 18.5717 80.4782 18.3252 80.9467 17.8566C81.4151 17.3882 81.637 16.7718 81.637 16.0321C81.637 15.2924 81.4151 14.676 80.9467 14.2075C80.4782 13.7391 79.8865 13.4925 79.1714 13.4925C78.4564 13.4925 77.8647 13.7391 77.3961 14.2075C76.9277 14.676 76.7058 15.2924 76.7058 16.0321C76.7058 16.7471 76.9277 17.3635 77.3961 17.8566ZM93.2749 16.5499H86.5436C86.6176 17.2156 86.8642 17.7581 87.3081 18.1525C87.7518 18.547 88.2943 18.7443 88.9353 18.7443C90.0202 18.7443 90.8092 18.2018 91.3516 17.1416L93.0037 18.1033C92.1899 19.8046 90.8092 20.6675 88.9107 20.6675C87.6778 20.6675 86.6176 20.2483 85.73 19.3854C84.867 18.5224 84.4233 17.4129 84.4233 16.0568C84.4233 14.7006 84.867 13.5911 85.7547 12.7282C86.6423 11.8652 87.7272 11.446 89.0093 11.446C90.2421 11.446 91.2777 11.8652 92.0667 12.6788C92.8557 13.4925 93.2749 14.5527 93.2749 15.8102V16.5499ZM88.96 13.098C88.3929 13.098 87.8752 13.2706 87.456 13.6158C87.0367 13.961 86.741 14.4047 86.5683 14.9226H91.2531C91.1544 14.3555 90.8832 13.887 90.4886 13.5665C90.0942 13.2459 89.5764 13.098 88.96 13.098ZM93.9899 11.6433V9.27626H96.2089V11.6433H98.1075V13.4432H96.2089V17.4129C96.2089 18.2265 96.5788 18.6457 97.3186 18.6457C97.5651 18.6457 97.8117 18.621 98.0582 18.547L98.2801 20.3717C97.8363 20.5442 97.3431 20.6182 96.8007 20.6182C94.9268 20.6182 94.0145 19.6812 94.0145 17.832V13.4432L93.9899 11.6433ZM100.13 20.3717C100.771 20.3717 101.313 19.8538 101.313 19.1881C101.313 18.547 100.795 18.0046 100.13 18.0046C99.4883 18.0046 98.9458 18.5224 98.9458 19.1881C98.9458 19.8538 99.4883 20.3717 100.13 20.3717ZM102.299 20.3717V11.6433H104.519V20.3717H102.299ZM113.37 12.6295C114.332 13.4432 114.8 14.5774 114.8 16.0075C114.8 17.4375 114.332 18.5717 113.395 19.3854C112.457 20.199 111.323 20.6182 110.041 20.6182C108.76 20.6182 107.625 20.199 106.687 19.3854C105.751 18.5717 105.282 17.4375 105.282 16.0075C105.282 14.5774 105.751 13.4432 106.687 12.6295C107.625 11.8159 108.76 11.3967 110.041 11.3967C111.323 11.3967 112.408 11.8159 113.37 12.6295ZM108.241 17.8566C108.735 18.3252 109.326 18.547 110.017 18.547C110.707 18.547 111.299 18.3252 111.792 17.8566C112.284 17.3882 112.531 16.7718 112.531 16.0075C112.531 15.2431 112.284 14.6267 111.792 14.1582C111.299 13.6897 110.707 13.4678 110.017 13.4678C109.326 13.4678 108.735 13.6897 108.241 14.1582C107.748 14.6267 107.501 15.2431 107.501 16.0075C107.501 16.7718 107.748 17.3882 108.241 17.8566Z" fill="white"/>
<path d="M102.174 9.22426C102.174 9.89093 102.717 10.4095 103.359 10.4095C104.001 10.4095 104.543 9.89093 104.543 9.22426C104.543 8.55759 104.001 8.03906 103.359 8.03906C102.692 8.03906 102.174 8.55759 102.174 9.22426Z" fill="white"/>
</svg>
