<svg width="120" height="28" viewBox="0 0 120 28" fill="none" xmlns="http://www.w3.org/2000/svg">
<path fill-rule="evenodd" clip-rule="evenodd" d="M10.9846 23.6924C16.5147 23.6924 20.9976 19.2094 20.9976 13.6795C20.9976 8.14945 16.5147 3.6665 10.9846 3.6665C5.45462 3.6665 0.97168 8.14945 0.97168 13.6795C0.97168 19.2094 5.45462 23.6924 10.9846 23.6924ZM10.9847 21.6408C15.3817 21.6408 18.9461 18.0764 18.9461 13.6795C18.9461 9.28254 15.3817 5.71812 10.9847 5.71812C6.58778 5.71812 3.02336 9.28254 3.02336 13.6795C3.02336 18.0764 6.58778 21.6408 10.9847 21.6408Z" fill="white"/>
<path d="M5.50786 13.3482C8.1814 13.3482 10.3487 11.1809 10.3487 8.50737C10.3487 5.83383 8.1814 3.6665 5.50786 3.6665C2.83432 3.6665 0.666992 5.83383 0.666992 8.50737C0.666992 11.1809 2.83432 13.3482 5.50786 13.3482Z" fill="#0CD664"/>
<path d="M28.3872 11.0549C28.3872 11.539 28.642 11.9466 29.1261 12.2524C29.6102 12.5581 30.4 12.8129 31.4701 13.0422C32.8714 13.3224 33.9161 13.8065 34.6039 14.418C35.2919 15.0549 35.6231 15.8957 35.6231 16.9404C35.6231 18.0104 35.1899 18.9531 34.3237 19.692C33.4574 20.4564 32.3109 20.8386 30.8841 20.8386C29.3809 20.8386 28.1579 20.4564 27.2662 19.7175C26.3745 18.9786 25.7885 17.9849 25.5337 16.7621L27.6484 15.6919C28.0305 17.7047 29.1007 18.7238 30.8586 18.7238C31.572 18.7238 32.158 18.5709 32.5657 18.2398C32.9988 17.9341 33.2026 17.5009 33.2026 16.9913C33.2026 16.4308 32.9479 15.9976 32.4383 15.6919C31.9287 15.3862 31.1389 15.1059 30.0434 14.9021C28.8204 14.6473 27.8522 14.2142 27.1389 13.5772C26.4254 12.9403 26.0687 12.0995 26.0687 11.0804C26.0687 10.0358 26.4764 9.1695 27.3172 8.53254C28.1325 7.89559 29.228 7.58984 30.5529 7.58984C32.9734 7.58984 34.5784 8.68541 35.3938 10.8511L33.5084 11.9466C32.9988 10.4434 32.0052 9.67907 30.5019 9.67907C29.8904 9.67907 29.3809 9.78097 28.9732 10.0103C28.5911 10.2651 28.3872 10.5963 28.3872 11.0549ZM36.6167 24.3036V11.5645H38.9098V12.8638C39.2155 12.4052 39.6741 12.0231 40.2091 11.7428C40.7696 11.4625 41.3811 11.3097 42.0181 11.3097C43.1901 11.3097 44.1838 11.7428 44.9736 12.6091C45.7634 13.4753 46.1711 14.6219 46.1711 16.0741C46.1711 17.5009 45.7634 18.6474 44.9226 19.5136C44.0818 20.4054 43.0628 20.8386 41.8398 20.8386C40.6168 20.8386 39.6486 20.3799 38.9098 19.4627V24.3036H36.6167ZM43.1391 14.2142C42.6551 13.7046 42.0436 13.4498 41.3302 13.4498C40.5913 13.4498 40.0053 13.7046 39.5213 14.2142C39.0371 14.7237 38.7824 15.3352 38.7824 16.0741C38.7824 16.8129 39.0371 17.4244 39.5213 17.9341C40.0053 18.4436 40.6168 18.6984 41.3302 18.6984C42.0691 18.6984 42.6551 18.4436 43.1391 17.9341C43.6233 17.4244 43.878 16.8129 43.878 16.0741C43.8526 15.3352 43.6233 14.7237 43.1391 14.2142ZM55.1394 12.5836C56.133 13.4244 56.6172 14.5964 56.6172 16.0741C56.6172 17.5518 56.133 18.7238 55.1649 19.5646C54.1967 20.4054 53.0247 20.8386 51.6998 20.8386C50.375 20.8386 49.203 20.4054 48.2348 19.5646C47.2666 18.7238 46.7825 17.5518 46.7825 16.0741C46.7825 14.5964 47.2666 13.4244 48.2348 12.5836C49.203 11.7428 50.375 11.3097 51.6998 11.3097C53.0247 11.3097 54.1712 11.7428 55.1394 12.5836ZM49.8655 17.9849C50.375 18.4691 50.9865 18.6984 51.6998 18.6984C52.4132 18.6984 53.0247 18.4691 53.5343 17.9849C54.0438 17.5009 54.2986 16.8639 54.2986 16.0741C54.2986 15.2843 54.0438 14.6473 53.5343 14.1632C53.0247 13.6791 52.4132 13.4498 51.6998 13.4498C50.9865 13.4498 50.375 13.6791 49.8655 14.1632C49.3558 14.6473 49.1011 15.2843 49.1011 16.0741C49.1011 16.8639 49.3558 17.5009 49.8655 17.9849ZM63.2924 11.4371V13.5518C63.0632 13.4244 62.4517 13.4753 62.1969 13.4753C61.5344 13.4753 60.9994 13.7301 60.6172 14.2397C60.235 14.7492 60.0312 15.3862 60.0312 16.1506V20.6093H57.7382V11.5645H60.0312V12.9912C60.5917 11.8702 61.4325 11.3097 62.5536 11.3097C62.7829 11.3097 63.0377 11.3606 63.2924 11.4371ZM64.4135 11.5645V9.11855H66.7065V11.5645H68.6684V13.4244H66.7065V17.5264C66.7065 18.3671 67.0887 18.8003 67.8531 18.8003C68.1079 18.8003 68.3626 18.7748 68.6174 18.6984L68.8467 20.5838C68.3881 20.7621 67.8785 20.8386 67.318 20.8386C65.3817 20.8386 64.4389 19.8704 64.4389 17.9594V13.4244L64.4135 11.5645ZM71.8022 13.7811C71.8022 14.3416 72.5156 14.7747 73.9423 15.0549C74.9869 15.2843 75.7513 15.6154 76.2354 16.0486C76.7195 16.4817 76.9488 17.0932 76.9488 17.8321C76.9488 18.6984 76.6176 19.4118 75.9806 19.9978C75.3436 20.5583 74.4774 20.8386 73.3818 20.8386C72.3372 20.8386 71.4709 20.5838 70.7831 20.0741C70.0951 19.5646 69.5856 18.9276 69.2544 18.1378L71.0888 16.9658C71.2926 17.5518 71.5984 18.0359 71.9806 18.3926C72.3627 18.7493 72.8468 18.9276 73.4073 18.9276C73.7894 18.9276 74.1207 18.8512 74.4009 18.6729C74.6812 18.4946 74.8341 18.2398 74.8341 17.9341C74.8341 17.6538 74.6812 17.3989 74.3754 17.2461C74.0697 17.0678 73.5856 16.9149 72.8977 16.7874C70.8086 16.3799 69.7639 15.4371 69.7639 13.9594C69.7639 13.1441 70.0951 12.5071 70.7576 12.0485C71.4199 11.5899 72.2098 11.3606 73.1526 11.3606C74.1207 11.3606 74.8851 11.539 75.4456 11.8957C76.0061 12.2524 76.4901 12.8384 76.8723 13.6282L75.2163 14.6219C74.8086 13.5772 74.1207 13.0422 73.178 13.0422C72.2608 12.9912 71.8022 13.246 71.8022 13.7811ZM77.7641 20.5838V7.84463H80.0571V12.66C80.7705 11.7428 81.7641 11.2842 83.0126 11.2842C84.261 11.2842 85.2802 11.7173 86.0955 12.5581C86.9108 13.4244 87.3185 14.5709 87.3185 16.0486C87.3185 17.5009 86.9108 18.6729 86.07 19.5136C85.2292 20.3799 84.2101 20.8131 82.9871 20.8131C81.7132 20.8131 80.7196 20.3544 80.0571 19.4372V20.5583H77.7641V20.5838ZM80.6431 17.9849C81.1273 18.4691 81.7387 18.7238 82.4775 18.7238C83.2165 18.7238 83.8279 18.4691 84.312 17.9849C84.7961 17.5009 85.0253 16.8639 85.0253 16.0996C85.0253 15.3352 84.7961 14.6983 84.312 14.2142C83.8279 13.7301 83.2165 13.4753 82.4775 13.4753C81.7387 13.4753 81.1273 13.7301 80.6431 14.2142C80.159 14.6983 79.9298 15.3352 79.9298 16.0996C79.9298 16.8384 80.159 17.4754 80.6431 17.9849ZM97.0511 16.6346H90.0955C90.172 17.3226 90.4268 17.8831 90.8854 18.2907C91.344 18.6984 91.9045 18.9022 92.5669 18.9022C93.688 18.9022 94.5033 18.3416 95.0638 17.2461L96.7709 18.2398C95.93 19.9978 94.5033 20.8895 92.5415 20.8895C91.2675 20.8895 90.172 20.4564 89.2548 19.5646C88.363 18.6729 87.9045 17.5264 87.9045 16.1251C87.9045 14.7237 88.363 13.5772 89.2803 12.6855C90.1975 11.7938 91.3185 11.3606 92.6434 11.3606C93.9173 11.3606 94.9874 11.7938 95.8027 12.6345C96.618 13.4753 97.0511 14.5709 97.0511 15.8703V16.6346ZM92.5924 13.0677C92.0064 13.0677 91.4714 13.246 91.0382 13.6027C90.6051 13.9594 90.2994 14.418 90.121 14.9531H94.9619C94.86 14.3671 94.5797 13.883 94.172 13.5518C93.7644 13.2205 93.2294 13.0677 92.5924 13.0677ZM97.79 11.5645V9.11855H100.083V11.5645H102.045V13.4244H100.083V17.5264C100.083 18.3671 100.465 18.8003 101.23 18.8003C101.484 18.8003 101.739 18.7748 101.994 18.6984L102.223 20.5838C101.765 20.7621 101.255 20.8386 100.694 20.8386C98.7582 20.8386 97.8155 19.8704 97.8155 17.9594V13.4244L97.79 11.5645ZM104.135 20.5838C104.797 20.5838 105.357 20.0487 105.357 19.3608C105.357 18.6984 104.822 18.1378 104.135 18.1378C103.472 18.1378 102.911 18.6729 102.911 19.3608C102.911 20.0487 103.472 20.5838 104.135 20.5838ZM106.376 20.5838V11.5645H108.67V20.5838H106.376ZM117.816 12.5836C118.81 13.4244 119.294 14.5964 119.294 16.0741C119.294 17.5518 118.81 18.7238 117.842 19.5646C116.873 20.4054 115.701 20.8386 114.376 20.8386C113.052 20.8386 111.88 20.4054 110.911 19.5646C109.943 18.7238 109.459 17.5518 109.459 16.0741C109.459 14.5964 109.943 13.4244 110.911 12.5836C111.88 11.7428 113.052 11.3097 114.376 11.3097C115.701 11.3097 116.822 11.7428 117.816 12.5836ZM112.516 17.9849C113.026 18.4691 113.637 18.6984 114.351 18.6984C115.064 18.6984 115.676 18.4691 116.186 17.9849C116.694 17.5009 116.949 16.8639 116.949 16.0741C116.949 15.2843 116.694 14.6473 116.186 14.1632C115.676 13.6791 115.064 13.4498 114.351 13.4498C113.637 13.4498 113.026 13.6791 112.516 14.1632C112.007 14.6473 111.752 15.2843 111.752 16.0741C111.752 16.8639 112.007 17.5009 112.516 17.9849Z" fill="white"/>
<path d="M106.247 9.06479C106.247 9.75369 106.808 10.2895 107.471 10.2895C108.135 10.2895 108.695 9.75369 108.695 9.06479C108.695 8.3759 108.135 7.84009 107.471 7.84009C106.782 7.84009 106.247 8.3759 106.247 9.06479Z" fill="#0CD664"/>
</svg>
