<svg width="170" height="36" viewBox="0 0 170 36" fill="none" xmlns="http://www.w3.org/2000/svg">
<g clip-path="url(#clip0_670_15958)">
<path d="M10.9952 34.8659C10.9952 34.242 11.5253 33.7318 12.1742 33.7318C12.8232 33.7318 13.3532 34.242 13.3532 34.8659C13.3532 35.4899 12.8232 36 12.1742 36C11.5253 36 10.9952 35.5187 10.9952 34.8659ZM10.9952 1.13409C10.9952 0.510136 11.5253 0 12.1742 0C12.8232 0 13.3532 0.510136 13.3532 1.13409C13.3532 1.75804 12.8232 2.26817 12.1742 2.26817C11.5253 2.26817 10.9952 1.78547 10.9952 1.13409ZM5.10003 6.80314C5.10003 6.17919 5.63011 5.66906 6.27906 5.66906C6.928 5.66906 7.45809 6.17919 7.45809 6.80314C7.45809 7.42709 6.928 7.93723 6.27906 7.93723C5.63011 7.93723 5.10003 7.45452 5.10003 6.80314ZM5.60142 12.4722C5.60142 12.1033 5.89652 11.8208 6.27906 11.8208C6.6616 11.8208 6.95669 12.1047 6.95669 12.4722C6.95669 12.8411 6.6616 13.1236 6.27906 13.1236C5.89652 13.1236 5.60142 12.8411 5.60142 12.4722ZM0 12.4722C0 12.2734 0.176239 12.1033 0.382535 12.1033C0.588831 12.1033 0.765073 12.2734 0.765073 12.4722C0.765073 12.671 0.588831 12.8411 0.382535 12.8411C0.176239 12.8411 0 12.6998 0 12.4722ZM0 17.7737C0 17.5749 0.176239 17.4048 0.382535 17.4048C0.588831 17.4048 0.765073 17.5749 0.765073 17.7737C0.765073 17.9726 0.588831 18.1426 0.382535 18.1426C0.176239 18.1426 0 17.9712 0 17.7737ZM0 23.8117C0 23.6128 0.176239 23.4428 0.382535 23.4428C0.588831 23.4428 0.765073 23.6128 0.765073 23.8117C0.765073 24.0105 0.588831 24.1806 0.382535 24.1806C0.176239 24.1806 0 24.0379 0 23.8117ZM5.60142 17.7737C5.60142 17.4048 5.89652 17.1224 6.27906 17.1224C6.6616 17.1224 6.95669 17.4062 6.95669 17.7737C6.95669 18.1426 6.6616 18.4251 6.27906 18.4251C5.89652 18.4251 5.60142 18.1412 5.60142 17.7737ZM5.60142 23.8117C5.60142 23.4428 5.89652 23.1603 6.27906 23.1603C6.6616 23.1603 6.95669 23.4442 6.95669 23.8117C6.95669 24.1806 6.6616 24.4631 6.27906 24.4631C5.89652 24.4631 5.60142 24.1792 5.60142 23.8117ZM5.10003 29.4807C5.10003 28.8568 5.63011 28.3466 6.27906 28.3466C6.928 28.3466 7.45809 28.8568 7.45809 29.4807C7.45809 30.1047 6.928 30.6148 6.27906 30.6148C5.63011 30.6148 5.10003 30.1321 5.10003 29.4807ZM10.1987 6.51928C10.1987 5.38519 11.1127 4.61999 12.1742 4.61999C13.3532 4.61999 14.1498 5.49901 14.1498 6.51928C14.1498 7.53954 13.2358 8.41856 12.1742 8.41856C10.9952 8.41856 10.1987 7.53954 10.1987 6.51928ZM16.6841 6.80314C16.6841 5.66906 17.5981 4.90386 18.6596 4.90386C19.8387 4.90386 20.6352 5.78288 20.6352 6.80314C20.6352 7.82341 19.7212 8.70242 18.6596 8.70242C17.4806 8.70242 16.6841 7.82341 16.6841 6.80314ZM16.6841 29.4807C16.6841 28.3466 17.5981 27.5814 18.6596 27.5814C19.8387 27.5814 20.6352 28.4605 20.6352 29.4807C20.6352 30.501 19.7212 31.38 18.6596 31.38C17.4806 31.38 16.6841 30.501 16.6841 29.4807ZM16.6841 17.8588C16.6841 16.7247 17.5981 15.9595 18.6596 15.9595C19.8387 15.9595 20.6352 16.8385 20.6352 17.8588C20.6352 18.879 19.7212 19.758 18.6596 19.758C17.4806 19.758 16.6841 18.879 16.6841 17.8588ZM10.1987 29.1969C10.1987 28.0628 11.1127 27.2976 12.1742 27.2976C13.3532 27.2976 14.1498 28.1766 14.1498 29.1969C14.1498 30.2171 13.2358 31.0961 12.1742 31.0961C10.9952 31.0961 10.1987 30.2171 10.1987 29.1969ZM9.84484 11.9058C9.84484 10.5455 10.9351 9.66647 12.1728 9.66647C13.5883 9.66647 14.5009 10.7155 14.5009 11.9058C14.5009 13.0961 13.4106 14.1452 12.1728 14.1452C10.7588 14.1726 9.84484 13.1249 9.84484 11.9058ZM9.84484 23.8117C9.84484 22.4513 10.9351 21.5723 12.1728 21.5723C13.5883 21.5723 14.5009 22.6214 14.5009 23.8117C14.5009 25.002 13.4106 26.051 12.1728 26.051C10.7588 26.0785 9.84484 25.0294 9.84484 23.8117ZM21.8429 13.295C21.1939 12.1321 21.6366 10.7718 22.8156 10.1204C24.0247 9.49642 25.4387 9.92153 26.1163 11.0556C26.7653 12.2185 26.3226 13.5789 25.1436 14.2302C24.8198 14.4291 24.3772 14.5415 24.0534 14.5415C23.1394 14.5703 22.2555 14.0314 21.8429 13.295ZM9.7861 18.9915C9.04971 17.6873 9.54974 16.1569 10.9064 15.448C12.2617 14.739 13.8547 15.2217 14.5911 16.5245C15.3275 17.8286 14.8274 19.359 13.4707 20.068C13.0882 20.2942 12.6155 20.4368 12.233 20.4368C11.2602 20.4094 10.2574 19.8431 9.7861 18.9915ZM21.4002 24.8594C20.6037 23.4702 21.1352 21.826 22.5793 21.0608C24.0233 20.2956 25.7338 20.8057 26.5289 22.1949C27.3254 23.584 26.794 25.2282 25.3499 25.9934C24.9674 26.2485 24.4359 26.3623 24.0233 26.3623C22.9918 26.3623 21.9303 25.7384 21.4002 24.8594Z" fill="#FF5111"/>
<path d="M47.76 26.5532H40.5615V9.33896H47.4936C49.3776 9.33896 50.7944 9.76681 51.7452 10.6239C52.6947 11.481 53.1702 12.6123 53.1702 14.0179C53.1702 14.923 52.9489 15.7074 52.5062 16.3697C52.0636 17.0321 51.4556 17.5258 50.6823 17.848C51.5362 18.1387 52.2125 18.6283 52.7111 19.3153C53.2098 20.0024 53.4598 20.806 53.4598 21.7275C53.4598 23.2469 52.9694 24.4304 51.9871 25.2792C51.0048 26.1294 49.5962 26.5532 47.76 26.5532ZM47.7368 19.1823H43.4374V23.886H47.7122C49.5798 23.886 50.5143 23.1016 50.5143 21.5341C50.5143 20.7909 50.2725 20.2122 49.7902 19.8008C49.3066 19.3894 48.6221 19.1823 47.7368 19.1823ZM47.5196 12.0062H43.4374V16.4918H47.5196C49.323 16.4918 50.2247 15.7485 50.2247 14.2606C50.2247 13.5489 49.9992 12.9963 49.5484 12.6C49.0975 12.205 48.4213 12.0062 47.5196 12.0062ZM54.9503 16.5398V13.9699H59.661V26.5532H56.7865V16.5398H54.9503ZM58.2361 11.8608C57.7046 11.8608 57.2701 11.6949 56.9313 11.3644C56.5925 11.0325 56.4245 10.6088 56.4245 10.0918C56.4245 9.55837 56.5939 9.12229 56.9313 8.7822C57.2701 8.44211 57.7046 8.27344 58.2361 8.27344C58.7511 8.27344 59.1787 8.44348 59.5162 8.7822C59.8536 9.12092 60.023 9.55837 60.023 10.0918C60.023 10.6088 59.8536 11.0339 59.5162 11.3644C59.1787 11.6949 58.7511 11.8608 58.2361 11.8608ZM68.5659 23.9833V26.4805C68.212 26.5779 67.712 26.6259 67.0685 26.6259C64.6203 26.6259 63.3976 25.3889 63.3976 22.9164V16.2737H61.489V13.9699H63.3976V10.6979H66.272V13.9713H68.6151V16.2751H66.272V22.6271C66.272 23.6131 66.7393 24.1054 67.6724 24.1054L68.5659 23.9833ZM69.6206 20.2739C69.6206 18.4157 70.2081 16.8511 71.3844 15.5826C72.5593 14.3141 74.058 13.6792 75.8764 13.6792C77.5992 13.6792 78.9722 14.1688 79.9941 15.1465C81.0161 16.1243 81.624 17.2515 81.818 18.5282H78.8711C78.6935 17.8329 78.3356 17.2762 77.7959 16.8552C77.2563 16.4356 76.6087 16.2244 75.8518 16.2244C74.8367 16.2244 74.0239 16.6001 73.4118 17.3516C72.7997 18.1031 72.4937 19.0767 72.4937 20.2725C72.4937 21.4683 72.7997 22.4378 73.4118 23.1825C74.0239 23.9271 74.8367 24.2974 75.8518 24.2974C76.6087 24.2974 77.2563 24.0875 77.7959 23.6665C78.3356 23.2469 78.6935 22.6888 78.8711 21.9935H81.818C81.6254 23.2702 81.0174 24.3975 79.9941 25.3752C78.9709 26.353 77.5992 26.8425 75.8764 26.8425C74.0566 26.8425 72.5593 26.2076 71.3844 24.9391C70.2081 23.672 69.6206 22.117 69.6206 20.2739ZM91.641 21.1707C88.8389 21.1707 87.1968 21.2996 86.7131 21.5588C86.2145 21.818 85.9644 22.2856 85.9644 22.9644C85.9644 24.0478 86.6803 24.5894 88.1148 24.5894C90.4661 24.5894 91.641 23.6679 91.641 21.8249V21.1707ZM87.6066 26.8439C86.1257 26.8439 85.0218 26.4805 84.2977 25.7523C83.5736 25.0255 83.2102 24.0629 83.2102 22.8671C83.2102 21.3312 83.8865 20.2561 85.239 19.6431C85.5614 19.4977 85.8715 19.388 86.1694 19.3153C86.4672 19.2427 87.0752 19.17 87.9932 19.0973C88.9113 19.0246 90.1273 18.9876 91.641 18.9876V18.3568C91.641 16.8209 90.7475 16.053 88.9605 16.053C87.399 16.053 86.5123 16.6755 86.3033 17.9193H83.5012C83.6296 16.6906 84.1419 15.6772 85.0354 14.8764C85.9289 14.0769 87.261 13.6765 89.0329 13.6765C90.8199 13.6765 92.1684 14.0892 93.0782 14.9134C93.9881 15.7376 94.4431 16.8936 94.4431 18.3801V26.5504H91.7858V25.2175C90.8841 26.3022 89.4906 26.8439 87.6066 26.8439ZM101.946 26.8439C100.223 26.8439 98.9269 26.4394 98.058 25.6317C97.1891 24.8239 96.7137 23.7886 96.6331 22.5283H99.4106C99.4434 23.1098 99.692 23.5788 100.159 23.934C100.627 24.2891 101.278 24.4674 102.116 24.4674C102.856 24.4674 103.429 24.3385 103.83 24.0793C104.233 23.8201 104.434 23.4732 104.434 23.0371C104.434 22.5517 104.188 22.1924 103.698 21.9579C103.207 21.7234 102.606 21.5492 101.898 21.4368C101.189 21.323 100.482 21.1735 99.7726 20.9884C99.0636 20.8019 98.4638 20.4343 97.9733 19.8858C97.4829 19.3359 97.237 18.5844 97.237 17.6314C97.237 16.5329 97.6919 15.599 98.6018 14.8311C99.5117 14.0632 100.715 13.6792 102.213 13.6792C103.067 13.6792 103.819 13.8122 104.471 14.0796C105.123 14.3457 105.631 14.6981 105.993 15.1342C106.355 15.5703 106.63 16.0146 106.814 16.4671C107 16.9196 107.108 17.3804 107.141 17.8494H104.386C104.338 17.3489 104.124 16.9196 103.746 16.5645C103.367 16.2093 102.832 16.031 102.139 16.031C101.446 16.031 100.915 16.164 100.545 16.4314C100.174 16.6989 99.9885 17.0664 99.9885 17.534C99.9885 17.9701 100.234 18.3019 100.725 18.5282C101.215 18.7545 101.816 18.9245 102.524 19.037C103.233 19.1508 103.941 19.3071 104.65 19.5101C105.359 19.713 105.959 20.0956 106.449 20.662C106.94 21.2283 107.186 21.9798 107.186 22.9164C107.186 24.0478 106.731 24.9858 105.821 25.729C104.914 26.4723 103.621 26.8439 101.946 26.8439ZM108.315 16.5398V13.9699H113.026V26.5532H110.152V16.5398H108.315ZM111.6 11.8608C111.068 11.8608 110.634 11.6949 110.295 11.3644C109.956 11.0339 109.788 10.6088 109.788 10.0918C109.788 9.55837 109.958 9.12229 110.295 8.7822C110.633 8.44211 111.068 8.27344 111.6 8.27344C112.115 8.27344 112.542 8.44348 112.88 8.7822C113.219 9.12229 113.387 9.55837 113.387 10.0918C113.387 10.6088 113.217 11.0339 112.88 11.3644C112.542 11.6949 112.116 11.8608 111.6 11.8608ZM118.96 13.9699V15.6429C119.249 15.093 119.729 14.6282 120.397 14.2483C121.065 13.8684 121.874 13.6792 122.825 13.6792C124.305 13.6792 125.453 14.1317 126.266 15.0368C127.079 15.9419 127.486 17.1459 127.486 18.6489V26.5532H124.611V19.0136C124.611 18.125 124.407 17.4257 123.995 16.9169C123.584 16.4081 122.961 16.1531 122.124 16.1531C121.206 16.1531 120.486 16.4273 119.962 16.9772C119.439 17.5271 119.177 18.2868 119.177 19.2564V26.5546H116.302V13.9713H118.96V13.9699ZM136.343 26.8439C134.411 26.8439 132.844 26.2049 131.645 24.9282C130.445 23.6515 129.845 22.0991 129.845 20.2725C129.845 18.4459 130.445 16.8908 131.645 15.6059C132.844 14.321 134.41 13.6778 136.343 13.6778C138.291 13.6778 139.865 14.321 141.064 15.6059C142.264 16.8908 142.864 18.4459 142.864 20.2725C142.864 22.0991 142.264 23.6501 141.064 24.9282C139.865 26.2062 138.291 26.8439 136.343 26.8439ZM132.72 20.2739C132.72 21.4697 133.061 22.4392 133.746 23.1838C134.43 23.9285 135.295 24.2987 136.343 24.2987C137.406 24.2987 138.279 23.9271 138.963 23.1838C139.647 22.4406 139.989 21.4711 139.989 20.2739C139.989 19.0616 139.647 18.0839 138.963 17.3406C138.279 16.5974 137.406 16.2257 136.343 16.2257C135.297 16.2257 134.43 16.5974 133.746 17.3406C133.061 18.0839 132.72 19.0616 132.72 20.2739ZM146.551 26.7479C145.972 26.7479 145.492 26.5655 145.114 26.2021C144.735 25.8387 144.547 25.3656 144.547 24.7842C144.547 24.2178 144.735 23.7461 145.114 23.3662C145.492 22.9864 145.972 22.7971 146.551 22.7971C147.115 22.7971 147.585 22.9864 147.964 23.3662C148.342 23.7461 148.531 24.2192 148.531 24.7842C148.531 25.3656 148.345 25.8387 147.974 26.2021C147.606 26.5655 147.132 26.7479 146.551 26.7479ZM149.798 16.5398V13.9699H154.509V26.5532H151.635V16.5398H149.798ZM153.083 11.8608C152.551 11.8608 152.117 11.6949 151.778 11.3644C151.439 11.0325 151.271 10.6088 151.271 10.0918C151.271 9.55837 151.441 9.12229 151.778 8.7822C152.117 8.44211 152.551 8.27344 153.083 8.27344C153.598 8.27344 154.025 8.44348 154.363 8.7822C154.702 9.12229 154.87 9.55837 154.87 10.0918C154.87 10.6088 154.7 11.0339 154.363 11.3644C154.025 11.6949 153.598 11.8608 153.083 11.8608ZM163.479 26.8439C161.548 26.8439 159.981 26.2049 158.781 24.9282C157.582 23.6515 156.982 22.0991 156.982 20.2725C156.982 18.4459 157.582 16.8908 158.781 15.6059C159.981 14.321 161.546 13.6778 163.479 13.6778C165.428 13.6778 167.002 14.321 168.201 15.6059C169.401 16.8908 170 18.4459 170 20.2725C170 22.0991 169.401 23.6501 168.201 24.9282C167.002 26.2062 165.428 26.8439 163.479 26.8439ZM159.856 20.2739C159.856 21.4697 160.198 22.4392 160.882 23.1838C161.567 23.9285 162.432 24.2987 163.479 24.2987C164.542 24.2987 165.415 23.9271 166.1 23.1838C166.784 22.4406 167.126 21.4711 167.126 20.2739C167.126 19.0616 166.784 18.0839 166.1 17.3406C165.415 16.5974 164.542 16.2257 163.479 16.2257C162.433 16.2257 161.567 16.5974 160.882 17.3406C160.198 18.0839 159.856 19.0616 159.856 20.2739Z" fill="#252732"/>
</g>
<defs>
<clipPath id="clip0_670_15958">
<rect width="170" height="36" fill="white"/>
</clipPath>
</defs>
</svg>
