<svg width="362" height="207" viewBox="0 0 362 207" fill="none" xmlns="http://www.w3.org/2000/svg">
<path opacity="0.1" fill-rule="evenodd" clip-rule="evenodd" d="M1.03002 154.622L1.02893 154.648C1.0097 155.096 0.999996 155.547 0.999996 156C0.999996 156.715 1.02417 157.423 1.07168 158.125L1.07342 158.151L1.07382 158.176C1.07669 158.348 1.07968 158.518 1.08276 158.688L1.11477 158.687C2.47604 174.549 15.7845 187 32 187L43.2355 187L43.2355 187.08L68.8508 187.08C70.2122 187.08 70.9192 187.08 71.6099 187.103C79.8487 187.381 87.8124 190.136 94.4617 195.008C95.0191 195.416 95.575 195.853 96.6453 196.694L96.6497 196.698L96.6573 196.704L96.6628 196.708L96.6642 196.709C97.7562 197.567 98.2845 197.982 98.8115 198.369C105.137 203.003 112.712 205.624 120.549 205.888C121.202 205.91 121.874 205.91 123.263 205.91L125.545 205.91L125.554 206L298 206C309.218 206 317.571 205.999 324.19 205.458C330.799 204.918 335.592 203.845 339.706 201.749C347.044 198.01 353.01 192.044 356.749 184.706C358.845 180.592 359.918 175.799 360.458 169.19C360.999 162.571 361 154.218 361 143L361 64C361 52.7824 360.999 44.4294 360.458 37.8095C359.918 31.2012 358.845 26.4081 356.749 22.2943C353.01 14.956 347.044 8.98978 339.706 5.25072C335.592 3.15465 330.799 2.08153 324.19 1.54161C317.571 1.00075 309.218 0.999974 298 0.999975L64 0.999996C52.7825 0.999997 44.4294 1.00078 37.8095 1.54164C31.2013 2.08156 26.4082 3.15468 22.2944 5.25075C14.9561 8.98981 8.98982 14.956 5.25078 22.2944C3.15468 26.4081 2.08159 31.2013 1.54167 37.8095C1.00078 44.4294 1.00002 52.7825 1.00002 64L1.00002 143C1.00003 147.254 1.00003 151.098 1.02981 154.597L1.03002 154.622ZM298 207C320.402 207 331.603 207 340.16 202.64C347.686 198.805 353.805 192.686 357.64 185.16C362 176.603 362 165.402 362 143L362 64C362 41.5979 362 30.3968 357.64 21.8403C353.805 14.3139 347.686 8.19464 340.16 4.35971C331.603 -2.78602e-05 320.402 -2.6881e-05 298 -2.49225e-05L64 -4.46559e-06C41.5979 -2.50714e-06 30.3969 -1.52791e-06 21.8404 4.35974C14.3139 8.19467 8.19469 14.3139 4.35976 21.8404C1.50784e-05 30.3969 1.60577e-05 41.5979 1.80161e-05 64L2.49225e-05 143C2.52943e-05 147.253 2.56308e-05 151.101 0.0298416 154.605C0.0100052 155.068 -4.49942e-06 155.533 -4.45856e-06 156C-4.39413e-06 156.737 0.0249285 157.468 0.0739703 158.193C0.0768695 158.366 0.0798603 158.539 0.0830036 158.711C0.0833698 158.731 0.0837665 158.751 0.0841327 158.771C0.0841327 158.772 0.0841938 158.774 0.0841938 158.775C0.087978 158.98 0.0919148 159.183 0.0960347 159.386C0.102993 159.178 0.110439 158.974 0.118435 158.772C0.135982 158.977 0.155452 159.181 0.176815 159.384C0.176967 159.385 0.17712 159.387 0.177272 159.388C0.178127 159.397 0.178981 159.405 0.179866 159.413C1.88354 175.481 15.4799 188 32 188L42.2355 188L42.2355 188.08L68.8279 188.08C70.2109 188.08 70.9024 188.08 71.5762 188.102C79.614 188.373 87.3835 191.061 93.8707 195.815C94.4144 196.213 94.9579 196.64 96.0449 197.494L96.0462 197.495C97.1331 198.35 97.6767 198.777 98.2204 199.175C104.708 203.929 112.477 206.616 120.515 206.887C121.189 206.91 121.88 206.91 123.263 206.91L125.545 206.91C125.392 206.941 125.238 206.971 125.081 207L298 207Z" fill="#282A38"/>
</svg>
