<svg width="360" height="242" viewBox="0 0 360 242" fill="none" xmlns="http://www.w3.org/2000/svg">
<path opacity="0.1" fill-rule="evenodd" clip-rule="evenodd" d="M1.43603 180.77L1.43449 180.806C1.41209 181.327 1.40078 181.85 1.40078 182.377C1.40078 183.207 1.42894 184.03 1.48432 184.846L1.48673 184.881L1.48733 184.917C1.49059 185.112 1.49398 185.306 1.4975 185.499L1.53452 185.498C3.1205 203.923 18.627 218.389 37.5244 218.389H50.9278V218.482L80.7435 218.482C82.3344 218.482 83.1667 218.482 83.9801 218.509C93.6865 218.835 103.069 222.071 110.903 227.794C111.56 228.274 112.215 228.787 113.466 229.767L113.485 229.782L113.487 229.784L113.491 229.787L113.492 229.788C114.774 230.792 115.39 231.275 116.004 231.723C123.384 237.115 132.223 240.163 141.368 240.47C142.129 240.496 142.912 240.496 144.543 240.496H147.219L147.23 240.601L284.951 240.601C298.109 240.601 307.893 240.6 315.645 239.969C323.38 239.339 328.967 238.088 333.754 235.656C342.316 231.307 349.278 224.367 353.64 215.831C356.078 211.06 357.333 205.49 357.965 197.779C358.598 190.051 358.599 180.297 358.599 167.179V74.8212C358.599 61.7032 358.598 51.9489 357.965 44.2213C357.333 36.5101 356.078 30.9404 353.64 26.1691C349.278 17.6334 342.316 10.6932 333.754 6.34369C328.967 3.91217 323.38 2.66139 315.645 2.03132C307.893 1.39993 298.109 1.39884 284.951 1.39884L75.0489 1.39886C61.891 1.39887 52.1067 1.39995 44.3553 2.03135C36.6201 2.66142 31.0326 3.9122 26.246 6.34372C17.6835 10.6933 10.7225 17.6334 6.3601 26.1691C3.92158 30.9405 2.66713 36.5102 2.03518 44.2213C1.4019 51.9489 1.4008 61.7032 1.40081 74.8213L1.40081 167.179C1.40081 172.152 1.40082 176.645 1.43573 180.734L1.43603 180.77ZM146.675 242C146.859 241.966 147.04 241.931 147.219 241.895H144.543C142.921 241.895 142.111 241.895 141.32 241.868C131.895 241.552 122.784 238.409 115.177 232.852C114.539 232.386 113.902 231.887 112.628 230.888L112.626 230.887C111.351 229.888 110.714 229.389 110.076 228.923C102.469 223.366 93.3584 220.224 83.933 219.907C83.1429 219.881 82.332 219.881 80.7102 219.881L49.527 219.881V219.787H37.5244C18.1544 219.787 2.21227 205.155 0.211604 186.373C0.210353 186.361 0.209108 186.35 0.207868 186.338C0.207688 186.336 0.207509 186.335 0.207329 186.333C0.182276 186.095 0.159454 185.857 0.138886 185.618C0.12951 185.853 0.120778 186.092 0.112619 186.335C0.107793 186.098 0.103166 185.861 0.0987385 185.621C0.0987074 185.62 0.0986763 185.618 0.0986452 185.616C0.0981206 185.588 0.0975988 185.56 0.0970798 185.531C0.093502 185.335 0.0900573 185.138 0.0867455 184.94C0.0292372 184.093 0 183.238 0 182.377C0 181.83 0.0117379 181.287 0.0349988 180.746C3.54271e-05 176.65 3.51037e-05 172.15 3.46678e-05 167.179L2.68396e-05 74.8213C2.4543e-05 48.6314 2.3378e-05 35.5364 5.11242 25.5332C9.60941 16.7342 16.7851 9.58027 25.6109 5.09692C35.6445 2.33457e-05 48.7793 2.26313e-05 75.0489 2.03417e-05L284.951 0C311.221 0 324.355 -3.3351e-06 334.389 5.09689C343.215 9.58024 350.391 16.7341 354.888 25.5332C360 35.5364 360 48.6313 360 74.8212V167.179C360 193.369 360 206.464 354.888 216.467C350.391 225.266 343.215 232.42 334.389 236.903C324.355 242 311.221 242 284.951 242L146.675 242Z" fill="#222836"/>
</svg>
